<?xml version="1.0" encoding="UTF-8"?>
<svg width="53px" height="53px" viewBox="0 0 53 53" version="1.1" xmlns="http://www.w3.org/2000/svg" xmlns:xlink="http://www.w3.org/1999/xlink">
    <!-- Generator: Sketch 55.2 (78181) - https://sketchapp.com -->
    <title>help</title>
    <desc>Created with Sketch.</desc>
    <g id="Page-1" stroke="none" stroke-width="1" fill="none" fill-rule="evenodd">
        <g id="deviun.me" transform="translate(-1113.000000, -2933.000000)" fill="#000000" fill-rule="nonzero">
            <g id="links" transform="translate(273.000000, 2933.000000)">
                <g id="help" transform="translate(840.000000, 0.000000)">
                    <path d="M16.3576178,37.0953039 L16.3266833,37.0644715 C15.9148552,36.6545998 15.2487121,36.6560731 14.8386727,37.0680493 C14.4287385,37.4800255 14.4303168,38.1462379 14.8422502,38.5562148 L14.8766569,38.5904146 C15.0818344,38.7937194 15.3495122,38.8951613 15.6170847,38.8951613 C15.8880243,38.8951613 16.1589638,38.7910886 16.3646675,38.5834694 C16.7736547,38.1705461 16.7704981,37.5043337 16.3576178,37.0953039 Z" id="Path"></path>
                    <path d="M38.2935126,14.7059791 C31.7922868,8.20553383 21.2139511,8.20553383 14.7127253,14.7059791 C9.39062111,20.0274443 8.29373738,28.2936841 12.0451888,34.8079198 C12.3288533,35.3004651 12.9582465,35.4697583 13.450748,35.1862309 C13.9433525,34.9026005 14.1127689,34.2733857 13.8291045,33.7808404 C10.5411294,28.0714933 11.5030769,20.8261581 16.1683066,16.1613857 C21.8669145,10.4634619 31.1393234,10.4634619 36.8378284,16.1613857 C42.5364364,21.8593094 42.5364364,31.1305021 36.8378284,36.8284259 C32.1441912,41.5214996 24.8677257,42.4657334 19.1428716,39.1247408 C18.6518111,38.838126 18.0215944,39.0038171 17.7350481,39.4948187 C17.4485017,39.9857174 17.6142128,40.6159613 18.1051704,40.9024732 C20.7173326,42.4269349 23.612027,43.1693548 26.4886064,43.1693548 C30.8051223,43.1693548 35.0802619,41.4966973 38.2935126,38.2838324 C44.7946356,31.7833871 44.7946356,21.2064245 38.2935126,14.7059791 Z" id="Path"></path>
                    <path d="M52.996377,21.9517305 C52.99617,21.4427441 52.6258946,21.0093242 52.1232227,20.9297207 L48.3021505,20.3242578 L46.275004,15.4355254 L48.5464474,12.3037637 C48.845297,11.8917715 48.8002677,11.3235742 48.4402403,10.9638574 L42.0200977,4.5480625 C41.6599669,4.18824219 41.0917696,4.14352344 40.6799845,4.44278711 L37.5512247,6.71567969 L32.6590763,4.69143164 L32.0510255,0.872326172 C31.9709044,0.369861328 31.537588,0 31.0287052,0 C31.0286016,0 31.0283946,0 31.0282911,0 L21.9517306,0.0037265625 C21.4427442,0.00393359375 21.0094278,0.374208984 20.9297208,0.876880859 L20.3243614,4.69795312 L15.435629,6.72509961 L12.3038673,4.45365625 C11.8919786,4.15480664 11.3237813,4.19983594 10.963961,4.55986328 L4.5481661,10.9800059 C4.18834579,11.3401367 4.14373056,11.908334 4.44289071,12.3201191 L6.71578329,15.4488789 L4.69153524,20.3410273 L0.872429774,20.9490781 C0.369757899,21.0290957 0,21.4627227 0,21.971709 L0.00372664935,31.048166 C0.0039336806,31.5571523 0.374209071,31.9905723 0.876880946,32.0701758 L4.69795321,32.6756387 L6.7250997,37.5643711 L4.45365634,40.6961328 C4.15480673,41.108125 4.19983602,41.6763223 4.55986337,42.0360391 L10.9800059,48.451834 C11.3401368,48.8116543 11.9084376,48.856373 12.3201192,48.5571094 L15.448879,46.2842168 L20.3410274,48.3084648 L20.9490782,52.1275703 C21.0290958,52.6301387 21.4624122,53 21.971295,53 C21.9713985,53 21.9716056,53 21.9717091,53 L31.0481661,52.9961699 C31.5571524,52.9959629 31.9904688,52.6256875 32.0701759,52.1230156 L32.6756388,48.3019434 L37.5643712,46.2747969 L40.6961329,48.5462402 C41.1081251,48.8451934 41.6763224,48.8000605 42.0360391,48.4400332 L48.4518341,42.0198906 C48.8116544,41.6597598 48.8562696,41.0915625 48.5571095,40.6797773 L46.2842169,37.5510176 L48.3084649,32.6588691 L52.1275704,32.0508184 C52.6302423,31.9708008 53,31.5371738 53,31.0281875 L52.996377,21.9517305 Z M47.4108809,30.7054258 C47.0553048,30.7620488 46.7547989,30.9992031 46.6171231,31.3319023 L44.1498282,37.2948164 C44.0121524,37.6274121 44.0572852,38.0077285 44.2688712,38.2990215 L46.3628888,41.1815176 L41.1964239,46.351502 L38.3109259,44.2587266 C38.0196329,44.0473477 37.6393165,44.0027324 37.3066173,44.1404082 L31.3474298,46.6115332 C31.0149376,46.749416 30.7778868,47.0501289 30.7215743,47.4057051 L30.1637286,50.926168 L22.8548009,50.9292734 L22.2945743,47.4107773 C22.2379513,47.0552012 22.000797,46.7546953 21.6680977,46.6170195 L15.7051837,44.1497246 C15.5777559,44.0969316 15.4432891,44.0710527 15.309547,44.0710527 C15.0942345,44.0710527 14.8806817,44.1382344 14.7010821,44.2687676 L11.818586,46.3627852 L6.64860165,41.1963203 L8.74137704,38.3108223 C8.95275595,38.0194258 8.9974747,37.6391094 8.85959188,37.3065137 L6.3885704,31.3473262 C6.25068759,31.014834 5.9499747,30.7777832 5.59439852,30.7214707 L2.07383212,30.163625 L2.07083016,22.8546973 L5.58932626,22.2944707 C5.94490243,22.2378477 6.24540829,22.0006934 6.38308407,21.6679941 L8.85037899,15.7050801 C8.98805477,15.3724844 8.94292196,14.992168 8.73133602,14.700875 L6.63731845,11.8183789 L11.8037833,6.64839453 L14.6892813,8.74116992 C14.9807813,8.95254883 15.3609942,8.99747461 15.6935899,8.85948828 L21.6527774,6.38836328 C21.9852696,6.25048047 22.2223204,5.94966406 22.2786329,5.59419141 L22.8363751,2.073625 L30.1454063,2.07062305 L30.7056329,5.58911914 C30.7622559,5.94469531 30.9994102,6.24520117 31.3321095,6.38287695 L37.2950235,8.85017188 C37.6276192,8.98764063 38.0079356,8.94271484 38.2992286,8.73112891 L41.1817247,6.63711133 L46.3517091,11.8035762 L44.2589337,14.6890742 C44.0475548,14.9804707 44.002836,15.3607871 44.1407188,15.6933828 L46.6117403,21.6525703 C46.7496231,21.9850625 47.050336,22.2221133 47.4059122,22.2784258 L50.9264786,22.8362715 L50.9294806,30.1451992 L47.4108809,30.7054258 Z" id="Shape"></path>
                    <path d="M35.7245674,28.0038595 C34.4288364,26.8269314 32.6875198,26.3157865 30.9685808,26.5832183 L26.4187591,22.0344944 C26.695476,20.2326955 26.1011201,18.3784875 24.7983443,17.0759223 C23.1649793,15.4429515 20.7229091,14.9427855 18.576929,15.8015298 C18.253592,15.9308955 18.0169685,16.2139673 17.9470382,16.5549377 C17.8770043,16.8959082 17.9830912,17.2493077 18.2293495,17.4955066 L19.7315562,18.9973509 C20.0495061,19.315224 20.0495061,19.8324799 19.7315562,20.1504566 C19.4136064,20.4684333 18.8962257,20.4684333 18.5781723,20.1504566 L17.0707855,18.6433299 C16.8250452,18.3976489 16.4728036,18.2913805 16.1320616,18.3606725 C15.7915269,18.4297573 15.5082832,18.6649772 15.3779538,18.9869934 C14.4746614,21.2171804 15.065702,23.8035635 16.8485625,25.4229659 C18.1456403,26.6013441 19.8883038,27.1123854 21.6091075,26.8430892 L26.1547852,31.3877737 C25.8763071,33.1910226 26.4703522,35.0469915 27.7745784,36.3510067 C28.8782342,37.4543961 30.3487392,38.0403226 31.8484596,38.0403226 C32.5758385,38.0403226 33.3103658,37.9023601 34.0127769,37.6186668 C34.335078,37.488576 34.5706654,37.2054007 34.6399741,36.8648446 C34.7092829,36.5242884 34.603196,36.1717175 34.3573521,35.9259329 L32.8619829,34.430821 C32.5440331,34.1129479 32.5440331,33.595692 32.8619829,33.2777153 C33.1799328,32.9597386 33.6973135,32.9597386 34.0153669,33.2777153 L35.5077317,34.76972 C35.7537828,35.0157117 36.1070604,35.1219801 36.4481131,35.0520667 C36.7891658,34.9822568 37.0722023,34.7460012 37.2018065,34.4230529 C38.0950497,32.1974231 37.501419,29.6177725 35.7245674,28.0038595 Z M35.4803811,31.8130546 C34.3544513,30.6874999 32.5224842,30.6873964 31.3966579,31.8130546 C30.2708317,32.9387128 30.2708317,34.7701343 31.3966579,35.8956889 L31.447215,35.9463373 C30.6291857,35.8566409 29.8474166,35.4939196 29.2395926,34.8862424 C28.3101929,33.9570668 27.943758,32.589767 28.2834639,31.3178603 C28.37888,30.9606285 28.2766263,30.5797814 28.0151387,30.318357 L22.6784715,24.9829773 C22.4816306,24.7861839 22.217035,24.6796048 21.945809,24.6796048 C21.8573342,24.6796048 21.7680306,24.6908945 21.680281,24.714199 C20.4533407,25.0399438 19.1678661,24.7314961 18.2415743,23.890049 C17.5612301,23.271807 17.1514902,22.4340886 17.0533806,21.5557686 L17.1129509,21.6153245 C18.2388807,22.7408791 20.0707442,22.7409827 21.196674,21.6153245 C22.3225003,20.4896663 22.3225003,18.6582448 21.196674,17.5326902 L21.147671,17.483699 C21.9578267,17.5775384 22.7314113,17.9391203 23.3331229,18.5408938 C24.2614866,19.4690336 24.6281287,20.8350905 24.2900804,22.1059615 C24.1950787,22.4628826 24.297436,22.8434188 24.5587164,23.1046362 L29.8984916,28.4431231 C30.1593576,28.7038225 30.5389497,28.8063622 30.8957497,28.7121086 C32.1214468,28.3883316 33.4057818,28.6967794 34.3311412,29.5371908 C35.0052694,30.1495289 35.4138696,30.9786506 35.5164341,31.8490988 L35.4803811,31.8130546 Z" id="Shape"></path>
                    <path d="M35.6876587,19.2789969 C34.0170098,17.1111155 31.6486438,15.5861948 29.0186465,14.985041 C28.4726775,14.8601353 27.9300536,15.2086974 27.8071954,15.7636166 C27.6843372,16.3185357 28.0273671,16.8694389 28.5736402,16.9942417 C30.7486971,17.4913932 32.7082453,18.7536309 34.0913127,20.5485456 C34.2913121,20.8080365 34.5892332,20.9435484 34.8901953,20.9435484 C35.1087451,20.9435484 35.3289168,20.8720854 35.5143192,20.7246287 C35.9551693,20.3741101 36.0328174,19.7268246 35.6876587,19.2789969 Z" id="Path"></path>
                    <path d="M37.9897059,22.9980017 L37.974215,22.9507125 C37.7941607,22.4008181 37.1962783,22.0992968 36.6385024,22.2766315 C36.0808325,22.4541754 35.7747295,23.0438262 35.9548899,23.5937206 L35.9683648,23.6347326 C36.1123447,24.0792724 36.5296422,24.3629032 36.9787701,24.3629032 C37.0857205,24.3629032 37.1945807,24.3467914 37.3018494,24.3129984 C37.8600497,24.1371285 38.1680626,23.5484192 37.9897059,22.9980017 Z" id="Path"></path>
                </g>
            </g>
        </g>
    </g>
</svg>