<?xml version="1.0" encoding="UTF-8"?>
<svg width="54px" height="53px" viewBox="0 0 54 53" version="1.1" xmlns="http://www.w3.org/2000/svg" xmlns:xlink="http://www.w3.org/1999/xlink">
    <!-- Generator: Sketch 55 (78076) - https://sketchapp.com -->
    <title>github</title>
    <desc>Created with Sketch.</desc>
    <g id="Page-1" stroke="none" stroke-width="1" fill="none" fill-rule="evenodd">
        <g id="deviun.me" transform="translate(-604.000000, -2935.000000)" fill="#000000" fill-rule="nonzero">
            <g id="links" transform="translate(393.000000, 2933.000000)">
                <g id="github" transform="translate(211.000000, 2.000000)">
                    <path d="M50.0686014,13.5369907 C47.669021,9.38643589 44.4141434,6.10043589 40.303112,3.67824941 C36.1914686,1.25593939 31.7027798,0.0450932401 26.8338636,0.0450932401 C21.9655595,0.0450932401 17.4754022,1.25631002 13.3646154,3.67824941 C9.25321679,6.10031236 5.99846154,9.38643589 3.59888112,13.5369907 C1.19966783,17.687422 0,22.219725 0,27.1337763 C0,33.0366667 1.70594406,38.344697 5.11868882,43.0592261 C8.53106643,47.7741258 12.9393531,51.0366527 18.3431819,52.8471772 C18.9722028,52.9650373 19.4378496,52.8821398 19.7406119,52.600585 C20.0434965,52.3186597 20.1947553,51.9655734 20.1947553,51.5428089 C20.1947553,51.4722658 20.1887587,50.8376247 20.1771329,49.6381446 C20.1651399,48.4386643 20.1595106,47.3922541 20.1595106,46.499408 L19.3558566,46.6397529 C18.8434616,46.7345105 18.1970629,46.7746619 17.4166608,46.763296 C16.6366258,46.7523006 15.8268531,46.6697739 14.9884441,46.5163333 C14.1496678,46.3642518 13.3695105,46.0115361 12.6473601,45.4589277 C11.9255769,44.9063194 11.4131818,44.1829744 11.1102972,43.2900046 L10.7609091,42.4783263 C10.5280245,41.9379487 10.1613811,41.3376527 9.66048951,40.6796619 C9.1595979,40.0210537 8.65307693,39.5745688 8.14068182,39.3394662 L7.89604895,39.162676 C7.73304197,39.0451865 7.58178321,38.9034825 7.4419056,38.7390467 C7.30215035,38.5746107 7.19751749,38.4100513 7.12763986,38.2452447 C7.05763986,38.0803147 7.11564685,37.945035 7.30227273,37.8389115 C7.48889861,37.7327879 7.82617133,37.6812704 8.31555944,37.6812704 L9.01409091,37.7866527 C9.47998251,37.8809161 10.0562587,38.1624709 10.7436539,38.6330467 C11.4306818,39.1032518 11.9954546,39.7145432 12.4380944,40.4666737 C12.9741084,41.4310513 13.6198951,42.1658858 14.3772902,42.6715478 C15.1340735,43.1772097 15.897098,43.4296084 16.6656294,43.4296084 C17.4341609,43.4296084 18.0979371,43.3708019 18.6572028,43.2538065 C19.2158567,43.1361935 19.74,42.9594032 20.2293881,42.7244242 C20.439021,41.1482611 21.0097902,39.937415 21.9412064,39.091021 C20.6136539,38.9501818 19.4201049,38.7380583 18.3599475,38.4560094 C17.3004021,38.1735898 16.2054896,37.7152447 15.0759441,37.0797389 C13.9457867,36.4450979 13.0082517,35.6570162 12.2630944,34.7168532 C11.5178147,33.7761959 10.9061713,32.5412588 10.429021,31.0131538 C9.95162587,29.4844312 9.71286714,27.7209767 9.71286714,25.722296 C9.71286714,22.8764803 10.6331469,20.4547879 12.4733392,18.4558602 C11.6113112,16.3163403 11.6926923,13.9178741 12.7177273,11.2607086 C13.3932518,11.0488322 14.395035,11.2078322 15.7225873,11.7367203 C17.0503846,12.2658555 18.0225525,12.7191352 18.64007,13.0949534 C19.2575874,13.470648 19.7523602,13.7890186 20.1251225,14.0472238 C22.2918182,13.4360559 24.5277797,13.1304103 26.833619,13.1304103 C29.1394581,13.1304103 31.3759091,13.4360559 33.5427273,14.0472238 L34.8704021,13.2010769 C35.7783218,12.6364848 36.8504721,12.1190862 38.0842832,11.6487576 C39.3188286,11.178676 40.2628497,11.0492028 40.9153671,11.2610793 C41.9631643,13.9183683 42.0565385,16.316711 41.1942657,18.4562307 C43.0343357,20.4551584 43.9549826,22.8774685 43.9549826,25.7226667 C43.9549826,27.7213473 43.7153671,29.4903613 43.2387063,31.0308205 C42.7614336,32.5715268 42.144528,33.8052285 41.3877447,34.7345197 C40.6301049,35.6636876 39.6865734,36.445592 38.557028,37.0801096 C37.4272377,37.7151212 36.3319581,38.1734662 35.2724126,38.4558858 C34.2123775,38.7383054 33.0188286,38.9505524 31.6912763,39.0916387 C32.9020804,40.149415 33.507605,41.8191002 33.507605,44.0999533 L33.507605,51.5418205 C33.507605,51.964585 33.6532343,52.3175478 33.9447378,52.5995968 C34.2358742,52.8811516 34.6956468,52.9640489 35.3246679,52.8460653 C40.7292308,51.0357879 45.1375175,47.7731376 48.5497728,43.0582377 C51.9616608,38.3437086 53.6682168,33.0356783 53.6682168,27.1327879 C53.666993,22.2193543 52.4667133,17.687422 50.0686014,13.5369907 Z" id="Shape"></path>
                </g>
            </g>
        </g>
    </g>
</svg>