<?xml version="1.0" encoding="UTF-8"?>
<svg width="52px" height="53px" viewBox="0 0 52 53" version="1.1" xmlns="http://www.w3.org/2000/svg" xmlns:xlink="http://www.w3.org/1999/xlink">
    <!-- Generator: Sketch 55 (78076) - https://sketchapp.com -->
    <title>instagram</title>
    <desc>Created with Sketch.</desc>
    <g id="Page-1" stroke="none" stroke-width="1" fill="none" fill-rule="evenodd">
        <g id="deviun.me" transform="translate(-817.000000, -2935.000000)" fill="#000000" fill-rule="nonzero">
            <g id="links" transform="translate(393.000000, 2933.000000)">
                <g id="instagram" transform="translate(423.000000, 2.000000)">
                    <path d="M27.1649529,13.1980392 C19.9590707,13.1980392 13.9884824,19.1215687 13.9884824,26.5 C13.9884824,33.8784313 19.8561294,39.8019607 27.1649529,39.8019607 C34.4737766,39.8019607 40.3414236,33.7745099 40.3414236,26.5 C40.3414236,19.2254901 34.3708353,13.1980392 27.1649529,13.1980392 Z M27.1649529,35.0215687 C22.5326001,35.0215687 18.7237766,31.1764706 18.7237766,26.5 C18.7237766,21.8235294 22.5326001,17.9784313 27.1649529,17.9784313 C31.7973059,17.9784313 35.6061294,21.8235294 35.6061294,26.5 C35.6061294,31.1764706 31.7973059,35.0215687 27.1649529,35.0215687 Z" id="Shape"></path>
                    <ellipse id="Oval" cx="40.8561294" cy="12.8862745" rx="2.98529412" ry="3.01372549"></ellipse>
                    <path d="M48.5767178,5.09215687 C45.9002471,2.28627451 42.0914235,0.831372549 37.7678942,0.831372549 L16.5620118,0.831372549 C7.60612944,0.831372549 1.63554121,6.85882352 1.63554121,15.9 L1.63554121,37.2039216 C1.63554121,41.672549 3.07671768,45.517647 5.95907063,48.3235294 C8.73848238,51.0254901 12.4443647,52.3764706 16.6649529,52.3764706 L37.6649529,52.3764706 C42.0914235,52.3764706 45.797306,50.9215687 48.4737765,48.3235294 C51.2531883,45.6215687 52.6943648,41.7764706 52.6943648,37.3078431 L52.6943648,15.9 C52.6943648,11.5352941 51.2531883,7.79411764 48.5767178,5.09215687 Z M48.1649529,37.3078431 C48.1649529,40.5294118 47.0326001,43.127451 45.1796589,44.8941176 C43.3267178,46.6607843 40.7531883,47.5960784 37.6649529,47.5960784 L16.6649529,47.5960784 C13.5767177,47.5960784 11.0031883,46.6607843 9.1502471,44.8941176 C7.29730592,43.0235294 6.37083533,40.4254901 6.37083533,37.2039216 L6.37083533,15.9 C6.37083533,12.7823529 7.29730592,10.1843137 9.1502471,8.31372549 C10.9002471,6.54705882 13.5767177,5.6117647 16.6649529,5.6117647 L37.8708353,5.6117647 C40.9590707,5.6117647 43.5326001,6.54705882 45.3855413,8.41764706 C47.1355412,10.2882353 48.1649529,12.8862745 48.1649529,15.9 L48.1649529,37.3078431 Z" id="Shape"></path>
                </g>
            </g>
        </g>
    </g>
</svg>