<?xml version="1.0" encoding="UTF-8"?>
<svg width="53px" height="53px" viewBox="0 0 53 53" version="1.1" xmlns="http://www.w3.org/2000/svg" xmlns:xlink="http://www.w3.org/1999/xlink">
    <!-- Generator: Sketch 55.2 (78181) - https://sketchapp.com -->
    <title>itunes</title>
    <desc>Created with Sketch.</desc>
    <g id="Page-1" stroke="none" stroke-width="1" fill="none" fill-rule="evenodd">
        <g id="deviun.me" transform="translate(-1008.000000, -2934.000000)" fill="#000000" fill-rule="nonzero">
            <g id="links" transform="translate(273.000000, 2933.000000)">
                <g id="itunes" transform="translate(735.000000, 1.000000)">
                    <path d="M37.7292688,8.51785714 C37.5742479,8.51785714 37.0373382,8.59507111 36.5357048,8.68896816 C34.3181611,9.10708801 21.2465633,11.8003297 21.0232556,11.8860476 C20.6776139,12.0182233 20.3355323,12.3316495 20.1733914,12.6650331 L20.0358467,12.9477057 C20.0358467,12.9477057 19.9711198,32.9409033 19.8707931,33.1656673 C19.7186848,33.5085387 19.3804868,33.8327615 19.0688267,33.9361464 C18.9212494,33.9852216 18.3370891,34.120996 17.7710524,34.2374676 C15.148642,34.7772937 14.1745022,35.1662957 13.350205,36.003517 C12.8822295,36.478564 12.535617,37.1273369 12.3857742,37.807845 C12.2427277,38.4585809 12.2909492,39.432231 12.494839,40.0240767 C12.920742,41.2591335 13.8651075,42.1346334 15.1369911,42.4716158 C16.3376751,42.7892953 18.5849931,42.4356274 19.7348666,41.7482488 C20.2148166,41.4606686 20.8329585,40.857372 21.1546512,40.3613863 C21.2818396,40.1650859 21.4734312,39.7695406 21.5802305,39.4826148 C21.9546757,38.4769023 21.9663265,20.5657978 22.0142245,20.3400523 C22.095133,19.9575937 22.3482153,19.6772113 22.6967696,19.5823327 C23.0106951,19.4966149 35.5978119,16.9218077 35.9518681,16.8707696 C36.2852117,16.8230031 36.6001081,16.9430736 36.751569,17.1766711 C36.8538375,17.3340386 37.107567,29.6904956 36.7645144,30.1020722 C36.5153158,30.4017574 35.9965296,30.5172475 34.7175261,30.7878149 C32.7708646,31.1987372 32.1045011,31.3937288 31.3594944,31.7702985 C30.428398,32.2407652 29.9115537,32.756381 29.5121887,33.6122508 C29.2299794,34.2175104 29.1241509,34.6716187 29.1251218,35.274261 C29.12674,36.3519502 29.486298,37.1944062 30.2970024,38.0185408 C30.8539774,38.5851947 31.3633781,38.8822627 32.0659886,39.0494451 C32.8553332,39.2375664 34.4631494,39.11357 35.5628595,38.7798592 C37.1192178,38.3074296 38.2179569,37.1623438 38.6681325,35.5448283 C38.7558375,35.2287847 38.800499,34.9035803 38.8008227,34.5754315 C38.8030881,31.0227211 38.8140917,9.48333052 38.7674883,9.32007399 C38.6208819,8.80871138 38.2432004,8.51687817 37.7292688,8.51785714 L37.7292688,8.51785714 Z" id="Path"></path>
                    <path d="M26.5,0 C11.8641846,0 0,11.8641846 0,26.5 C0,41.1358154 11.8641846,53 26.5,53 C41.1358154,53 53,41.1358154 53,26.5 C53,11.8641846 41.1358154,0 26.5,0 Z M26.5,50.7740906 C13.0940796,50.7740906 2.2259094,39.9059204 2.2259094,26.5 C2.2259094,13.0940796 13.0940796,2.2259094 26.5,2.2259094 C39.9059204,2.2259094 50.7740906,13.0940796 50.7740906,26.5 C50.7740906,39.9059204 39.9059204,50.7740906 26.5,50.7740906 Z" id="Shape"></path>
                </g>
            </g>
        </g>
    </g>
</svg>