<?xml version="1.0" encoding="UTF-8"?>
<svg width="53px" height="53px" viewBox="0 0 53 53" version="1.1" xmlns="http://www.w3.org/2000/svg" xmlns:xlink="http://www.w3.org/1999/xlink">
    <!-- Generator: Sketch 55 (78076) - https://sketchapp.com -->
    <title>soundcloud</title>
    <desc>Created with Sketch.</desc>
    <g id="Page-1" stroke="none" stroke-width="1" fill="none" fill-rule="evenodd">
        <g id="deviun.me" transform="translate(-499.000000, -2935.000000)" fill-rule="nonzero">
            <g id="links" transform="translate(393.000000, 2933.000000)">
                <g id="soundcloud" transform="translate(105.000000, 2.000000)">
                    <ellipse id="Oval" fill="#414141" cx="27.2870066" cy="26.3114513" rx="26.0632301" ry="26.3114513"></ellipse>
                    <path d="M8.98587827,32.2845045 C8.97333402,32.3698672 8.91293579,32.4308407 8.83441809,32.4308407 C8.7559004,32.4308407 8.69550216,32.3698672 8.68342253,32.2826283 L8.40791367,30.2010884 L8.68342253,28.0848407 C8.69503757,27.9966637 8.75543579,27.9356902 8.83441809,27.9356902 C8.91247119,27.9356902 8.97286943,27.9966637 8.98587827,28.0848407 L9.31388712,30.2034336 L8.98587827,32.2845045 Z M10.3894402,33.549 C10.3764314,33.6395222 10.3113871,33.7028407 10.231011,33.7028407 C10.1529579,33.7028407 10.0846615,33.6395222 10.0739756,33.549 L9.7032234,30.2006195 L10.0739756,26.7771947 C10.0851261,26.6890177 10.1529579,26.623354 10.231011,26.623354 C10.3113871,26.623354 10.3764314,26.6876106 10.3894402,26.7771947 L10.8112986,30.2006195 L10.3894402,33.549 Z M11.904042,34.1160531 C11.8933562,34.2248672 11.8125154,34.3022566 11.7154137,34.3022566 C11.6150597,34.3022566 11.5356128,34.2248672 11.5258562,34.1160531 L11.1741526,30.2034336 L11.5258562,26.1421328 C11.5346836,26.0319116 11.6150597,25.9531151 11.7154137,25.9531151 C11.8125154,25.9531151 11.8928915,26.0319116 11.904042,26.1421328 L12.3031349,30.2034336 L11.904042,34.1160531 Z M13.433511,34.2403452 C13.4223606,34.3651063 13.3257234,34.4593805 13.2109668,34.4593805 C13.0934225,34.4593805 12.99725,34.3651063 12.9874933,34.2403452 L12.6553031,30.2034336 L12.9874933,26.0305045 C12.99725,25.9048053 13.0934225,25.810531 13.2109668,25.810531 C13.3257234,25.810531 13.4223606,25.9048053 13.433511,26.0305045 L13.8103031,30.2034336 L13.433511,34.2403452 Z M14.9713429,34.272708 C14.9634446,34.4176371 14.8514756,34.5250442 14.7190641,34.5250442 C14.5824712,34.5250442 14.474219,34.4176371 14.4649269,34.272708 L14.1508562,30.2029646 L14.4649269,26.3316195 C14.4746836,26.1876283 14.5824712,26.0802212 14.7190641,26.0802212 C14.8537986,26.0802212 14.9634446,26.1876283 14.9713429,26.3297434 L15.3272278,30.2029646 L14.9713429,34.272708 Z M16.524042,34.2750531 L16.524042,34.272708 C16.51475,34.4331151 16.3888428,34.5597522 16.2373827,34.5597522 C16.0854579,34.5597522 15.9595508,34.432646 15.9507234,34.2750531 L15.6575597,30.2053098 L15.9507234,23.9067522 C15.9595508,23.7463452 16.0854579,23.619708 16.2373827,23.619708 C16.3893075,23.619708 16.5152145,23.7468141 16.524042,23.9044071 L16.8562323,30.2053098 L16.524042,34.2750531 Z M18.0651261,34.272708 L18.0651261,34.2703629 C18.0558341,34.4476548 17.9169182,34.5888318 17.7450155,34.5888318 C17.5763651,34.5888318 17.4369845,34.4476548 17.4286217,34.2703629 L17.151719,30.2268849 L17.4286217,22.4874778 C17.4369845,22.3101859 17.5763651,22.1699469 17.7450155,22.1699469 C17.9169182,22.1699469 18.0558341,22.3101859 18.0651261,22.4874778 L18.3768738,30.2268849 L18.0651261,34.272708 Z M19.6638207,34.2103275 L19.6638207,34.2079823 C19.6568517,34.4054424 19.5030686,34.5588141 19.3139756,34.5588141 C19.1248827,34.5588141 18.9710996,34.4054424 18.9641306,34.2103275 L18.7072058,30.208124 C18.7072058,30.208124 18.9641306,21.8238053 18.9641306,21.8214601 C18.9715641,21.6263452 19.1248827,21.4701593 19.3139756,21.4701593 C19.5030686,21.4701593 19.6573163,21.6263452 19.6638207,21.8214601 L19.9541969,30.208124 L19.6638207,34.2103275 Z M21.2532234,34.1835929 C21.2457897,34.3984071 21.0789978,34.5667876 20.8713207,34.5667876 C20.6631792,34.5667876 20.4963872,34.3984071 20.4889535,34.185469 L20.249219,30.2071859 L20.4889535,21.5405133 C20.4963872,21.3247611 20.6631792,21.1568495 20.8713207,21.1568495 C21.0789978,21.1568495 21.2462544,21.3247611 21.2532234,21.5405133 L21.5194403,30.2071859 L21.2532234,34.1835929 Z M22.8528473,34.1484159 L22.8528473,34.1460707 C22.8454137,34.3782389 22.6656128,34.5625664 22.4374934,34.5625664 C22.2126261,34.5625664 22.0291083,34.3782389 22.0249269,34.1484159 L21.8047058,30.208124 L22.022604,21.7628318 C22.0291083,21.5273805 22.2121614,21.3453982 22.4374934,21.3453982 C22.6656128,21.3453982 22.8454137,21.5273805 22.8528473,21.7628318 L23.1000155,30.208124 L22.8528473,34.1484159 Z M24.46548,34.1249646 L24.46548,34.1216814 C24.4617633,34.3744867 24.2638428,34.5691328 24.0194624,34.5691328 C23.7732234,34.5691328 23.5780907,34.3744867 23.5706571,34.1249646 L23.3718075,30.2076548 L23.5711217,22.0714513 C23.5785552,21.8191151 23.773688,21.6216548 24.0199269,21.6216548 C24.2643075,21.6216548 24.4622279,21.8191151 24.4659447,22.0714513 L24.6912765,30.21 L24.46548,34.1249646 Z M26.1106349,33.7117522 L26.0906571,34.0954159 C26.0883341,34.2290884 26.0325818,34.3500973 25.9475597,34.4373363 C25.8602145,34.5231682 25.7403473,34.5780442 25.613511,34.5780442 C25.4657676,34.5780442 25.3356792,34.5095664 25.2464756,34.4016902 C25.1805021,34.3233629 25.1396172,34.2220531 25.1349713,34.1155841 C25.1335775,34.1108937 25.1335775,34.1047965 25.1335775,34.0982301 C25.1335775,34.0982301 24.9500597,30.211876 24.9500597,30.2053098 L25.1312544,20.617 L25.1335775,20.5250707 C25.1349713,20.3571593 25.2232455,20.2075399 25.3551924,20.121708 C25.4290641,20.0719912 25.5164093,20.0429116 25.6139756,20.0429116 C25.7096837,20.0429116 25.800281,20.0729293 25.876011,20.1259293 C26.0047058,20.212699 26.0887986,20.3585664 26.0911217,20.5255399 L26.2927589,30.21 L26.1106349,33.7117522 Z M27.7093296,34.0452301 L27.7093296,34.0405399 C27.7060775,34.3238318 27.4760996,34.5545929 27.1982676,34.5545929 C26.9195066,34.5545929 26.6899934,34.3238318 26.6872058,34.0428849 L26.5817411,32.152708 L26.4781349,30.211876 L26.6872058,19.7028672 L26.6872058,19.6498672 C26.6876703,19.4903982 26.7620066,19.3478141 26.8767633,19.2516637 C26.964573,19.1789646 27.0774713,19.134876 27.1982676,19.134876 C27.2944403,19.134876 27.3836438,19.1616106 27.4598385,19.2066371 C27.6052589,19.2985664 27.7070066,19.4613186 27.7116527,19.6475222 L27.9379137,30.2114071 L27.7093296,34.0452301 Z M41.5233341,34.5649116 C41.5233341,34.5649116 28.6617633,34.5649116 28.6482897,34.5649116 C28.3704579,34.536301 28.1507013,34.3130442 28.1460552,34.025531 L28.1460552,19.1461328 C28.1507013,18.8722212 28.2440862,18.7310442 28.5934668,18.5954955 C29.4952589,18.2427876 30.5164535,18.0345399 31.5659889,18.0345399 C35.8472942,18.0345399 39.3555021,21.3500884 39.7276482,25.5736725 C40.2786659,25.3415045 40.8872942,25.2092389 41.5233341,25.2092389 C44.0870066,25.2092389 46.1656349,27.3086018 46.1656349,29.8985664 C46.1656349,32.4880619 44.0870066,34.5649116 41.5233341,34.5649116 Z" id="Shape" fill="#F1F2F2"></path>
                </g>
            </g>
        </g>
    </g>
</svg>