<?xml version="1.0" encoding="UTF-8"?>
<svg width="52px" height="53px" viewBox="0 0 52 53" version="1.1" xmlns="http://www.w3.org/2000/svg" xmlns:xlink="http://www.w3.org/1999/xlink">
    <!-- Generator: Sketch 55 (78076) - https://sketchapp.com -->
    <title>telegram</title>
    <desc>Created with Sketch.</desc>
    <g id="Page-1" stroke="none" stroke-width="1" fill="none" fill-rule="evenodd">
        <g id="deviun.me" transform="translate(-711.000000, -2935.000000)" fill-rule="nonzero">
            <g id="links" transform="translate(393.000000, 2933.000000)">
                <g id="telegram" transform="translate(317.000000, 2.000000)">
                    <path d="M26.9782728,0.38405797 C33.9729941,0.427287128 39.9399195,2.74725187 44.921874,7.48804937 C49.8895536,12.2288469 52.6017924,18.1080121 52.930116,25.0102675 C53.2727147,32.3880435 50.9316243,38.8435976 45.8640201,44.1896033 C40.8820656,49.4491507 34.729566,52.1581778 27.5064456,52.2302263 C20.7829484,52.302275 14.8873976,50.0255395 9.94826792,45.4288392 C4.12409187,39.996375 1.32620338,33.1949879 1.62597715,25.1975939 C1.86865115,18.4970745 4.42386564,12.733187 9.12032132,8.00679924 C14.0737259,3.00662681 20.126301,0.513745441 26.9782728,0.38405797 Z" id="Shape" fill="#000000"></path>
                    <path d="M19.8377541,28.3173523 C18.4524824,27.9041457 17.0530752,27.4771654 15.6678035,27.0639588 C14.9893031,26.8573554 14.3108027,26.650752 13.6323022,26.4441488 C13.3778645,26.3615074 13.1375623,26.2788661 12.9255309,26.127357 C12.529739,25.8381122 12.5014682,25.4799999 12.8407184,25.1218873 C13.0668852,24.8739635 13.3495937,24.7086807 13.6605731,24.5847187 C14.4804278,24.267927 15.3002825,23.9511352 16.1201371,23.6343435 C21.7743075,21.5132159 27.4284777,19.3783147 33.0967835,17.2571872 C34.8919826,16.5822831 36.6730461,15.9073788 38.4682452,15.2324747 C38.7085475,15.1360597 38.9629851,15.0809655 39.2315582,15.1222862 C39.7687044,15.2049276 40.1786318,15.6319077 40.2351735,16.1828499 C40.2634443,16.4858682 40.2493089,16.7888863 40.1927672,17.0919046 C39.5001314,20.2598224 38.8074954,23.4415137 38.1148596,26.6094314 C37.5494426,29.2264069 36.9698901,31.8433825 36.4044731,34.4741315 C36.2772543,35.0663944 36.1500354,35.6586573 36.0228165,36.2509202 C35.9662749,36.5401648 35.8814624,36.8156359 35.7401081,37.0773336 C35.4573996,37.5869551 35.0050659,37.7797848 34.4255135,37.6695965 C34.0721279,37.6007286 33.7611485,37.4492194 33.47844,37.2426162 C31.5277512,35.8377135 29.5770624,34.4190372 27.6122382,33.0141346 C27.5274257,32.9452669 27.4284777,32.8901726 27.3436652,32.8350785 C27.004415,32.7386636 26.7641127,32.4907396 26.4955397,32.2979097 C25.5626016,31.6367791 24.6296634,30.9481013 23.6967254,30.2869707 C23.6260482,30.2318764 23.5553711,30.1767822 23.4988293,30.1079144 C23.4140168,29.9701789 23.4988293,29.8875376 23.5836419,29.8048963 C24.8558303,28.7030118 26.1138831,27.5735803 27.3860715,26.4716959 C28.3048742,25.6590561 29.2378122,24.8464164 30.1566149,24.0337766 C31.0754175,23.2211368 31.9942203,22.4222706 32.913023,21.6234043 C33.6339296,20.9898208 34.3548363,20.3700108 35.0616077,19.7364273 C35.1181493,19.681333 35.174691,19.6262387 35.2312328,19.5711446 C35.273639,19.5160504 35.3301807,19.4609561 35.3019099,19.3920884 C35.273639,19.309447 35.1888264,19.309447 35.1181493,19.309447 C34.8637116,19.2818999 34.6516803,19.3783147 34.4396489,19.5022767 C33.6622005,19.9568041 32.913023,20.4388785 32.1497099,20.9071794 C29.8315001,22.3258557 27.4991549,23.7583055 25.1809451,25.1769816 C23.5836419,26.1549041 21.9863388,27.1328265 20.3890358,28.1245225 C20.2052751,28.2209374 20.0780564,28.3999937 19.8377541,28.3173523 Z" id="Shape" fill="#FCFDFE"></path>
                    <path d="M19.1876282,29.6123594 C19.5748583,29.4597706 19.904721,29.2100799 20.2632675,29.0020042 C21.2958815,28.3777773 22.3284953,27.7535504 23.3611091,27.1154517 C24.092544,26.6715572 24.8096369,26.2137908 25.5410717,25.7698961 C26.745788,25.0346955 27.9648459,24.299495 29.183904,23.5642944 C30.0300737,23.0510412 30.8762433,22.5239162 31.7367549,21.9967914 C32.4825317,21.5390249 33.2283083,21.0812585 33.974085,20.6234922 C34.2178965,20.4847751 34.4617082,20.4015449 34.7628872,20.4292882 C34.8489384,20.44316 34.9349895,20.44316 34.9636733,20.5263903 C35.0066988,20.6096204 34.9780151,20.6928507 34.9063058,20.776081 C34.7342036,20.9425414 34.576443,21.1228736 34.3756571,21.2754625 C34.0171106,21.5528967 33.7015896,21.871946 33.3573851,22.1632518 C32.7980525,22.6210183 32.2817456,23.1203997 31.7224131,23.5781662 C31.4929433,23.77237 31.2778154,23.9804457 31.0483457,24.1746495 C30.7184829,24.438212 30.402962,24.7572614 30.0874412,25.0346955 C29.5998179,25.4647184 29.0978528,25.8808697 28.6102296,26.2970211 C28.3951017,26.4912249 28.165632,26.6854288 27.9648459,26.8796328 C27.4341972,27.3651426 26.8748646,27.8229089 26.3442159,28.3084188 C25.6988322,28.8771589 25.0391067,29.4320271 24.4080648,30.014639 C23.9491254,30.4307901 23.4615021,30.8191981 22.9882208,31.2214776 C22.9165115,31.2769644 22.9165115,31.3324513 22.959537,31.4018098 C22.8591441,32.9693128 22.7444091,34.536816 22.6440162,36.104319 C22.6153325,36.5204703 22.557965,36.9227498 22.5723069,37.3389011 C22.5723069,37.4637464 22.5723069,37.5747201 22.4719139,37.6718221 C22.3858628,37.6995655 22.2854697,37.6995655 22.1994185,37.6995655 C21.941265,37.6856938 21.7548209,37.5608485 21.6831116,37.3250294 C21.6114023,37.0753386 21.5253512,36.8395195 21.4536419,36.5898288 C20.7508908,34.3564838 20.0481396,32.109267 19.3453886,29.8759218 C19.2736793,29.7788199 19.2306537,29.6955896 19.1876282,29.6123594 Z" id="Shape" fill="#CCD9E9"></path>
                    <path d="M23.1463722,37.6904872 C23.1072393,37.1166959 23.1985496,36.5429047 23.2115939,35.9838261 C23.2376825,35.3658971 23.2898598,34.7479681 23.3159484,34.1300392 C23.3550815,33.4973975 23.3942144,32.8647559 23.4333474,32.2468269 C23.4463917,31.9231497 23.4724803,31.5994727 23.4724803,31.2905083 C23.4724803,31.18752 23.4985691,31.1139571 23.5898793,31.0551067 C24.6464696,31.9378624 25.70306,32.8059055 26.7466059,33.6886612 C26.8640049,33.7916494 26.9944481,33.8652124 27.0857583,33.9976258 C26.107434,35.0716452 25.1160653,36.1456647 24.137741,37.2196841 C23.8768545,37.5139361 23.5637907,37.7493375 23.1463722,37.6904872 Z" id="Shape" fill="#B1C8DB"></path>
                </g>
            </g>
        </g>
    </g>
</svg>