<?xml version="1.0" encoding="UTF-8"?>
<svg width="53px" height="53px" viewBox="0 0 53 53" version="1.1" xmlns="http://www.w3.org/2000/svg" xmlns:xlink="http://www.w3.org/1999/xlink">
    <!-- Generator: Sketch 55.2 (78181) - https://sketchapp.com -->
    <title>iconfinder_43-twitter_104461</title>
    <desc>Created with Sketch.</desc>
    <g id="Page-1" stroke="none" stroke-width="1" fill="none" fill-rule="evenodd">
        <g id="deviun.me" transform="translate(-328.000000, -2935.000000)" fill="#000000" fill-rule="nonzero">
            <g id="links" transform="translate(223.000000, 2933.000000)">
                <g id="iconfinder_43-twitter_104461" transform="translate(105.000000, 2.000000)">
                    <path d="M26.86888,0.16642 C12.45288,0.16642 0.76638,11.85504 0.76638,26.26892 C0.76638,40.68492 12.45288,52.3693 26.86888,52.3693 C41.28488,52.3693 52.96926,40.68492 52.96926,26.26892 C52.96926,11.85504 41.28382,0.16642 26.86888,0.16642 Z M40.01712,21.00602 C40.0309,21.28798 40.0362,21.571 40.0362,21.8572 C40.0362,30.55026 33.41968,40.57256 21.32084,40.57256 C17.6066,40.57256 14.14782,39.48394 11.23706,37.61834 C11.75222,37.67876 12.2748,37.7095 12.80586,37.7095 C15.88834,37.7095 18.7249,36.65798 20.97528,34.89414 C18.09738,34.84008 15.66892,32.93738 14.83152,30.32448 C15.2322,30.40292 15.64454,30.44214 16.06854,30.44214 C16.6685,30.44214 17.24938,30.3637 17.80164,30.21212 C14.79124,29.60792 12.5239,26.94732 12.5239,23.76308 C12.5239,23.73446 12.5239,23.7069 12.52496,23.67828 C13.41112,24.17118 14.42554,24.46692 15.50462,24.5019 C13.73866,23.32 12.57796,21.30918 12.57796,19.02594 C12.57796,17.82072 12.90232,16.6897 13.46836,15.71874 C16.71302,19.69798 21.5604,22.31724 27.02788,22.59072 C26.91552,22.11054 26.85722,21.60704 26.85722,21.09188 C26.85722,17.46032 29.8019,14.51458 33.43558,14.51458 C35.32768,14.51458 37.0364,15.31382 38.23632,16.59112 C39.73516,16.2975 41.14284,15.74842 42.41378,14.99476 C41.92088,16.53176 40.8789,17.82072 39.51998,18.63374 C40.8524,18.47474 42.12016,18.1207 43.29888,17.59812 C42.41908,18.91994 41.3029,20.07852 40.01712,21.00602 Z" id="Shape"></path>
                </g>
            </g>
        </g>
    </g>
</svg>