<?xml version="1.0" encoding="UTF-8"?>
<svg width="53px" height="53px" viewBox="0 0 53 53" version="1.1" xmlns="http://www.w3.org/2000/svg" xmlns:xlink="http://www.w3.org/1999/xlink">
    <!-- Generator: Sketch 55 (78076) - https://sketchapp.com -->
    <title>vk</title>
    <desc>Created with Sketch.</desc>
    <g id="Page-1" stroke="none" stroke-width="1" fill="none" fill-rule="evenodd">
        <g id="deviun.me" transform="translate(-393.000000, -2935.000000)" fill-rule="nonzero">
            <g id="links" transform="translate(393.000000, 2933.000000)">
                <g id="vk" transform="translate(0.000000, 2.000000)">
                    <path d="M18.5314685,0.333566433 L34.6538462,0.333566433 C49.3678322,0.333566433 52.8517482,3.81748252 52.8517482,18.5314685 L52.8517482,34.6538462 C52.8517482,49.3678322 49.3678322,52.8517482 34.6538462,52.8517482 L18.5314685,52.8517482 C3.81748252,52.8517482 0.333566433,49.3678322 0.333566433,34.6538462 L0.333566433,18.5314685 C0.333566433,3.81748252 3.81748252,0.333566433 18.5314685,0.333566433" id="Shape" fill="#000000"></path>
                    <path d="M43.3265734,18.4202798 C43.586014,17.6048951 43.3265734,17.0118881 42.1776224,17.0118881 L38.3601398,17.0118881 C37.3965035,17.0118881 36.9517482,17.5307693 36.6923076,18.0867132 C36.6923076,18.0867132 34.727972,22.8307693 31.9853147,25.906993 C31.0958041,26.7965035 30.6881119,27.093007 30.2062936,27.093007 C29.9468532,27.093007 29.6132868,26.7965035 29.6132868,25.9811189 L29.6132868,18.3832167 C29.6132868,17.4195804 29.3167833,16.9748252 28.5013986,16.9748252 L22.4972029,16.9748252 C21.9041959,16.9748252 21.5335664,17.4195804 21.5335664,17.8643357 C21.5335664,18.7909091 22.9048951,19.0132868 23.0531468,21.6076924 L23.0531468,27.2412588 C23.0531468,28.4643357 22.8307693,28.6867132 22.3489511,28.6867132 C21.0517482,28.6867132 17.9013986,23.9055944 16.0111889,18.4573427 C15.6405594,17.3825175 15.2699301,16.9748252 14.3062937,16.9748252 L10.4517482,16.9748252 C9.33986014,16.9748252 9.15454546,17.4937064 9.15454546,18.0496503 C9.15454546,19.0503497 10.4517482,24.0909091 15.1958041,30.7622377 C18.3461538,35.320979 22.8307693,37.7671328 26.8706293,37.7671328 C29.3167833,37.7671328 29.6132868,37.2111889 29.6132868,36.2846154 L29.6132868,32.8377623 C29.6132868,31.7258742 29.8356643,31.5405594 30.613986,31.5405594 C31.1699301,31.5405594 32.1706293,31.8370629 34.4314685,34.0237763 C37.0258742,36.6181818 37.4706293,37.8041959 38.9160839,37.8041959 L42.7335664,37.8041959 C43.8454546,37.8041959 44.3643357,37.2482518 44.0678322,36.1734266 C43.7342658,35.0986014 42.4741258,33.5419581 40.8433567,31.6888111 C39.9538462,30.6510489 38.6195804,29.5020979 38.2118881,28.9461538 C37.6559441,28.2048951 37.8041959,27.9083916 38.2118881,27.2412588 C38.1748252,27.2412588 42.8447553,20.6440559 43.3265734,18.4202798" id="Shape" fill="#FFFFFF"></path>
                </g>
            </g>
        </g>
    </g>
</svg>