<?xml version="1.0" encoding="UTF-8"?>
<svg width="55px" height="55px" viewBox="0 0 55 55" version="1.1" xmlns="http://www.w3.org/2000/svg" xmlns:xlink="http://www.w3.org/1999/xlink">
    <!-- Generator: Sketch 55 (78076) - https://sketchapp.com -->
    <title>youtube</title>
    <desc>Created with Sketch.</desc>
    <g id="Page-1" stroke="none" stroke-width="1" fill="none" fill-rule="evenodd">
        <g id="deviun.me" transform="translate(-1022.000000, -2932.000000)" fill-rule="nonzero">
            <g id="links" transform="translate(393.000000, 2933.000000)">
                <g id="youtube" transform="translate(629.000000, 0.000000)">
                    <ellipse id="Oval" stroke="#000000" stroke-width="1.5" fill="#595959" cx="27.4700108" cy="26.4961984" rx="26.2462343" ry="26.4961984"></ellipse>
                    <path d="M46.0279854,7.75767932 C56.2777797,18.1059852 56.2786658,34.8830569 46.0279854,45.2313628 C35.7781911,55.5787742 19.1585075,55.5792215 8.90782713,45.2313628 L46.0279854,7.75767932 Z" id="Shape" fill="#000000"></path>
                    <path d="M53.1885867,31.8029071 L40.1984918,18.6895443 L24.8780171,20.4505084 L15.6108809,34.9340443 L32.9272418,52.4148755 C43.1082543,50.2406456 51.1122891,42.1106245 53.1885867,31.8029071 Z" id="Shape" fill="#FFFFFF"></path>
                    <path d="M41.2047417,21.3831519 C41.2047417,19.16196 39.4222892,17.3616372 37.2232701,17.3616372 L18.5434601,17.3616372 C16.3448841,17.3616372 14.5627638,19.1624071 14.5627638,21.3831519 L14.5627638,32.1669747 C14.5627638,34.3881667 16.3452164,36.1884895 18.5434601,36.1884895 L37.2229379,36.1884895 C39.4223999,36.1884895 41.2044095,34.3877194 41.2044095,32.1669747 L41.2044095,21.3831519 L41.2047417,21.3831519 Z M25.2187133,31.3243418 L25.2187133,21.1957511 L32.8273367,26.2602701 L25.2187133,31.3243418 Z" id="Shape" fill="#000000"></path>
                </g>
            </g>
        </g>
    </g>
</svg>