<?xml version="1.0" encoding="UTF-8"?>
<svg width="86px" height="102px" viewBox="0 0 86 102" version="1.1" xmlns="http://www.w3.org/2000/svg" xmlns:xlink="http://www.w3.org/1999/xlink">
    <!-- Generator: Sketch 55.1 (78136) - https://sketchapp.com -->
    <title>apple-black</title>
    <desc>Created with Sketch.</desc>
    <g id="Page-1" stroke="none" stroke-width="1" fill="none" fill-rule="evenodd">
        <g id="deviun.me/music" transform="translate(-682.000000, -203.000000)" fill="#FFFFFF" fill-rule="nonzero">
            <g id="Cover">
                <g id="apple-black" transform="translate(682.000000, 203.000000)">
                    <path d="M84.1975671,79.4889679 C82.6535248,83.0525639 80.825883,86.3328352 78.7083394,89.3486699 C75.8219258,93.4600272 73.4585959,96.3058671 71.6372563,97.8861897 C68.8138649,100.480185 65.7888026,101.808664 62.549465,101.884217 C60.2239484,101.884217 57.4194636,101.223126 54.1549172,99.8820553 C50.879657,98.5472808 47.8697201,97.8861897 45.1175436,97.8861897 C42.23113,97.8861897 39.1354829,98.5472808 35.8243002,99.8820553 C32.5080756,101.223126 29.8365675,101.921994 27.7940202,101.991251 C24.6876594,102.123469 21.5913821,100.757214 18.5007768,97.8861897 C16.5281841,96.1673527 14.0608677,93.2207751 11.1051297,89.0464569 C7.93385608,84.5888138 5.32663051,79.4197108 3.28408325,73.5265556 C1.09658508,67.1611924 0,60.9973046 0,55.0298553 C0,48.194173 1.47849919,42.2984994 4.43990913,37.357945 C6.76731643,33.3895094 9.86359373,30.2590855 13.7388246,27.9610068 C17.6140554,25.6629281 21.8012458,24.4918524 26.3104793,24.4169287 C28.7777957,24.4169287 32.0133519,25.1793871 36.0341639,26.6778604 C40.0436318,28.1813705 42.6180859,28.9438289 43.7468123,28.9438289 C44.5906786,28.9438289 47.4506229,28.0523003 52.2989154,26.2749096 C56.8837755,24.626589 60.7533343,23.9440911 63.9233475,24.2129349 C72.513264,24.9055065 78.9667302,28.2884043 83.2585373,34.3830349 C75.5761395,39.0333388 71.775905,45.5466605 71.8515316,53.9022227 C71.9208559,60.4105075 74.2841858,65.8264179 78.9289169,70.1266583 C81.0338561,72.1225239 83.3845816,73.6650699 86,74.7605923 C85.4328008,76.403876 84.8340906,77.9779025 84.1975671,79.4889679 L84.1975671,79.4889679 Z M64.4968489,2.04056796 C64.4968489,7.141736 62.6313938,11.9046772 58.9130881,16.3132107 C54.4259124,21.5540893 48.9984464,24.5825163 43.1128096,24.1046418 C43.0378133,23.4926603 42.994328,22.8485687 42.994328,22.1717373 C42.994328,17.274626 45.1282574,12.0337474 48.9177781,7.74861766 C50.8097025,5.57897953 53.2158874,3.77495628 56.1338121,2.33585533 C59.0454346,0.9182241 61.7995017,0.13423298 64.3897113,0 C64.4653378,0.681931242 64.4968489,1.36392544 64.4968489,2.040505 L64.4968489,2.04056796 Z" id="Shape"></path>
                </g>
            </g>
        </g>
    </g>
</svg>