<?xml version="1.0" encoding="UTF-8"?>
<svg width="576px" height="406px" viewBox="0 0 576 406" version="1.1" xmlns="http://www.w3.org/2000/svg" xmlns:xlink="http://www.w3.org/1999/xlink">
    <!-- Generator: Sketch 55.2 (78181) - https://sketchapp.com -->
    <title>Right Cloud</title>
    <desc>Created with Sketch.</desc>
    <defs>
        <linearGradient x1="50%" y1="100%" x2="50%" y2="-0.000403442169%" id="linearGradient-1">
            <stop stop-color="#000000" offset="0%"></stop>
            <stop stop-color="#0B90C9" offset="100%"></stop>
        </linearGradient>
        <linearGradient x1="50%" y1="100%" x2="50%" y2="0%" id="linearGradient-2">
            <stop stop-color="#000000" offset="0%"></stop>
            <stop stop-color="#0A92CC" offset="100%"></stop>
        </linearGradient>
        <linearGradient x1="11.3724203%" y1="89.736158%" x2="87.2844282%" y2="16.5288428%" id="linearGradient-3">
            <stop stop-color="#000000" offset="0%"></stop>
            <stop stop-color="#0B97D3" offset="100%"></stop>
        </linearGradient>
    </defs>
    <g id="Page-1" stroke="none" stroke-width="1" fill="none" fill-rule="evenodd">
        <g id="deviun.me/code" transform="translate(-864.000000, 0.000000)">
            <g id="Right-Cloud" transform="translate(864.000000, -43.000000)">
                <path d="M330.321353,415.8125 C390.594791,468.441406 581.67197,439.702689 599.383853,436.225806 C643.969329,427.473576 657.05023,261.193733 652,248.318005 C647.897262,237.857939 619.703516,180.736804 619.703516,153.612903 C619.703516,134.903226 616.014083,77.7420875 599.383853,45 C584.640994,15.9738226 546.074437,22.9917677 510.383853,15.9738226 C456.605289,5.39918432 402.114307,-17.6201542 306.190305,27.8501119 C202.416111,77.0415562 7.86772426,-27.2421701 7.86772426,45 C7.86772426,138.863437 73.225064,260 170.79124,260 C282.361913,260 270.047916,363.183594 330.321353,415.8125 Z" id="Oval" fill="#CDECFF"></path>
                <g id="server" transform="translate(151.383853, 184.000000)" fill="url(#linearGradient-1)" fill-rule="nonzero">
                    <path d="M121.354839,21.3917585 L106.262129,21.3917585 C103.967032,14.1887343 100.017677,7.57809228 94.5588387,2.07494745 C91.8145161,-0.691649151 87.0241935,-0.691649151 84.279871,2.07494745 C78.8210323,7.57809228 74.8716774,14.1887343 72.5765806,21.3917585 L10.6451613,21.3917585 C4.77541935,21.3917585 0,26.2059371 0,32.1233202 L0,100.805315 C0,106.722698 4.77541935,111.536877 10.6451613,111.536877 L44.7096774,111.536877 L44.7096774,120.122126 L42.5806452,120.122126 C36.7109032,120.122126 31.9354839,124.936305 31.9354839,130.853688 L31.9354839,133 L100.064516,133 L100.064516,130.853688 C100.064516,124.936305 95.2890968,120.122126 89.4193548,120.122126 L87.2903226,120.122126 L87.2903226,111.536877 L121.354839,111.536877 C127.224581,111.536877 132,106.722698 132,100.805315 L132,32.1233202 C132,26.2059371 127.224581,21.3917585 121.354839,21.3917585 Z M73.7560645,58.2954528 L75.8872258,67.6662525 L68.1290323,71.5768335 L68.1290323,68.0955149 C68.1290323,64.9576063 69.4852258,61.98711 71.8484516,59.945967 L73.7560645,58.2954528 Z M105.082645,58.2954528 L106.992387,59.945967 C109.353484,61.98711 110.709677,64.9576063 110.709677,68.0955149 L110.709677,71.5768335 L102.951484,67.6662525 L105.082645,58.2954528 Z M98.3676774,68.6106299 L80.4710323,68.6106299 L77.5414839,55.7327559 L101.312129,55.7327559 L98.3676774,68.6106299 Z M95.0676774,72.9032546 C93.9584516,76.0797968 92.0401935,78.891466 89.4193548,80.9841205 C86.7985161,78.891466 84.8823871,76.0797968 83.7710323,72.9032546 L95.0676774,72.9032546 Z M72.5638065,53.672296 L69.0785806,56.6857186 C65.7700645,59.5446066 63.8709677,63.7020136 63.8709677,68.0955149 L63.8709677,78.5223003 L76.8665806,71.971755 L77.0773548,72.9032546 L79.2702581,72.9032546 C80.6796774,78.0286484 83.8370323,82.4629297 88.2377419,85.4205481 L89.4193548,86.2146837 L90.6009677,85.4205481 C95.0016774,82.4629297 98.1590323,78.0286484 99.5705806,72.9032546 L101.761355,72.9032546 L101.972129,71.971755 L114.967742,78.5223003 L114.967742,68.0955149 C114.967742,63.7020136 113.068645,59.5467529 109.764387,56.6900112 L106.277032,53.6744423 C107.778,48.9310921 108.580645,44.0203295 108.580645,39.0237143 L108.580645,36.2013136 C108.580645,35.5531273 108.512516,34.9156725 108.486968,34.2717788 L119.225806,34.2717788 L119.225806,90.0758996 L90.483871,90.0758996 L84.0967742,98.6611489 L12.7741935,98.6611489 L12.7741935,34.2696325 L70.3517419,34.2696325 C70.3261935,34.9135262 70.2580645,35.550981 70.2580645,36.1991673 L70.2580645,39.021568 C70.2580645,44.0203295 71.0607097,48.9310921 72.5638065,53.672296 L72.5638065,53.672296 Z M87.2903226,5.1098331 C88.4293548,3.96584862 90.4093548,3.96584862 91.5483871,5.1098331 C93.1983871,6.77322516 94.6567742,8.5718349 96.0023226,10.4369803 C94.1287742,11.9372526 91.8230323,12.8065091 89.4193548,12.8065091 C87.0178065,12.8065091 84.7120645,11.9372526 82.8385161,10.4369803 C84.1840645,8.5718349 85.6403226,6.77322516 87.2903226,5.1098331 Z M74.516129,36.1991673 C74.516129,28.2857137 76.6196129,20.7156701 80.4838065,14.0621019 C83.0492903,16.0088071 86.1832258,17.0991338 89.4193548,17.0991338 C92.6554839,17.0991338 95.7894194,16.0088071 98.3549032,14.0621019 C102.219097,20.7156701 104.322581,28.28786 104.322581,36.1991673 L104.322581,39.021568 C104.322581,43.247657 103.692387,47.4072103 102.512903,51.4379849 L76.3258065,51.4379849 C75.1463226,47.4093566 74.516129,43.2498033 74.516129,39.0237143 L74.516129,36.1991673 Z M95.4423871,128.707375 L36.5576129,128.707375 C37.4369032,126.209068 39.8043871,124.414751 42.5806452,124.414751 L89.4193548,124.414751 C92.1956129,124.414751 94.5630968,126.209068 95.4423871,128.707375 Z M83.0322581,120.122126 L48.9677419,120.122126 L48.9677419,111.536877 L83.0322581,111.536877 L83.0322581,120.122126 Z M127.741935,100.805315 C127.741935,104.355316 124.876258,107.244252 121.354839,107.244252 L10.6451613,107.244252 C7.12374194,107.244252 4.25806452,104.355316 4.25806452,100.805315 L4.25806452,32.1233202 C4.25806452,28.5733196 7.12374194,25.6843832 10.6451613,25.6843832 L71.4311613,25.6843832 C71.1203226,27.098803 70.881871,28.5303933 70.6987742,29.9770078 L12.7741935,29.9770078 C10.425871,29.9770078 8.51612903,31.90225 8.51612903,34.2696325 L8.51612903,98.6590026 C8.51612903,101.026385 10.425871,102.951627 12.7741935,102.951627 L84.0967742,102.951627 C85.4316774,102.951627 86.7069677,102.307734 87.5032258,101.232431 L92.6129032,94.3663779 L119.225806,94.3663779 C121.574129,94.3663779 123.483871,92.4411358 123.483871,90.0737533 L123.483871,34.2696325 C123.483871,31.90225 121.574129,29.9770078 119.225806,29.9770078 L108.139935,29.9770078 C107.956839,28.5303933 107.718387,27.098803 107.407548,25.6843832 L121.354839,25.6843832 C124.876258,25.6843832 127.741935,28.5733196 127.741935,32.1233202 L127.741935,100.805315 Z M119.225806,98.6590026 L123.483871,98.6590026 L123.483871,102.951627 L119.225806,102.951627 L119.225806,98.6590026 Z M102.193548,98.6590026 L114.967742,98.6590026 L114.967742,102.951627 L102.193548,102.951627 L102.193548,98.6590026 Z M93.6774194,98.6590026 L97.9354839,98.6590026 L97.9354839,102.951627 L93.6774194,102.951627 L93.6774194,98.6590026 Z M89.4193548,42.8548819 C95.2890968,42.8548819 100.064516,38.0407033 100.064516,32.1233202 C100.064516,26.2059371 95.2890968,21.3917585 89.4193548,21.3917585 C83.5496129,21.3917585 78.7741935,26.2059371 78.7741935,32.1233202 C78.7741935,38.0407033 83.5496129,42.8548819 89.4193548,42.8548819 Z M89.4193548,25.6843832 C92.9407742,25.6843832 95.8064516,28.5733196 95.8064516,32.1233202 C95.8064516,35.6733208 92.9407742,38.5622572 89.4193548,38.5622572 C85.8979355,38.5622572 83.0322581,35.6733208 83.0322581,32.1233202 C83.0322581,28.5733196 85.8979355,25.6843832 89.4193548,25.6843832 Z M87.2903226,32.1233202 C87.2903226,30.9385558 88.244129,29.9770078 89.4193548,29.9770078 C90.5945806,29.9770078 91.5483871,30.9385558 91.5483871,32.1233202 C91.5483871,33.3080846 90.5945806,34.2696325 89.4193548,34.2696325 C88.244129,34.2696325 87.2903226,33.3080846 87.2903226,32.1233202 Z M87.2903226,64.3180052 L83.0322581,64.3180052 L83.0322581,60.0253805 L87.2903226,60.0253805 L87.2903226,64.3180052 Z M95.8064516,64.3180052 L91.5483871,64.3180052 L91.5483871,60.0253805 L95.8064516,60.0253805 L95.8064516,64.3180052 Z M21.2903226,42.8548819 L17.0322581,42.8548819 L17.0322581,38.5622572 L21.2903226,38.5622572 L21.2903226,42.8548819 Z M25.5483871,38.5622572 L59.6129032,38.5622572 L59.6129032,42.8548819 L25.5483871,42.8548819 L25.5483871,38.5622572 Z M17.0322581,47.1475065 L59.6129032,47.1475065 L59.6129032,51.4401312 L17.0322581,51.4401312 L17.0322581,47.1475065 Z M17.0322581,55.7327559 L59.6129032,55.7327559 L59.6129032,60.0253805 L17.0322581,60.0253805 L17.0322581,55.7327559 Z M17.0322581,64.3180052 L59.6129032,64.3180052 L59.6129032,68.6106299 L17.0322581,68.6106299 L17.0322581,64.3180052 Z M17.0322581,72.9032546 L59.6129032,72.9032546 L59.6129032,77.1958792 L17.0322581,77.1958792 L17.0322581,72.9032546 Z M25.5483871,85.7811286 L17.0322581,85.7811286 L17.0322581,81.4885039 L25.5483871,81.4885039 L25.5483871,85.7811286 Z M34.0645161,81.4885039 L34.0645161,85.7811286 L29.8064516,85.7811286 L29.8064516,81.4885039 L34.0645161,81.4885039 Z M38.3225806,81.4885039 L59.6129032,81.4885039 L59.6129032,85.7811286 L38.3225806,85.7811286 L38.3225806,81.4885039 Z M17.0322581,90.0737533 L46.8387097,90.0737533 L46.8387097,94.3663779 L17.0322581,94.3663779 L17.0322581,90.0737533 Z M51.0967742,90.0737533 L59.6129032,90.0737533 L59.6129032,94.3663779 L51.0967742,94.3663779 L51.0967742,90.0737533 Z" id="Shape"></path>
                </g>
                <g id="server-(1)" transform="translate(0.383853, 90.000000)" fill="url(#linearGradient-2)" fill-rule="nonzero">
                    <path d="M52.3870968,37.4193548 L11.2258065,37.4193548 C9.16212903,37.4193548 7.48387097,39.0976129 7.48387097,41.1612903 L7.48387097,97.2903226 C7.48387097,99.354 9.16212903,101.032258 11.2258065,101.032258 L52.3870968,101.032258 C54.4507742,101.032258 56.1290323,99.354 56.1290323,97.2903226 L56.1290323,41.1612903 C56.1290323,39.0976129 54.4507742,37.4193548 52.3870968,37.4193548 Z M52.3870968,41.1612903 L52.3870968,52.3870968 L11.2258065,52.3870968 L11.2258065,41.1612903 L52.3870968,41.1612903 Z M11.2258065,67.3548387 L11.2258065,56.1290323 L52.3889677,56.1290323 L52.3889677,67.3548387 L11.2258065,67.3548387 Z M52.3889677,71.0967742 L52.3889677,82.3225806 L11.2258065,82.3225806 L11.2258065,71.0967742 L52.3889677,71.0967742 Z M11.2258065,97.2903226 L11.2258065,86.0645161 L52.3908387,86.0645161 L52.3908387,97.2903226 L11.2258065,97.2903226 Z M7.48387097,104.774194 L11.2258065,104.774194 L11.2258065,108.516129 L7.48387097,108.516129 L7.48387097,104.774194 Z M14.9677419,104.774194 L18.7096774,104.774194 L18.7096774,108.516129 L14.9677419,108.516129 L14.9677419,104.774194 Z M22.4516129,104.774194 L26.1935484,104.774194 L26.1935484,108.516129 L22.4516129,108.516129 L22.4516129,104.774194 Z M18.7096774,48.6451613 L14.9677419,48.6451613 L14.9677419,44.9032258 L18.7096774,44.9032258 L18.7096774,48.6451613 Z M26.1935484,48.6451613 L22.4516129,48.6451613 L22.4516129,44.9032258 L26.1935484,44.9032258 L26.1935484,48.6451613 Z M33.6774194,48.6451613 L29.9354839,48.6451613 L29.9354839,44.9032258 L33.6774194,44.9032258 L33.6774194,48.6451613 Z M29.9354839,59.8709677 L33.6774194,59.8709677 L33.6774194,63.6129032 L29.9354839,63.6129032 L29.9354839,59.8709677 Z M37.4193548,59.8709677 L41.1612903,59.8709677 L41.1612903,63.6129032 L37.4193548,63.6129032 L37.4193548,59.8709677 Z M48.6451613,59.8709677 L48.6451613,63.6129032 L44.9032258,63.6129032 L44.9032258,59.8709677 L48.6451613,59.8709677 Z M14.9677419,78.5806452 L14.9677419,74.8387097 L18.7096774,74.8387097 L18.7096774,78.5806452 L14.9677419,78.5806452 Z M26.1935484,78.5806452 L22.4516129,78.5806452 L22.4516129,74.8387097 L26.1935484,74.8387097 L26.1935484,78.5806452 Z M33.6774194,78.5806452 L29.9354839,78.5806452 L29.9354839,74.8387097 L33.6774194,74.8387097 L33.6774194,78.5806452 Z M29.9354839,89.8064516 L33.6774194,89.8064516 L33.6774194,93.5483871 L29.9354839,93.5483871 L29.9354839,89.8064516 Z M37.4193548,89.8064516 L41.1612903,89.8064516 L41.1612903,93.5483871 L37.4193548,93.5483871 L37.4193548,89.8064516 Z M48.6451613,89.8064516 L48.6451613,93.5483871 L44.9032258,93.5483871 L44.9032258,89.8064516 L48.6451613,89.8064516 Z M89.8064516,104.774194 L93.5483871,104.774194 L93.5483871,108.516129 L89.8064516,108.516129 L89.8064516,104.774194 Z M97.2903226,104.774194 L108.516129,104.774194 L108.516129,108.516129 L97.2903226,108.516129 L97.2903226,104.774194 Z M89.8064516,71.0967742 L93.5483871,71.0967742 L93.5483871,74.8387097 L89.8064516,74.8387097 L89.8064516,71.0967742 Z M97.2903226,71.0967742 L108.516129,71.0967742 L108.516129,74.8387097 L97.2903226,74.8387097 L97.2903226,71.0967742 Z M93.5483871,41.1612903 L89.8064516,41.1612903 L89.8064516,37.4193548 L93.5483871,37.4193548 L93.5483871,41.1612903 Z M108.516129,41.1612903 L97.2903226,41.1612903 L97.2903226,37.4193548 L108.516129,37.4193548 L108.516129,41.1612903 Z M101.030387,22.6069032 C101.032258,22.5545161 101.032258,22.502129 101.032258,22.4516129 C101.032258,14.1987742 94.3173548,7.48387097 86.0645161,7.48387097 C83.4769677,7.48387097 81.0409677,8.14432258 78.9155484,9.30432258 C75.1287097,3.53612903 68.7356129,0 61.7419355,0 C50.3945161,0 41.1612903,9.23322581 41.1612903,20.5806452 C41.1612903,21.2523226 41.2080645,21.922129 41.2735484,22.5900645 C36.9141935,23.1831613 33.1367097,25.9503226 31.2376774,29.9354839 L9.35483871,29.9354839 C4.19658065,29.9354839 0,34.1320645 0,39.2903226 L0,106.645161 C0,111.803419 4.19658065,116 9.35483871,116 L54.2580645,116 C59.4163226,116 63.6129032,111.803419 63.6129032,106.645161 L63.6129032,74.8387097 L71.0967742,74.8387097 L71.0967742,99.1612903 C71.0967742,104.319548 75.2933548,108.516129 80.4516129,108.516129 L82.3225806,108.516129 L82.3225806,116 L116,116 L116,97.2903226 L82.3225806,97.2903226 L82.3225806,104.774194 L80.4516129,104.774194 C77.3570323,104.774194 74.8387097,102.255871 74.8387097,99.1612903 L74.8387097,74.8387097 L82.3225806,74.8387097 L82.3225806,82.3225806 L116,82.3225806 L116,63.6129032 L82.3225806,63.6129032 L82.3225806,71.0967742 L74.8387097,71.0967742 L74.8387097,41.1612903 L82.3225806,41.1612903 L82.3225806,48.6451613 L116,48.6451613 L116,29.9354839 L110.970839,29.9354839 C109.101742,26.0101935 105.397226,23.2542581 101.030387,22.6069032 Z M86.0645161,101.032258 L112.258065,101.032258 L112.258065,112.258065 L86.0645161,112.258065 L86.0645161,101.032258 Z M86.0645161,67.3548387 L112.258065,67.3548387 L112.258065,78.5806452 L86.0645161,78.5806452 L86.0645161,67.3548387 Z M59.8709677,106.645161 C59.8709677,109.739742 57.3526452,112.258065 54.2580645,112.258065 L9.35483871,112.258065 C6.26025806,112.258065 3.74193548,109.739742 3.74193548,106.645161 L3.74193548,39.2903226 C3.74193548,36.1957419 6.26025806,33.6774194 9.35483871,33.6774194 L54.2580645,33.6774194 C57.3526452,33.6774194 59.8709677,36.1957419 59.8709677,39.2903226 L59.8709677,106.645161 Z M71.0967742,71.0967742 L63.6129032,71.0967742 L63.6129032,41.1612903 L71.0967742,41.1612903 L71.0967742,71.0967742 Z M63.4239355,37.4193548 C62.5539355,33.1554194 58.7764516,29.9354839 54.2580645,29.9354839 L35.554,29.9354839 C37.292129,27.6267097 40.0424516,26.1935484 43.0322581,26.1935484 C44.6768387,26.1935484 46.2933548,26.6257419 47.7078065,27.4433548 L49.5825161,24.2065806 C48.1792903,23.3945806 46.632,22.8688387 45.0341935,22.621871 C44.951871,21.9445806 44.9032258,21.2635484 44.9032258,20.5806452 C44.9032258,11.2950323 52.4563226,3.74193548 61.7419355,3.74193548 C67.5250968,3.74193548 72.8030968,6.69806452 75.8883226,11.5083226 C72.9490323,14.2418065 71.0967742,18.1296774 71.0967742,22.4516129 L74.8387097,22.4516129 C74.8387097,16.2605806 79.8734839,11.2258065 86.0645161,11.2258065 C92.2555484,11.2258065 97.2903226,16.2605806 97.2903226,22.4516129 C97.2903226,22.9249677 97.2491613,23.4376129 97.1593548,24.0662581 L97.0059355,26.1935484 L99.1612903,26.1935484 C102.151097,26.1935484 104.90329,27.6267097 106.641419,29.9354839 L82.3225806,29.9354839 L82.3225806,37.4193548 L63.4239355,37.4193548 Z M112.258065,44.9032258 L86.0645161,44.9032258 L86.0645161,33.6774194 L112.258065,33.6774194 L112.258065,44.9032258 Z" id="Shape"></path>
                </g>
                <g id="folder" transform="translate(458.383853, 254.000000)" fill="#373737" fill-rule="nonzero">
                    <path d="M87.9112258,15.5494194 L90.0732258,12.0592903 L81.9422258,3.92829032 L78.4505806,6.08877419 C76.8495484,5.20032258 75.1575484,4.49835484 73.3988387,3.995 L72.4588387,0 L60.9605161,0 L60.0205161,3.99348387 C58.2618065,4.49835484 56.5698065,5.19880645 54.9687742,6.08725806 L51.477129,3.92677419 L43.346129,12.0592903 L45.508129,15.5494194 C44.6196774,17.1519677 43.9177097,18.8439677 43.4143548,20.6011613 L39.4193548,21.5411613 L39.4193548,33.0394839 L43.4143548,33.9794839 C43.9177097,35.7366774 44.6196774,37.4286774 45.508129,39.0312258 L43.3900968,42.4516129 L27.918,42.4516129 L27.106871,41.6389677 C25.6756452,40.2077419 23.7713871,39.4193548 21.7458387,39.4193548 L7.58064516,39.4193548 C3.40067742,39.4193548 0,42.8200323 0,47 L0,86.4193548 C0,90.5993226 3.40067742,94 7.58064516,94 L65.1935484,94 C69.3735161,94 72.7741935,90.5993226 72.7741935,86.4193548 L72.7741935,78.8387097 L75.8064516,78.8387097 L75.8064516,84.9032258 L91.979,72.7741935 L75.8064516,60.6451613 L75.8064516,66.7096774 L72.7741935,66.7096774 L72.7741935,50.747871 C74.7557742,50.2369355 76.6615484,49.4849355 78.4505806,48.491871 L81.9422258,50.6523548 L90.0732258,42.5213548 L87.9112258,39.0312258 C88.7996774,37.4286774 89.5016452,35.7366774 90.005,33.9794839 L94,33.0394839 L94,21.5411613 L90.005,20.6011613 C89.5016452,18.8439677 88.7996774,17.1504516 87.9112258,15.5494194 Z M7.56818182,43 L21.7950227,43 C23.01625,43 24.1643864,43.468 25.02625,44.317 L26.7332273,46 L65.4318182,46 C67.9504091,46 70,48.019 70,50.5 L70,52 L3,52 L3,47.5 C3,45.019 5.04959091,43 7.56818182,43 Z M67,42 C58.729,42 52,35.271 52,27 C52,18.729 58.729,12 67,12 C75.271,12 82,18.729 82,27 C82,35.271 75.271,42 67,42 Z M43.9881987,67 L43.9881987,70 L78.9040717,70 L78.9040717,67 L87,73 L78.9040717,79 L78.9040717,76 L53.0966873,76 L53.0966873,79 L69.7955831,79 L69.7955831,86.5 C69.7955831,88.981 67.7522455,91 65.2413388,91 L7.5542443,91 C5.04333761,91 3,88.981 3,86.5 L3,55 L69.7955831,55 L69.7955831,67 L43.9881987,67 Z M91,30.8031897 L87.5194687,31.6201222 L87.2959063,32.5286732 C86.7814063,34.628266 85.946875,36.6347133 84.819875,38.4899898 L84.3329375,39.2901256 L86.2148438,42.3227011 L81.43275,47.0914489 L78.3916875,45.2147947 L77.5908438,45.7003733 C75.9064687,46.7203936 74.0934687,47.4838819 72.22075,48 C71.8869375,46.9769257 71.3555937,46.0515779 70.6512187,45.2682389 C78.78675,43.3824228 84.875,36.1109603 84.875,27.4316254 C84.875,17.3276213 76.6322813,9.10790635 66.5,9.10790635 C56.3677188,9.10790635 48.125,17.3276213 48.125,27.4316254 C48.125,33.8006447 51.4049375,39.4168646 56.3646563,42.7013912 L47.163375,42.7013912 L46.7851562,42.3227011 L48.6670625,39.2901256 L48.180125,38.4899898 C47.053125,36.6347133 46.2185938,34.629793 45.7040937,32.5286732 L45.4805312,31.6201222 L42,30.8031897 L42,24.0600611 L45.4805312,23.2431286 L45.7040937,22.3345775 C46.2185937,20.2349847 47.053125,18.2285375 48.180125,16.3732609 L48.6670625,15.5731252 L46.7851562,12.5405497 L51.56725,7.77180183 L54.6083125,9.64845606 L55.4091562,9.1628775 C57.2680937,8.03749576 59.278625,7.2068205 61.3871562,6.69070241 L62.29825,6.46776383 L63.119,3 L69.881,3 L70.7002187,6.4692908 L71.6113125,6.69222939 C73.7198437,7.2068205 75.730375,8.03902273 77.5893125,9.16440448 L78.3901562,9.64998303 L81.4312187,7.77332881 L86.2133125,12.5420767 L84.3314062,15.5746522 L84.8183437,16.3747879 C85.9453437,18.2300645 86.779875,20.2349847 87.294375,22.3361045 L87.5179375,23.2446556 L91,24.0600611 L91,30.8031897 Z M67,18 C62.0365,18 58,22.0365 58,27 C58,31.9635 62.0365,36 67,36 C71.9635,36 76,31.9635 76,27 C76,22.0365 71.9635,18 67,18 Z M67,33 C63.691,33 61,30.309 61,27 C61,23.691 63.691,21 67,21 C70.309,21 73,23.691 73,27 C73,30.309 70.309,33 67,33 Z M9,85 L15,85 L15,88 L9,88 C7.3455,88 6,86.6545 6,85 L6,70 L9,70 L9,85 Z M18,85 L21,85 L21,88 L18,88 L18,85 Z M9,49 L6,49 L6,46 L9,46 L9,49 Z M15,49 L12,49 L12,46 L15,46 L15,49 Z M21,49 L18,49 L18,46 L21,46 L21,49 Z M50,79 L47,79 L47,76 L50,76 L50,79 Z M41,76 L44,76 L44,79 L41,79 L41,76 Z M67,58 L67,61 L64,61 L64,58 L67,58 Z M58,58 L61,58 L61,61 L58,61 L58,58 Z M52,58 L55,58 L55,61 L52,61 L52,58 Z" id="Shape"></path>
                </g>
                <g id="atom" transform="translate(217.383853, 63.000000)" fill="#373737" fill-rule="nonzero">
                    <path d="M35,27 C30.5897143,27 27,30.5885714 27,35 C27,39.4114286 30.5897143,43 35,43 C39.4102857,43 43,39.4114286 43,35 C43,30.5885714 39.4102857,27 35,27 Z M35.5,41 C32.4673,41 30,38.5327 30,35.5 C30,32.4673 32.4673,30 35.5,30 C38.5327,30 41,32.4673 41,35.5 C41,38.5327 38.5327,41 35.5,41 Z M48.7340385,27.4780769 L42.7711923,21.3084615 L40.3887308,22.7865385 L39.7172692,20 L31.2827308,20 L30.6101538,22.7876923 L28.2276923,21.3096154 L22.2648462,27.4792308 L23.6936538,29.9415385 L21,30.6373077 L21,39.3626923 L23.6936538,40.0584615 L22.2659615,42.5219231 L28.2288077,48.6915385 L30.6112692,47.2134615 L31.2827308,50 L39.7172692,50 L40.3898462,47.2123077 L42.7723077,48.6903846 L48.7351538,42.5207692 L47.3074615,40.0573077 L50,39.3626923 L50,30.6373077 L47.3052308,29.9415385 L48.7340385,27.4780769 Z M48,32.9784091 L48,38.0215909 L45.7852273,38.575 L45.1784091,38.8045455 L44.65,40.1022727 L46.1227273,42.5568182 L42.5556818,46.1227273 L40.1022727,44.65 L38.7159091,45.2215909 L38.0215909,48 L32.9784091,48 L32.2840909,45.2204545 L30.8977273,44.6488636 L28.4443182,46.1215909 L24.8772727,42.5556818 L26.35,40.1011364 L25.7863636,38.7170455 L23,38.0215909 L23,32.9784091 L25.2147727,32.425 L25.8227273,32.1943182 L26.35,30.8965909 L24.8772727,28.4443182 L28.4443182,24.8784091 L30.8977273,26.3511364 L32.2840909,25.7795455 L32.9784091,23 L38.0215909,23 L38.7159091,25.7795455 L40.1022727,26.3511364 L42.5556818,24.8784091 L46.1227273,28.4443182 L44.65,30.8965909 L45.2136364,32.2829545 L48,32.9784091 Z M6.29109499,11.8533487 L4.02887697,12 C3.83053621,8.82909931 4.69190179,7.24249423 5.45013018,6.46997691 C6.4078327,5.49422633 7.91862259,5 9.94056495,5 C12.1676483,5 14.9546193,5.60969977 18,6.76212471 L17.2100371,8.92725173 C14.4139991,7.86836028 11.9001716,7.30946882 9.94056495,7.30946882 C8.58164741,7.30946882 7.55594235,7.59122402 7.05272351,8.1039261 C6.83284861,8.3256351 6.12788888,9.25866051 6.29109499,11.8533487 Z M19.2488434,9.07406095 L19,8.96137491 L19.7663582,7 L20.0320555,7.12119064 C20.6794448,7.41885188 21.3367482,7.74202693 22,8.08752658 L21.1325182,10 C20.4990086,9.66938342 19.870456,9.36002835 19.2488434,9.07406095 Z M4.54747351e-13,25.1931734 C4.54747351e-13,28.3504089 2.53266611,30.9190267 5.64571134,30.9190267 C6.16398764,30.9190267 6.65629367,30.8251227 7.1327917,30.6922829 C8.09482092,32.282925 9.13589009,33.8827284 10.2593866,35.4871125 C7.14408313,39.9303747 4.62045016,44.3633303 2.83866366,48.5787035 C-0.919121806,57.4709538 -0.94622122,64.4393173 2.76301113,68.1989126 C4.59786731,70.0598149 7.22538137,70.9851128 10.4671488,70.9851128 C14.3999513,70.9851128 19.2451008,69.6063273 24.6649837,66.9105956 C25.4903867,67.9962173 26.7730923,68.7096587 28.2285567,68.7096587 C30.7194445,68.7096587 32.7451258,66.6552225 32.7451258,64.128976 C32.7451258,63.5140194 32.6209201,62.927692 32.4029956,62.3917521 C33.2645312,61.8168764 34.1271959,61.2190973 34.9909897,60.5961245 C39.3720617,63.7545052 43.7429714,66.3151068 47.8993441,68.1210409 C52.3131612,70.040347 56.2459638,71 59.5374135,71 C62.7836975,71 65.4033076,70.0666859 67.2449386,68.1989126 C70.8706144,64.5217695 70.9123927,57.7824402 67.4018894,49.1707568 C68.3029449,48.3324918 68.8776783,47.1403692 68.8776783,45.8062453 C68.8776783,43.2799989 66.8519971,41.2255627 64.3611092,41.2255627 C64.0584991,41.2255627 63.7626638,41.2587726 63.4769908,41.3160312 C62.7904723,40.1410861 62.0486259,38.9489634 61.2582263,37.745389 C61.7776317,37.1418841 62.1028247,36.3620229 62.1028247,35.4997094 C62.1028247,34.6373958 61.7776317,33.8586798 61.2593554,33.2551748 C70.1502216,19.7135317 72.4638342,8.09348497 67.2449386,2.80050616 C63.3110069,-1.19041361 55.6497767,-0.846862415 46.1503028,3.69373928 C45.3282872,2.83142576 44.1810786,2.28976004 42.9074062,2.28976004 C40.4165183,2.28976004 38.3908371,4.34419621 38.3908371,6.8704427 C38.3908371,7.25980073 38.4540691,7.6319812 38.5444004,7.99385513 C37.3700925,8.75424845 36.191268,9.5524324 35.0124434,10.402149 C30.6325006,7.24491351 26.26272,4.68545707 22.1074765,2.87952293 C13.3385576,-0.933895385 6.46885605,-0.95908914 2.76188199,2.80050616 C-0.688776783,6.30129288 -0.885247538,12.6455384 2.17021144,20.7155561 C0.859277266,21.7645324 4.54747351e-13,23.3712068 4.54747351e-13,25.1931734 Z M2,25.5 C2,23.5703333 3.57033333,22 5.5,22 C7.42966667,22 9,23.5703333 9,25.5 C9,27.4296667 7.42966667,29 5.5,29 C3.57033333,29 2,27.4296667 2,25.5 Z M28.5,67 C27.12125,67 26,65.87875 26,64.5 C26,63.12125 27.12125,62 28.5,62 C29.87875,62 31,63.12125 31,64.5 C31,65.87875 29.87875,67 28.5,67 Z M30.9529631,60.9417522 C30.175521,60.319002 29.2025818,59.9314878 28.1307574,59.9314878 C25.623393,59.9314878 23.5843124,61.9701991 23.5843124,64.4771094 C23.5843124,64.7055269 23.6195474,64.9259895 23.6513725,65.1453158 C14.7039687,69.5568415 7.42965673,70.2330027 4.1027956,66.9090169 C1.11578124,63.9225436 1.31923465,57.7382254 4.66087173,49.9413479 C6.30782143,46.0991613 8.61741548,42.0615129 11.4532606,38 C11.902222,38.5988856 12.3727791,39.1966349 12.8433361,39.7943841 C12.4523418,40.3478136 12.2181999,41.0205656 12.2181999,41.7490014 C12.2181999,43.6286159 13.7480787,45.1582176 15.6280337,45.1582176 C16.1440552,45.1582176 16.6282516,45.0343494 17.0669835,44.82866 C18.5082066,46.4446285 19.9858012,48.0276412 21.4872647,49.5288328 C25.2130763,53.2551061 29.0991502,56.6313665 33,59.5576104 C32.31576,60.0337643 31.6337933,60.4951449 30.9529631,60.9417522 L30.9529631,60.9417522 Z M60,35 C60,35.551 59.552,36 59,36 C58.448,36 58,35.551 58,35 C58,34.449 58.448,34 59,34 C59.552,34 60,34.449 60,35 Z M56,37.1304516 C53.2843542,40.7165192 50.2582513,44.2273709 46.974003,47.5692759 C43.1859727,51.4238068 39.1511689,54.9589591 35.1015815,58 C31.0940707,54.9890455 27.087697,51.4770366 23.2484925,47.5692759 C21.7507934,46.0452839 20.2747012,44.4356614 18.8372739,42.792481 C19.0556173,42.3342419 19.1898075,41.8262446 19.1898075,41.2835322 C19.1898075,39.3695742 17.6591294,37.8120243 15.7781921,37.8120243 C15.4552259,37.8120243 15.1493177,37.8721971 14.8536443,37.9578276 C14.2156723,37.1339231 13.5970327,36.3100185 13,35.4849568 C15.9590077,31.4082493 19.4092881,27.332699 23.2484925,23.4272526 C27.0422088,19.5657786 31.0724638,16.0410409 35.1254628,13 C39.1318365,16.0109545 43.1359357,19.5218062 46.974003,23.4272526 C50.2571141,26.7691576 53.283217,30.2788521 56,33.8660769 C55.7407172,34.3544024 55.5803713,34.9040578 55.5803713,35.4976857 C55.5803713,36.0913135 55.7407172,36.6409689 56,37.1304516 L56,37.1304516 Z M16,40 C16.552,40 17,40.449 17,41 C17,41.551 16.552,42 16,42 C15.448,42 15,41.551 15,41 C15,40.449 15.448,40 16,40 Z M67,45.5 C67,46.87875 65.87875,48 64.5,48 C63.12125,48 62,46.87875 62,45.5 C62,44.12125 63.12125,43 64.5,43 C65.87875,43 67,44.12125 67,45.5 Z M64.6081844,50.7060449 C64.9694024,50.7060449 65.3169895,50.652274 65.6543534,50.5721896 C68.6849494,58.0612211 68.7905886,63.9748789 65.9031167,66.8830851 C62.9179569,69.8908248 56.7386307,69.6848935 48.9417751,66.3202065 C45.1001425,64.6613162 41.0619982,62.3354377 37,59.4798583 C40.9393204,56.5052965 44.8513792,53.0925588 48.5305772,49.3857971 C51.8315188,46.0611522 54.8757456,42.5683302 57.6166857,39 C58.0210681,39.1704653 58.4640713,39.2654224 58.9286567,39.2654224 C59.1263042,39.2654224 59.3182723,39.239109 59.5068326,39.2070753 C60.2803843,40.3728747 61.0039561,41.5260894 61.6764122,42.6632873 C60.6983975,43.503029 60.0645622,44.7363281 60.0645622,46.1297959 C60.0645622,48.6535972 62.1023768,50.7060449 64.6081844,50.7060449 L64.6081844,50.7060449 Z M42.5,4 C43.87875,4 45,5.12125 45,6.5 C45,7.87875 43.87875,9 42.5,9 C41.12125,9 40,7.87875 40,6.5 C40,5.12125 41.12125,4 42.5,4 Z M39.7031511,9.71302262 C40.5311331,10.5956752 41.6975768,11.1547647 42.9969066,11.1547647 C45.5024323,11.1547647 47.5400176,9.10362648 47.5400176,6.58143533 C47.5400176,6.17326569 47.4695994,5.78567602 47.369651,5.40837635 C55.9322795,1.36898318 62.6469976,0.888783593 65.8714707,4.13470412 C70.260116,8.55254029 67.7341462,19.3604609 59.4770419,31.7930568 C59.287367,31.7610435 59.0954206,31.7347469 58.8977952,31.7347469 C58.4332621,31.7347469 57.9903088,31.8296435 57.5871077,32 C54.8453402,28.4328031 51.8014558,24.9433528 48.5008856,21.620829 C44.7789419,17.8729856 40.8968535,14.4772885 37,11.5332077 C37.9018075,10.8998016 38.8036151,10.2938355 39.7031511,9.71302262 L39.7031511,9.71302262 Z M4.1173036,4.10173976 C7.10148945,1.11598779 13.2764499,1.31943264 21.0666619,4.66092894 C24.9055803,6.30894583 28.9408716,8.61957916 33,11.4564413 C29.0623276,14.4103695 25.1598434,17.7973284 21.4775692,21.4843399 C17.7544313,25.2122678 14.3809051,29.098178 11.4580148,33 C10.5578781,31.7077274 9.72471253,30.4200012 8.93468083,29.1379577 C10.2355089,28.0968656 11.0868362,26.5124963 11.0868362,24.7189993 C11.0868362,21.5854941 8.54080008,19.0361824 5.41132105,19.0361824 C4.90392999,19.0361824 4.42151121,19.1248344 3.95271366,19.2498564 C1.2999779,12.2361238 1.34538202,6.87836408 4.1173036,4.10173976 Z M19.0862534,62 L20,64.1196154 C19.238737,64.4473077 18.5040431,64.7403846 17.7982287,65 L17,62.8342308 C17.6700039,62.5884615 18.3654216,62.3103846 19.0862534,62 L19.0862534,62 Z M11.8255971,64.0576369 L12,65.975024 C11.6322668,65.9923151 11.2807571,66 10.944119,66 C10.2505633,66 9.59621451,65.9654179 9,65.8972142 L9.42992339,64 C10.1167192,64.0787704 10.9197837,64.0999039 11.8255971,64.0576369 L11.8255971,64.0576369 Z M15.3021523,63 L16,65.3801653 C15.1345199,65.6330579 14.2864238,65.8413223 13.4805464,66 L13,63.5665289 C13.7338576,63.4227273 14.5086921,63.2318182 15.3021523,63 Z M62.7827446,7.12327167 C62.3092379,6.65822785 61.2944105,6.3707887 60,6.33573515 L60.0654344,4 C62.0189473,4.05258033 63.5394037,4.56202532 64.4650024,5.47108082 C66.3114409,7.28451801 66.4982263,11.0235638 64.9920464,16 L62.710172,15.3339825 C64.1342615,10.6286271 63.6809799,8.00778968 62.7827446,7.12327167 Z M61.8326344,17 L64,17.7122222 C63.7415173,18.4555556 63.4452917,19.2255556 63.1181853,20 L61,19.1577778 C61.3099504,18.4255556 61.5890202,17.7 61.8326344,17 L61.8326344,17 Z M61.9495096,23 L60,22.0585554 C60.366146,21.3537868 60.7017799,20.6669004 61.0058118,20 L63,20.8499299 C62.680712,21.5473352 62.3309117,22.2647265 61.9495096,23 Z M46.0597403,60 C46.7109462,60.3518931 47.3576994,60.6859688 48,61.0011136 L47.0170686,63 C46.3502783,62.6726058 45.6779221,62.325167 45,61.9587973 L46.0597403,60 Z M50.203227,62.1209677 C50.8140607,62.3824885 51.4145217,62.6221198 52,62.8410138 L51.1943911,65 C50.5754898,64.7695853 49.9416058,64.516129 49.2985017,64.2407834 L49,64.1117512 L49.9231656,62 L50.203227,62.1209677 Z M42.1659389,58 C42.779476,58.3874136 43.389738,58.7595489 44,59.116406 L42.8951965,61 C42.2663755,60.6311386 41.6342795,60.2459076 41,59.8453983 L42.1659389,58 Z" id="Shape"></path>
                </g>
                <g id="paper-plane" transform="translate(368.383853, 98.000000)" fill="#373737" fill-rule="nonzero">
                    <path d="M131.548641,3.45257426 L131.458797,3.3819826 C130.881229,2.12630658 129.871554,1.11663182 128.615878,0.539063639 L128.545287,0.4492197 L128.506782,0.47916768 C127.803005,0.175409597 127.026496,0 126.209344,0 C125.548349,0 124.902329,0.111235354 124.281978,0.32942778 L48.9392776,26.9210949 L60.7494774,38.7312947 L60.5847635,39.3922894 L56.0176965,36.6541883 L44.5818465,48.0900384 L47.3199475,52.6592445 L42.1560601,53.9470076 L42.1560601,70.1231951 L47.3220866,71.4130974 L44.5839856,75.9823035 L48.7895377,80.1878555 L46.4557344,82.5216588 L49.4804803,85.5464048 L51.8142836,83.2126015 L56.0198357,87.4181535 L60.5890418,84.6800525 L61.8768049,89.8439399 L78.0529924,89.8439399 L79.3428946,84.6779134 L83.9121007,87.4160144 L95.3479508,75.9801643 L92.6098498,71.4130974 L93.2708445,71.2483835 L105.081044,83.0585833 L131.670572,7.71802227 C131.888765,7.09981039 132,6.45165054 132,5.79065584 C132,4.97350382 131.82459,4.19699548 131.518693,3.49107881 L131.548641,3.45257426 Z M80.5964315,62.6768438 C80.256308,68.2706986 75.64218,72.7308085 69.9648986,72.7308085 C64.0672857,72.7308085 59.2691915,67.9327143 59.2691915,62.0351014 C59.2691915,56.35782 63.7293014,51.743692 69.3231562,51.4035685 L67.4428509,64.55501 L80.5964315,62.6768438 Z M83.7816131,57.900141 L72.4869464,59.5130536 L74.099859,48.2183869 L117.665613,14.3343867 L83.7816131,57.900141 Z M121.691477,5.78209928 L72.2815888,44.2139141 L56.7642569,28.6965822 L121.691477,5.78209928 Z M89.9615927,75.3170305 L83.2468278,82.0317954 L78.6284214,79.2594681 L76.020808,80.3204823 L74.7116535,85.5656571 L65.2181438,85.5656571 L64.1785211,81.3964704 L63.7464145,80.2541689 L61.3013759,79.2594681 L56.6829695,82.0317954 L49.9682046,75.3170305 L52.7405319,70.6986241 L51.6795177,68.0910107 L46.4343429,66.7818562 L46.4343429,57.2883465 L50.6035296,56.2487238 L51.7458311,55.8166172 L52.7405319,53.3715786 L49.9682046,48.7531722 L56.6829695,42.0384073 L61.3013759,44.8107346 L63.9089893,43.7497205 L64.2811999,42.260878 L69.1220769,47.1017551 C61.258593,47.5445573 54.9909086,54.0646604 54.9909086,62.0351014 C54.9909086,70.2900481 61.7099519,77.0090914 69.9648986,77.0090914 C77.9353396,77.0090914 84.4554427,70.741407 84.8961058,62.8779231 L89.7369828,67.7188001 L89.3262677,67.8214789 L88.1839662,68.2535855 L87.1892654,70.6986241 L89.9615927,75.3170305 Z M103.303418,75.2357431 L87.7860859,59.7184112 L126.217901,10.3085225 L103.303418,75.2357431 Z M19.5560309,100.216637 L16.5312849,97.1918907 L19.5560309,94.1671447 L22.5807769,97.1918907 L19.5560309,100.216637 Z M31.6550148,106.266129 L34.6797608,109.290875 L31.6550148,112.315621 L28.6302689,109.290875 L31.6550148,106.266129 Z M37.6895328,91.0931985 L39.8286742,94.7981915 C38.5879722,95.5148038 37.1718606,95.8934319 35.7364967,95.8934319 C35.2380767,95.8934319 34.7375176,95.8485099 34.2455151,95.758666 L35.0134669,91.5509748 C35.9354368,91.7199669 36.891633,91.5552531 37.6895328,91.0931985 Z M37.7066459,112.31776 L40.7313919,115.342506 L37.7066459,118.367252 L34.6818999,115.342506 L37.7066459,112.31776 Z M37.3408527,125.499149 L39.0906704,129.400943 C38.0275171,129.877972 36.9001896,130.119695 35.7364967,130.119695 C34.95571,130.119695 34.1792017,130.008459 33.4326414,129.790267 L34.6348388,125.683115 C35.5268608,125.948369 36.4937527,125.879916 37.3408527,125.499149 L37.3408527,125.499149 Z M46.4557344,88.5690116 L43.4309884,91.5937576 L40.4062424,88.5690116 L43.4309884,85.5442656 L46.4557344,88.5690116 Z M0,128.975254 L3.02474598,125.950508 L6.04949195,128.975254 L3.02474598,132 L0,128.975254 Z M39.2724974,123.606009 C39.5163596,123.090476 39.6468472,122.508629 39.6489863,121.928922 C39.6489863,121.588799 39.6040644,121.242258 39.5120813,120.904273 L43.6427634,119.79192 C43.8310078,120.493558 43.9272692,121.214449 43.9272692,121.9332 C43.9251301,123.143954 43.6513199,124.354709 43.1422043,125.437114 L39.2724974,123.606009 Z M23.4428509,80.9408333 L26.469736,83.9677184 L23.44499,86.9924644 L20.4181049,83.9655793 L23.4428509,80.9408333 Z M6.82386115,76.9641694 C6.3874763,77.608051 6.15644903,78.3631679 6.15644903,79.1482328 C6.15858817,79.2851378 6.16714473,79.4434343 6.18425786,79.5995916 L1.93164471,80.0680636 C1.89741845,79.7685838 1.88244446,79.4712431 1.88030531,79.1674851 C1.88030531,77.5075113 2.36589042,75.9202684 3.28144295,74.5661918 L6.82386115,76.9641694 Z M13.5022607,88.1133745 L16.5291458,91.1402596 L13.5043998,94.1650056 L10.4775147,91.1381205 L13.5022607,88.1133745 Z M9.07423793,119.901016 L12.0989839,122.925762 L9.07423793,125.950508 L6.04949195,122.925762 L9.07423793,119.901016 Z M7.45276873,82.0638825 L10.4775147,85.0886285 L7.45276873,88.1133745 L4.42802275,85.0886285 L7.45276873,82.0638825 Z M17.3933589,74.8913413 L20.4181049,77.9160873 L17.3933589,80.9408333 L14.368613,77.9160873 L17.3933589,74.8913413 Z M21.3914143,119.165151 C21.085517,118.861393 20.7346978,118.608975 20.3496524,118.42073 L22.2427926,114.580971 C23.0449706,114.978852 23.776557,115.500802 24.4161602,116.136127 L26.0397686,117.761875 L23.0150226,120.786621 L21.3914143,119.165151 Z M12.8348486,116.140405 C13.8766104,115.098644 15.1793476,114.356362 16.5997375,113.994847 L17.6564733,118.140503 C16.9805046,118.313773 16.3601536,118.666731 15.8595945,119.165151 L15.125869,119.898877 L12.101123,116.874131 L12.8348486,116.140405 Z M13.5322087,71.7275512 L11.722495,75.6036754 C10.8839516,75.2143517 9.91064223,75.1330643 9.0207594,75.3790656 L7.88059701,71.2548009 C9.74165006,70.7435461 11.7866693,70.9103991 13.5322087,71.7275512 L13.5322087,71.7275512 Z M25.6055229,106.266129 L22.5807769,103.241383 L25.6055229,100.216637 L28.6302689,103.241383 L25.6055229,106.266129 Z M29.494482,86.9924644 L32.519228,90.0172104 L29.494482,93.0419563 L26.469736,90.0172104 L29.494482,86.9924644 Z M29.0623754,126.836113 L26.0376294,123.811367 L29.0623754,120.786621 L32.0871214,123.811367 L29.0623754,126.836113 Z" id="Shape"></path>
                </g>
                <g id="api" transform="translate(276.383853, 317.000000)" fill="url(#linearGradient-3)" fill-rule="nonzero">
                    <path d="M55.7912903,29.8064516 L49.0230968,59.133871 L53.1725806,60.0919355 L55.2483871,51.0967742 L63.9795484,51.0967742 L66.0553548,60.0919355 L70.2048387,59.133871 L63.4345161,29.8064516 L55.7912903,29.8064516 Z M56.229871,46.8387097 L59.1764516,34.0645161 L60.0472258,34.0645161 L62.9938065,46.8387097 L56.229871,46.8387097 Z M83.0322581,29.8064516 L74.516129,29.8064516 L74.516129,59.6129032 L78.7741935,59.6129032 L78.7741935,46.8387097 L83.0322581,46.8387097 C87.7289032,46.8387097 91.5483871,43.0192258 91.5483871,38.3225806 C91.5483871,33.6259355 87.7289032,29.8064516 83.0322581,29.8064516 Z M83.0322581,42.5806452 L78.7741935,42.5806452 L78.7741935,34.0645161 L83.0322581,34.0645161 C85.3805806,34.0645161 87.2903226,35.9742581 87.2903226,38.3225806 C87.2903226,40.6709032 85.3805806,42.5806452 83.0322581,42.5806452 Z M93.6774194,29.8064516 L106.451613,29.8064516 L106.451613,34.0645161 L102.193548,34.0645161 L102.193548,55.3548387 L106.451613,55.3548387 L106.451613,59.6129032 L93.6774194,59.6129032 L93.6774194,55.3548387 L97.9354839,55.3548387 L97.9354839,34.0645161 L93.6774194,34.0645161 L93.6774194,29.8064516 Z M119.225806,38.4907742 C119.225806,38.4354194 119.225806,38.3800645 119.225806,38.3225806 C119.225806,25.41 108.719032,14.9032258 95.8064516,14.9032258 C94.3650968,14.9032258 92.9407742,15.0820645 91.5356129,15.3418065 C87.5862581,6.32322581 78.5868387,0 68.1290323,0 C54.0412258,0 42.5806452,11.4605806 42.5806452,25.5483871 C42.5806452,27.0110323 42.7190323,28.4630323 42.966,29.895871 C33.2150323,30.7794194 25.5483871,38.9910968 25.5483871,48.9677419 C25.5483871,52.9596774 26.8236774,56.8664516 29.1315484,60.1004516 L28.9271613,60.9648387 C26.4574839,61.6738065 24.0814839,62.6574194 21.8332258,63.9071613 L16.9321935,60.8732903 L5.51419355,72.2912903 L8.54806452,77.1923226 C7.30045161,79.4405806 6.31470968,81.8165806 5.60574194,84.2862581 L0,85.604129 L0,101.75071 L5.60787097,103.07071 C6.31683871,105.540387 7.30045161,107.916387 8.55019355,110.164645 L5.51632258,115.065677 L16.9343226,126.483677 L21.8353548,123.449806 C24.0836129,124.697419 26.4596129,125.683161 28.9292903,126.392129 L30.2492903,132 L46.395871,132 L47.715871,126.392129 C50.1855484,125.683161 52.5615484,124.699548 54.8098065,123.449806 L59.7108387,126.483677 L71.1288387,115.065677 L68.0949677,110.164645 C68.7613548,108.963871 69.3404516,107.720516 69.8556774,106.451613 L110.709677,106.451613 L110.709677,104.322581 C110.709677,98.4528387 105.934258,93.6774194 100.064516,93.6774194 L97.9354839,93.6774194 L97.9354839,85.1612903 L121.354839,85.1612903 C127.224581,85.1612903 132,80.385871 132,74.516129 L132,53.2258065 C132,45.7592903 126.479419,39.5574194 119.225806,38.4907742 Z M67.5499355,99.5173548 L67.2390968,100.784129 C66.5216129,103.713677 65.3612903,106.509097 63.7921935,109.095871 L63.1151613,110.211484 L65.7317419,114.439742 L59.0827742,121.08871 L54.8545161,118.472129 L53.7389032,119.149161 C51.1542581,120.718258 48.3567097,121.876452 45.4271613,122.596065 L44.1603871,122.906903 L43.0234839,127.741935 L33.6216774,127.741935 L32.4826452,122.904774 L31.215871,122.593935 C28.2863226,121.876452 25.4909032,120.716129 22.904129,119.147032 L21.7885161,118.47 L17.5602581,121.086581 L10.9112903,114.437613 L13.527871,110.209355 L12.8508387,109.093742 C11.2817419,106.509097 10.1235484,103.711548 9.40393548,100.782 L9.09309677,99.5152258 L4.25806452,98.3783226 L4.25806452,88.9765161 L9.09522581,87.8374839 L9.40606452,86.5707097 C10.1235484,83.6411613 11.283871,80.8457419 12.8529677,78.2589677 L13.53,77.1433548 L10.9134194,72.9150968 L17.5623871,66.266129 L21.7906452,68.8827097 L22.9062581,68.2056774 C25.4909032,66.6365806 28.2884516,65.4783871 31.218,64.7587742 L32.4847742,64.4479355 L33.6216774,59.6129032 L43.0234839,59.6129032 L44.1625161,64.4500645 L45.4292903,64.7609032 C48.3588387,65.4783871 51.1542581,66.6387097 53.7410323,68.2078065 L54.8566452,68.8848387 L59.0849032,66.2682581 L65.733871,72.9172258 L63.1172903,77.1454839 L63.7943226,78.2610968 C65.3612903,80.8436129 66.5216129,83.6411613 67.2412258,86.5728387 L67.5520645,87.8396129 L72.3870968,88.9765161 L72.3870968,98.3783226 L67.5499355,99.5173548 Z M106.087548,102.193548 L74.7630968,102.193548 L76.6451613,101.75071 L76.6451613,97.9354839 L100.064516,97.9354839 C102.840774,97.9354839 105.208258,99.7153548 106.087548,102.193548 Z M93.6774194,93.6774194 L76.6451613,93.6774194 L76.6451613,85.604129 L74.7630968,85.1612903 L93.6774194,85.1612903 L93.6774194,93.6774194 Z M127.741935,74.516129 C127.741935,78.0375484 124.876258,80.9032258 121.354839,80.9032258 L69.8556774,80.9032258 C69.3404516,79.6343226 68.7613548,78.3909677 68.0949677,77.1901935 L71.1288387,72.2891613 L66.9708387,68.1290323 L117.096774,68.1290323 C121.265419,68.1290323 125.033806,66.4045161 127.741935,63.6367742 L127.741935,74.516129 Z M117.096774,63.8709677 L62.7127742,63.8709677 L59.7129677,60.8711613 L54.8119355,63.9050323 C52.5636774,62.6574194 50.1876774,61.6716774 47.718,60.9627097 L46.395871,55.3548387 L31.2903871,55.3548387 C30.3429677,53.3748387 29.8064516,51.2266452 29.8064516,48.9677419 C29.8064516,40.7496774 36.4916129,34.0645161 44.7096774,34.0645161 C46.6428387,34.0645161 48.5249032,34.4285806 50.2983871,35.1460645 L51.8972903,31.1988387 C50.4346452,30.6069677 48.9123871,30.2237419 47.3603226,30.0087097 C47.0452258,28.5460645 46.8387097,27.06 46.8387097,25.5483871 C46.8387097,13.8089032 56.3895484,4.25806452 68.1290323,4.25806452 C79.8685161,4.25806452 89.4193548,13.8089032 89.4193548,25.5483871 L93.6774194,25.5483871 C93.6774194,23.4257419 93.387871,21.3754839 92.8981935,19.401871 C93.8583871,19.2549677 94.8270968,19.1612903 95.8064516,19.1612903 C106.37071,19.1612903 114.967742,27.7583226 114.967742,38.3225806 C114.967742,38.9719355 114.933677,39.6106452 114.869806,40.2429677 L114.742065,42.5806452 L117.096774,42.5806452 C122.966516,42.5806452 127.741935,47.3560645 127.741935,53.2258065 C127.741935,59.0955484 122.966516,63.8709677 117.096774,63.8709677 Z M119.225806,72.3870968 L123.483871,72.3870968 L123.483871,76.6451613 L119.225806,76.6451613 L119.225806,72.3870968 Z M110.709677,72.3870968 L114.967742,72.3870968 L114.967742,76.6451613 L110.709677,76.6451613 L110.709677,72.3870968 Z M102.193548,72.3870968 L106.451613,72.3870968 L106.451613,76.6451613 L102.193548,76.6451613 L102.193548,72.3870968 Z M38.3225806,68.1290323 C24.2347742,68.1290323 12.7741935,79.5896129 12.7741935,93.6774194 C12.7741935,107.765226 24.2347742,119.225806 38.3225806,119.225806 C52.4103871,119.225806 63.8709677,107.765226 63.8709677,93.6774194 C63.8709677,79.5896129 52.4103871,68.1290323 38.3225806,68.1290323 Z M38.3225806,114.967742 C26.5830968,114.967742 17.0322581,105.416903 17.0322581,93.6774194 C17.0322581,81.9379355 26.5830968,72.3870968 38.3225806,72.3870968 C50.0620645,72.3870968 59.6129032,81.9379355 59.6129032,93.6774194 C59.6129032,105.416903 50.0620645,114.967742 38.3225806,114.967742 Z M38.3225806,80.9032258 C31.2776129,80.9032258 25.5483871,86.6324516 25.5483871,93.6774194 C25.5483871,100.722387 31.2776129,106.451613 38.3225806,106.451613 C45.3675484,106.451613 51.0967742,100.722387 51.0967742,93.6774194 C51.0967742,86.6324516 45.3675484,80.9032258 38.3225806,80.9032258 Z M38.3225806,102.193548 C33.6259355,102.193548 29.8064516,98.3740645 29.8064516,93.6774194 C29.8064516,88.9807742 33.6259355,85.1612903 38.3225806,85.1612903 C43.0192258,85.1612903 46.8387097,88.9807742 46.8387097,93.6774194 C46.8387097,98.3740645 43.0192258,102.193548 38.3225806,102.193548 Z M57.6414194,18.2500645 L54.1476774,15.8144516 C54.7182581,14.9947742 55.3697419,14.2176774 56.0850968,13.5044516 C59.3020645,10.2874839 63.5792903,8.51612903 68.1290323,8.51612903 C72.6787742,8.51612903 76.956,10.2874839 80.1729677,13.5044516 L77.1625161,16.5149032 C74.7481935,14.1027097 71.541871,12.7741935 68.1290323,12.7741935 C64.7161935,12.7741935 61.509871,14.1027097 59.0955484,16.5149032 C58.5590323,17.0535484 58.0693548,17.6369032 57.6414194,18.2500645 L57.6414194,18.2500645 Z M55.3548387,25.5483871 L51.0967742,25.5483871 C51.0967742,23.8962581 51.3352258,22.2590323 51.8036129,20.6835484 L55.8849677,21.8970968 C55.5336774,23.0787097 55.3548387,24.3071613 55.3548387,25.5483871 L55.3548387,25.5483871 Z" id="Shape"></path>
                </g>
            </g>
        </g>
    </g>
</svg>