<?xml version="1.0" encoding="UTF-8"?>
<svg width="72px" height="72px" viewBox="0 0 72 72" version="1.1" xmlns="http://www.w3.org/2000/svg" xmlns:xlink="http://www.w3.org/1999/xlink">
    <!-- Generator: Sketch 55.1 (78136) - https://sketchapp.com -->
    <title>play-button</title>
    <desc>Created with Sketch.</desc>
    <g id="Symbols" stroke="none" stroke-width="1" fill="none" fill-rule="evenodd">
        <g id="Playlist-Item" transform="translate(-106.000000, -111.000000)" fill="#FFFFFF" fill-rule="nonzero">
            <g transform="translate(-13.000000, 17.000000)" id="play-button">
                <g transform="translate(119.000000, 94.000000)">
                    <path d="M66.9718857,17.9497143 C57.0619429,0.785142857 35.1126857,-5.09622857 17.9494857,4.81554286 C0.784914286,14.7241143 -5.09668571,36.6724571 4.81508571,53.8363429 C14.7236571,71.0009143 36.6722286,76.8832 53.8356571,66.9723429 C71.0004571,57.0603429 76.8848,35.1131429 66.9718857,17.9497143 Z M50.2477714,60.7545143 C36.5181714,68.6841143 18.9577143,63.9787429 11.0304,50.2464 C3.10125714,36.5168 7.80822857,18.9565714 21.5382857,11.0308571 C35.2688,3.10171429 52.8283429,7.80662857 60.7561143,21.5385143 C68.6841143,35.2701714 63.9785143,52.8267429 50.2477714,60.7545143 Z M48.8125714,34.4347429 L30.0208,23.4749714 C28.3083429,22.4752 26.9270857,23.2745143 26.936636,25.2553143 L27.0329143,47.0093714 C27.0416,48.9897143 28.4397714,49.7958857 30.1572571,48.8038857 L48.8052571,38.0374857 C50.5209143,37.0473143 50.5245714,35.4345143 48.8125714,34.4347429 Z" id="Shape"></path>
                </g>
            </g>
        </g>
    </g>
</svg>