<?xml version="1.0" encoding="UTF-8"?>
<svg width="256px" height="215px" viewBox="0 0 256 215" version="1.1" xmlns="http://www.w3.org/2000/svg" xmlns:xlink="http://www.w3.org/1999/xlink">
    <!-- Generator: Sketch 55.2 (78181) - https://sketchapp.com -->
    <title>docker-official</title>
    <desc>Created with Sketch.</desc>
    <g id="Page-1" stroke="none" stroke-width="1" fill="none" fill-rule="evenodd">
        <g id="deviun.me/code" transform="translate(-194.000000, -3788.000000)">
            <g id="Skills" transform="translate(159.000000, 3311.000000)">
                <g id="docker-official" transform="translate(35.000000, 477.000000)">
                    <path d="M38.617,173.984 L38.617,157.622 C38.617,155.472 39.961,153.745 42.187,153.745 L42.803,153.745 C45.028,153.745 46.366,155.475 46.366,157.622 L46.366,192.069 C46.366,200.469 42.216,207.153 34.984,211.411 C31.671152,213.37373 27.8896088,214.40506 24.039,214.396059 L22.502,214.396059 C14.1,214.396059 7.425,210.243 3.16,203.016 C1.19449884,199.703644 0.163290803,195.920589 0.175883929,192.069 L0.175883929,190.534 C0.175883929,182.131 4.328,175.451 11.554,171.184 C14.8662332,169.217232 18.6498724,168.185613 22.502,168.199 L24.039,168.199 C29.725,168.199 34.539,170.403 38.617,173.983 L38.617,173.984 Z M7.924,191.3 C7.924,197.368 10.864,201.93 16.182,204.84 C18.332,206.016 20.666,206.648 23.119,206.648 C29.075,206.648 33.493,203.848 36.539,198.791 C37.956,196.443 38.616,193.874 38.616,191.143 C38.616,185.883 36.116,181.778 31.886,178.729 C29.316,176.881 26.423,175.954 23.268,175.954 C16.776,175.954 12.104,179.234 9.3,185.06 C8.354,187.03 7.922,189.12 7.922,191.3 L7.924,191.3 Z M73.248,168.199757 L74.322,168.199757 C83.3,168.199757 90.128,172.555 94.455,180.392 C96.185,183.527 97.111,186.949 97.111,190.534 L97.111,192.069 C97.111,200.469 92.969,207.162 85.726,211.412 C82.373,213.379 78.669,214.396 74.783,214.396 L73.248,214.396 C64.846,214.396 58.168,210.243 53.906,203.016 C51.9395412,199.703904 50.9072983,195.920857 50.9189016,192.069 L50.9189016,190.534 C50.9189016,182.13 55.089,175.472 62.296,171.187 C65.6072559,169.214256 69.3936785,168.181564 73.248,168.199757 L73.248,168.199757 Z M58.668,191.3 C58.668,197.2 61.568,201.523 66.533,204.57 C68.869,206 71.433,206.648 74.171,206.648 C79.991,206.648 84.293,203.698 87.287,198.785 C88.715,196.443 89.361,193.87 89.361,191.143 C89.361,185.666 86.723,181.483 82.213,178.45 C79.7966808,176.805899 76.9375539,175.935396 74.015,175.953708 C67.523,175.953708 62.851,179.234 60.048,185.06 C59.1,187.03 58.668,189.12 58.668,191.3 L58.668,191.3 Z M129.324,176.573 C128.154,176.025 125.964,175.843 124.7,175.795 C118.226,175.551 113.542,179.197 110.794,184.908 C109.844,186.878 109.412,188.963 109.412,191.143 C109.412,197.78 112.897,202.427 118.812,205.26 C120.976,206.294 123.77,206.49 126.135,206.49 C128.215,206.49 131.155,205.216 133.001,204.34 L133.321,204.188 L134.754,204.188 L134.912,204.22 C136.674,204.587 138.004,205.704 138.004,207.6 L138.004,208.367 C138.004,213.085 129.382,214.165 126.092,214.395 C114.492,215.198 105.799,208.822 102.489,197.748 C101.914,195.825 101.655,193.915 101.655,191.911 L101.655,190.378 C101.655,181.975 105.825,175.318 113.032,171.038 C116.339756,169.057286 120.126595,168.019796 123.982,168.037764 L125.518,168.037764 C129.648,168.037764 133.452,169.211 136.862,171.54 L137.142,171.734 L137.319,172.026 C137.687,172.626 138.004,173.342 138.004,174.068 L138.004,174.835 C138.004,176.813 136.524,177.877 134.738,178.221 L134.59,178.247 L134.132,178.247 C132.976,178.247 130.347,177.05 129.315,176.564 L129.324,176.573 Z M154.458,181.82 L163.543,172.834 C164.393,172.007 167.617,168.507 168.886,168.507 L170.274,168.507 L170.432,168.54 C172.2,168.907 173.524,170.026 173.524,171.926 L173.524,172.692 C173.524,173.988 172.006,175.494 171.169,176.392 C169.389,178.279 167.515,180.104 165.693,181.952 L156.331,191.456 L168.387,203.61 C169.495874,204.733667 170.596238,205.8657 171.688,207.006 C172.073,207.411 172.641,207.906 172.964,208.476 C173.311,209.002 173.524,209.596 173.524,210.228 L173.524,211.028 L173.479,211.213 C173.044,212.981 171.922,214.407 169.963,214.407 L169.346,214.407 C168.064,214.407 166.616,212.957 165.738,212.127 C163.938,210.421 162.181,208.627 160.408,206.884 L154.458,201.044 L154.458,210.378 C154.458,212.528 153.112,214.256 150.888,214.256 L150.288,214.256 C148.062,214.256 146.718,212.528 146.718,210.378 L146.718,157.782 C146.718,155.632 148.063,153.912 150.288,153.912 L150.888,153.912 C153.111,153.912 154.458,155.632 154.458,157.782 L154.458,181.83 L154.458,181.82 Z M251.035,168.507 L251.805,168.507 C254.129,168.507 255.68,170.073 255.68,172.384 C255.68,175.592 252.613,176.414 249.96,176.414 C246.48,176.414 243.157,178.521 240.758,180.884 C237.758,183.834 236.458,187.61 236.458,191.762 L236.458,210.522 C236.458,212.672 235.115,214.398 232.888,214.398 L232.276,214.398 C230.049,214.398 228.706,212.673 228.706,210.522 L228.706,190.686 C228.706,183.069 232.414,176.851 238.606,172.49 C242.306,169.885 246.526,168.51 251.044,168.51 L251.035,168.507 Z M195.961,205.683 C198.781,206.668 201.996,206.527 204.889,206.023 C206.369,205.393 210.153,203.743 211.545,203.985 L211.762,204.022 L211.962,204.12 C212.812,204.532 213.622,205.115 214.057,205.98 C215.071,208.007 214.584,210.045 212.592,211.196 L211.929,211.579 C204.579,215.821 196.761,215.233 189.434,211.271 C185.931,209.377 183.251,206.566 181.274,203.139 L180.812,202.339 C176.092,194.167 176.73,185.571 182.052,177.799 C183.889,175.113 186.29,173.039 189.097,171.415 L190.159,170.802 C197.081,166.806 204.499,167.08 211.609,170.587 C215.432,172.473 218.529,175.284 220.663,178.981 L221.047,179.647 C222.597,182.333 220.589,184.673 218.517,186.273 C216.111,188.129 213.682,190.373 211.377,192.353 L195.963,205.683 L195.961,205.683 Z M189.306,201.009 L212.606,180.972 C211.046,179.006 208.44,177.589 206.226,176.744 C201.756,175.041 197.349,175.614 193.25,177.979 C187.885,181.077 185.6,186.009 185.8,192.149 C185.88,194.567 186.53,196.897 187.813,198.954 C188.265,199.679 188.77,200.36 189.316,201.009 L189.306,201.009 Z M147.488,45.732 L170.354,45.732 L170.354,69.107 L181.914,69.107 C187.254,69.107 192.744,68.157 197.801,66.443 C200.286,65.6 203.074,64.428 205.525,62.943 C202.297,58.729 200.649,53.408 200.165,48.163 C199.505,41.028 200.945,31.743 205.773,26.158 L208.177,23.378 L211.041,25.681 C218.241,31.474 224.317,39.581 225.386,48.799 C234.069,46.245 244.264,46.849 251.916,51.266 L255.056,53.078 L253.404,56.304 C246.934,68.946 233.4,72.86 220.17,72.167 C200.373,121.467 157.272,144.82 105.013,144.82 C78.013,144.82 53.243,134.727 39.137,110.773 L38.907,110.373 L36.852,106.191 C32.084,95.647 30.5,84.096 31.574,72.554 L31.897,69.097 L51.45,69.097 L51.45,45.732 L74.315,45.732 L74.315,22.866 L120.048,22.866 L120.048,0 L147.488,0 L147.488,45.732 Z" id="Shape" fill="#364548"></path>
                    <path d="M221.57,54.38 C223.103,42.464 214.186,33.105 208.656,28.66 C202.283,36.028 201.293,55.338 211.291,63.468 C205.711,68.424 193.954,72.916 181.915,72.916 L35.37,72.916 C34.2,85.483 36.406,97.056 41.445,106.961 L43.112,110.011 C44.1675127,111.801187 45.3209301,113.531814 46.567,115.195 C52.592,115.582 58.147,115.715 63.229,115.603 L63.231,115.603 C73.218,115.383 81.367,114.203 87.543,112.063 C88.4506544,111.780666 89.418569,112.269613 89.7299126,113.16773 C90.0412562,114.065847 89.5836526,115.048968 88.696,115.389 C87.874,115.675 87.018,115.941 86.134,116.194 L86.131,116.194 C81.268,117.594 76.053,118.517 69.325,118.932 C69.725,118.939 68.909,118.992 68.907,118.992 C68.677,119.007 68.39,119.04 68.16,119.052 C65.512,119.202 62.654,119.232 59.732,119.232 C56.536,119.232 53.389,119.172 49.87,118.992 L49.77,119.052 C61.97,132.776 81.072,141.007 105.004,141.007 C155.652,141.007 198.612,118.555 217.636,68.15 C231.132,69.535 244.103,66.093 250.003,54.575 C240.605,49.152 228.519,50.881 221.56,54.379" id="Path" fill="#22A0C8"></path>
                    <path d="M221.57,54.38 C223.103,42.464 214.186,33.105 208.656,28.66 C202.283,36.028 201.293,55.338 211.291,63.468 C205.711,68.424 193.954,72.916 181.915,72.916 L44.048,72.916 C43.45,92.162 50.592,106.771 63.228,115.603 L63.231,115.603 C73.218,115.383 81.367,114.203 87.543,112.063 C88.4506544,111.780666 89.418569,112.269613 89.7299126,113.16773 C90.0412562,114.065847 89.5836526,115.048968 88.696,115.389 C87.874,115.675 87.018,115.941 86.134,116.194 L86.131,116.194 C81.268,117.594 75.605,118.637 68.877,119.052 C68.875,119.052 68.714,118.897 68.712,118.897 C85.949,127.739 110.942,127.697 139.597,116.7 C171.727,104.356 201.627,80.84 222.497,53.943 C222.18844,54.0821673 221.882711,54.22753 221.58,54.379" id="Path" fill="#37B1D9"></path>
                    <path d="M35.645,88.186 C36.545,94.918 38.525,101.221 41.445,106.962 L43.112,110.012 C44.1673336,111.8023 45.3207574,113.532936 46.567,115.196 C52.593,115.583 58.147,115.716 63.231,115.604 C73.218,115.384 81.367,114.204 87.543,112.064 C88.4506544,111.781666 89.418569,112.270613 89.7299126,113.16873 C90.0412562,114.066847 89.5836526,115.049968 88.696,115.39 C87.874,115.676 87.018,115.942 86.134,116.195 L86.131,116.195 C81.268,117.595 75.635,118.578 68.907,118.995 C68.677,119.009 68.273,119.012 68.04,119.025 C65.394,119.173 62.565,119.265 59.642,119.265 C56.3138196,119.271144 52.9860379,119.191117 49.662,119.025 C61.862,132.75 81.082,141 105.014,141 C148.374,141 186.098,124.542 207.994,88.178 L35.645,88.178" id="Path" fill="#1B81A5"></path>
                    <path d="M45.367,88.186 C47.959,100.006 54.187,109.286 63.231,115.604 C73.218,115.384 81.367,114.204 87.543,112.064 C88.4506544,111.781666 89.418569,112.270613 89.7299126,113.16873 C90.0412562,114.066847 89.5836526,115.049968 88.696,115.39 C87.874,115.676 87.018,115.942 86.134,116.195 L86.131,116.195 C81.268,117.595 75.516,118.578 68.787,118.995 C86.023,127.835 110.944,127.708 139.587,116.702 C156.921,110.042 173.604,100.128 188.571,88.187 L45.367,88.187" id="Path" fill="#1D91B4"></path>
                    <path d="M55.26,49.543 L75.078,49.543 L75.078,69.36 L55.26,69.36 L55.26,49.543 Z M56.91,51.195 L58.474,51.195 L58.474,67.7 L56.9,67.7 L56.9,51.195 L56.91,51.195 Z M59.85,51.195 L61.477,51.195 L61.477,67.7 L59.85,67.7 L59.85,51.195 Z M62.852,51.195 L64.479,51.195 L64.479,67.7 L62.852,67.7 L62.852,51.195 Z M65.856,51.195 L67.482,51.195 L67.482,67.7 L65.856,67.7 L65.856,51.195 Z M68.859,51.195 L70.485,51.195 L70.485,67.7 L68.86,67.7 L68.86,51.195 L68.859,51.195 Z M71.861,51.195 L73.426,51.195 L73.426,67.7 L71.86,67.7 L71.86,51.195 L71.861,51.195 Z M78.125,26.677 L97.945,26.677 L97.945,46.494 L78.125,46.494 L78.125,26.677 Z M79.777,28.329 L81.34,28.329 L81.34,44.843 L79.777,44.843 L79.777,28.33 L79.777,28.329 Z M82.717,28.329 L84.343,28.329 L84.343,44.843 L82.72,44.843 L82.72,28.33 L82.717,28.329 Z M85.719,28.329 L87.345,28.329 L87.345,44.843 L85.72,44.843 L85.72,28.33 L85.719,28.329 Z M88.722,28.329 L90.348,28.329 L90.348,44.843 L88.722,44.843 L88.722,28.33 L88.722,28.329 Z M91.725,28.329 L93.352,28.329 L93.352,44.843 L91.725,44.843 L91.725,28.33 L91.725,28.329 Z M94.727,28.329 L96.293,28.329 L96.293,44.843 L94.727,44.843 L94.727,28.33 L94.727,28.329 Z" id="Shape" fill="#23A3C2"></path>
                    <path d="M78.126,49.543 L97.946,49.543 L97.946,69.36 L78.126,69.36 L78.126,49.543 Z M79.778,51.195 L81.341,51.195 L81.341,67.7 L79.778,67.7 L79.778,51.195 Z M82.718,51.195 L84.344,51.195 L84.344,67.7 L82.72,67.7 L82.72,51.195 L82.718,51.195 Z M85.72,51.195 L87.346,51.195 L87.346,67.7 L85.72,67.7 L85.72,51.195 Z M88.723,51.195 L90.349,51.195 L90.349,67.7 L88.723,67.7 L88.723,51.195 Z M91.726,51.195 L93.353,51.195 L93.353,67.7 L91.726,67.7 L91.726,51.195 Z M94.728,51.195 L96.294,51.195 L96.294,67.7 L94.728,67.7 L94.728,51.195 Z" id="Shape" fill="#34BBDE"></path>
                    <path d="M100.993,49.543 L120.811,49.543 L120.811,69.36 L100.993,69.36 L100.993,49.543 Z M102.643,51.195 L104.206,51.195 L104.206,67.7 L102.643,67.7 L102.643,51.195 Z M105.583,51.195 L107.209,51.195 L107.209,67.7 L105.583,67.7 L105.583,51.195 Z M108.586,51.195 L110.212,51.195 L110.212,67.7 L108.586,67.7 L108.586,51.195 Z M111.589,51.195 L113.215,51.195 L113.215,67.7 L111.6,67.7 L111.6,51.195 L111.589,51.195 Z M114.591,51.195 L116.219,51.195 L116.219,67.7 L114.591,67.7 L114.591,51.195 Z M117.594,51.195 L119.158,51.195 L119.158,67.7 L117.594,67.7 L117.594,51.195 Z" id="Shape" fill="#23A3C2"></path>
                    <path d="M100.993,26.677 L120.811,26.677 L120.811,46.494 L100.993,46.494 L100.993,26.677 Z M102.643,28.329 L104.206,28.329 L104.206,44.843 L102.643,44.843 L102.643,28.33 L102.643,28.329 Z M105.583,28.329 L107.209,28.329 L107.209,44.843 L105.583,44.843 L105.583,28.33 L105.583,28.329 Z M108.586,28.329 L110.212,28.329 L110.212,44.843 L108.586,44.843 L108.586,28.33 L108.586,28.329 Z M111.589,28.329 L113.215,28.329 L113.215,44.843 L111.6,44.843 L111.6,28.33 L111.589,28.329 Z M114.591,28.329 L116.219,28.329 L116.219,44.843 L114.591,44.843 L114.591,28.33 L114.591,28.329 Z M117.594,28.329 L119.158,28.329 L119.158,44.843 L117.594,44.843 L117.594,28.33 L117.594,28.329 Z M123.858,49.543 L143.676,49.543 L143.676,69.36 L123.86,69.36 L123.86,49.543 L123.858,49.543 Z M125.51,51.195 L127.073,51.195 L127.073,67.7 L125.5,67.7 L125.5,51.195 L125.51,51.195 Z M128.45,51.195 L130.076,51.195 L130.076,67.7 L128.45,67.7 L128.45,51.195 Z M131.452,51.195 L133.078,51.195 L133.078,67.7 L131.452,67.7 L131.452,51.195 Z M134.455,51.195 L136.082,51.195 L136.082,67.7 L134.455,67.7 L134.455,51.195 Z M137.458,51.195 L139.085,51.195 L139.085,67.7 L137.458,67.7 L137.458,51.195 Z M140.461,51.195 L142.025,51.195 L142.025,67.7 L140.461,67.7 L140.461,51.195 Z" id="Shape" fill="#34BBDE"></path>
                    <path d="M123.86,26.677 L143.678,26.677 L143.678,46.494 L123.86,46.494 L123.86,26.677 Z M125.512,28.329 L127.075,28.329 L127.075,44.843 L125.512,44.843 L125.512,28.33 L125.512,28.329 Z M128.452,28.329 L130.078,28.329 L130.078,44.843 L128.452,44.843 L128.452,28.33 L128.452,28.329 Z M131.454,28.329 L133.08,28.329 L133.08,44.843 L131.454,44.843 L131.454,28.33 L131.454,28.329 Z M134.457,28.329 L136.084,28.329 L136.084,44.843 L134.457,44.843 L134.457,28.33 L134.457,28.329 Z M137.46,28.329 L139.087,28.329 L139.087,44.843 L137.46,44.843 L137.46,28.33 L137.46,28.329 Z M140.463,28.329 L142.027,28.329 L142.027,44.843 L140.463,44.843 L140.463,28.33 L140.463,28.329 Z" id="Shape" fill="#23A3C2"></path>
                    <path d="M123.86,3.8 L143.678,3.8 L143.678,23.62 L123.86,23.62 L123.86,3.8 Z M125.512,5.45 L127.075,5.45 L127.075,21.966 L125.512,21.966 L125.512,5.46 L125.512,5.45 Z M128.452,5.45 L130.078,5.45 L130.078,21.966 L128.452,21.966 L128.452,5.46 L128.452,5.45 Z M131.454,5.45 L133.08,5.45 L133.08,21.966 L131.454,21.966 L131.454,5.46 L131.454,5.45 Z M134.457,5.45 L136.084,5.45 L136.084,21.966 L134.457,21.966 L134.457,5.46 L134.457,5.45 Z M137.46,5.45 L139.087,5.45 L139.087,21.966 L137.46,21.966 L137.46,5.46 L137.46,5.45 Z M140.463,5.45 L142.027,5.45 L142.027,21.966 L140.463,21.966 L140.463,5.46 L140.463,5.45 Z" id="Shape" fill="#34BBDE"></path>
                    <path d="M146.725,49.543 L166.543,49.543 L166.543,69.36 L146.725,69.36 L146.725,49.543 Z M148.375,51.195 L149.94,51.195 L149.94,67.7 L148.376,67.7 L148.376,51.195 L148.375,51.195 Z M151.315,51.195 L152.942,51.195 L152.942,67.7 L151.316,67.7 L151.316,51.195 L151.315,51.195 Z M154.319,51.195 L155.946,51.195 L155.946,67.7 L154.319,67.7 L154.319,51.195 Z M157.321,51.195 L158.948,51.195 L158.948,67.7 L157.321,67.7 L157.321,51.195 Z M160.325,51.195 L161.951,51.195 L161.951,67.7 L160.325,67.7 L160.325,51.195 Z M163.327,51.195 L164.891,51.195 L164.891,67.7 L163.327,67.7 L163.327,51.195 Z" id="Shape" fill="#23A3C2"></path>
                    <path d="M96.704,101.492 C98.6749743,101.465707 100.507549,102.502273 101.500497,104.205061 C102.493445,105.907848 102.49306,108.01327 101.499489,109.715694 C100.505918,111.418118 98.6729645,112.454014 96.702,112.427 C93.7112229,112.386008 91.3083905,109.949571 91.3089375,106.958513 C91.3094846,103.967455 93.7132081,101.531898 96.704,101.492" id="Path" fill="#D3ECEC"></path>
                    <path d="M96.704,103.042998 C97.1886968,103.042513 97.6692377,103.132381 98.121,103.308 C97.4967957,103.670365 97.1929751,104.406166 97.3796741,105.103362 C97.566373,105.800559 98.1972411,106.286064 98.919,106.288 C99.524,106.288 100.049,105.953 100.321,105.458 C100.982217,107.050837 100.523238,108.888747 99.1907993,109.98371 C97.8583611,111.078674 95.9663449,111.172751 94.5318572,110.215368 C93.0973695,109.257986 92.4583311,107.474672 92.9582749,105.824099 C93.4582187,104.173526 94.9793736,103.044516 96.704,103.044 M1.42108547e-14,90.162 L254.327,90.162 C248.79,88.758 236.807,86.86 238.783,79.602 C228.713,91.254 204.43,87.777 198.301,82.032 C191.477,91.93 151.747,88.167 148.976,80.456 C140.42,90.496 113.909,90.496 105.353,80.456 C102.58,88.156 62.851,91.93 56.026,82.031 C49.898,87.777 25.626,91.254 15.546,79.603 C17.522,86.86 5.54,88.758 1.42108547e-14,90.163" id="Shape" fill="#364548"></path>
                    <path d="M111.237,140.9 C97.697,134.475 90.267,125.74 86.131,116.206 C81.101,117.641 75.056,118.559 68.031,118.953 C65.385,119.101 62.601,119.177 59.681,119.177 C56.313,119.177 52.764,119.077 49.038,118.88 C61.455,131.28 76.73,140.844 105.014,141.018 C107.102,141.018 109.174,140.978 111.237,140.9" id="Path" fill="#BDD9D7"></path>
                    <path d="M91.16,124.994 C89.287,122.451 87.46,119.254 86.134,116.194 C81.104,117.631 75.057,118.549 68.031,118.944 C72.857,121.564 79.758,123.99 91.161,124.994" id="Path" fill="#D3ECEC"></path>
                </g>
            </g>
        </g>
    </g>
</svg>