<?xml version="1.0" encoding="UTF-8"?>
<svg width="69px" height="125px" viewBox="0 0 69 125" version="1.1" xmlns="http://www.w3.org/2000/svg" xmlns:xlink="http://www.w3.org/1999/xlink">
    <!-- Generator: Sketch 55.2 (78181) - https://sketchapp.com -->
    <title>golang-vertical</title>
    <desc>Created with Sketch.</desc>
    <g id="Page-1" stroke="none" stroke-width="1" fill="none" fill-rule="evenodd">
        <g id="deviun.me/code" transform="translate(-890.000000, -3375.000000)">
            <g id="Skills" transform="translate(159.000000, 3311.000000)">
                <g id="golang-vertical" transform="translate(731.000000, 65.000000)">
                    <path d="M2.2275,121.888554 C-0.0735,119.39759 -0.0225,118.322289 2.4975,113.756024 C5.1405,109.012048 11.6475,102.268072 19.3575,96.3283133 C25.1385,91.8644578 26.4675,91.1385542 30.4575,90.248494 C33.9435,89.4728916 36.3525,89.7906627 38.9325,91.3704819 C40.5135,92.3388554 40.7025,92.686747 40.422,94.0993976 C40.245,95.003012 39.351,96.810241 38.436,98.1460843 C36.8985,100.40512 36.6105,100.564759 34.656,100.450301 C33.492,100.38253 32.556,100.224398 32.556,100.103916 C32.556,99.9834337 33.132,99.1942771 33.8355,98.3569277 C35.283,96.6310241 36.2085,92.0918675 35.2995,91.1777108 C33.4995,89.3704819 21.4575,96.0421687 15.1455,102.39006 C11.3055,106.253012 5.226,113.888554 5.4315,114.593373 C5.4765,114.743976 5.2815,115.283133 5.0265,115.798193 C4.2015,117.349398 5.3445,119.337349 7.3365,119.804217 C8.3175,120.034639 9.6045,120.170181 10.197,120.105422 C14.0865,119.674699 20.2845,115.768072 26.5545,109.796687 C29.865,106.643072 29.625,106.518072 23.2545,108.084337 C18.4095,109.278614 16.6455,109.10241 17.4945,107.512048 C17.799,106.939759 18.2745,106.903614 18.522,106.769578 C18.9015,106.649096 18.8595,106.649096 19.2645,106.537651 C19.5465,106.47741 21.2355,105.926205 23.2395,105.724398 C25.2435,105.52259 28.7895,105.00753 31.1175,104.579819 L35.505,103.799699 C35.589,103.799699 35.7945,104.158133 35.961,104.59488 C36.5235,106.067771 23.9565,116.941265 18.534,119.65512 L14.2245,121.893072 C13.4835,122.302711 10.794,122.807229 8.2485,123.01506 C3.6645,123.387048 3.6045,123.376506 2.223,121.879518 L2.2275,121.888554 Z M35.757,121.391566 C33.6795,120.25753 32.91,118.349398 33.186,115.016566 C33.3765,112.712349 33.846,111.552711 35.436,109.433735 C38.8455,104.875 45.6405,97.8614458 48.318,96.1355422 C49.9185,94.9006024 51.36,93.7228916 52.968,92.6716867 C53.4225,92.3644578 53.805,92.1551205 54.027,92.0120482 C54.2565,91.9337349 54.936,91.7003012 55.827,91.4759036 C57.732,91.001506 64.431,90.0722892 65.829,90.5180723 C67.122,90.9292169 68.097,93.7861446 68.089543,95.376506 C68.0205,97.0933735 64.179,105.421687 58.5105,110.858434 C56.985,112.129518 52.3725,115.762048 50.4225,117.087349 C42.978,122.121988 39.1425,123.251506 35.76,121.40512 L35.757,121.391566 Z M43.68,117.829819 C45.1125,117.221386 46.5255,116.420181 46.8225,116.049699 C47.1195,115.679217 48.2505,114.703313 49.3365,113.881024 C51.2445,112.525602 50.8065,112.728916 53.961,110.754518 L57.591,108.161145 C58.566,107.378012 59.121,106.590361 59.6085,106.034639 C59.7945,105.805723 59.9625,105.394578 60.381,104.820783 C61.536,102.137048 63.831,99.248494 63.615,96.2439759 C63.225,92.746988 59.37,92.8343373 53.3475,96.4759036 C51.6135,97.5240964 49.9995,98.3810241 49.7475,98.3810241 C49.4955,98.3810241 47.142,100.564759 44.49,103.233434 C38.1,109.664157 34.842,116.167169 36.9525,118.286145 C37.9245,119.262048 40.7505,119.069277 43.6695,117.828313 L43.68,117.829819 Z" id="Shape" fill="#000000" fill-rule="nonzero"></path>
                    <g id="Group" transform="translate(6.410978, 0.056636)">
                        <g stroke-linejoin="round" transform="translate(0.000000, 4.401108)" stroke="#000000" stroke-width="0.821907">
                            <path d="M5.80156754,35.3464021 C3.9689889,35.6044171 1.83477039,36.1377764 0.724100067,36.8158222 C-0.28095521,37.4296393 -0.149039136,39.2364318 0.566019954,40.130407 C1.3194347,41.0741697 2.20627236,41.0236945 3.27557336,40.5299451 C3.97734496,40.205776 4.82253932,39.4846818 5.69567853,38.6743278 L5.77006111,36.5597327 L5.80156754,35.3466772 L5.80156754,35.3464021 Z M58.4536149,36.1970538 C57.4262311,35.5698959 55.5221466,35.0669317 53.7936762,34.7906246 L53.9772354,37.9213256 L54.0201115,38.5443575 C54.6995547,39.1467592 55.3461215,39.653987 55.9022786,39.9110392 C56.9717166,40.4061639 57.8570474,40.4554013 58.611832,39.5116386 C59.3268911,38.6176635 59.4590811,36.8107334 58.4538889,36.1970538 L58.4536149,36.1970538 Z M7.14648136,73.0094377 C5.7966361,75.4190445 9.32453492,77.4036694 11.153278,75.7326235 C12.6475049,74.3671796 13.8269415,73.209138 16.393757,72.8309177 C14.4280294,72.0186381 12.6951755,71.0044577 11.2223182,69.8230352 C9.42549249,70.5285879 7.97085409,71.5380921 7.14648136,73.0094377 Z M48.0466285,75.0727323 C49.5585264,77.0371396 53.3150523,75.2531778 52.2168476,72.7181393 C51.4953502,71.0539702 50.1322175,69.6709219 48.4255276,68.8403502 C47.308008,69.888089 45.9803543,70.8621094 44.4107859,71.7102855 C46.1477493,72.536181 46.998834,73.7114145 48.0466285,75.0730074 L48.0466285,75.0727323 Z" id="Shape" fill="#FFFFFF" fill-rule="nonzero"></path>
                            <path d="M0.280544256,39.6644396 C0.737113595,39.3347691 1.05971209,38.9767664 1.8947696,38.5508217 M58.8971707,39.0455337 C58.4406014,38.7158632 58.1180029,38.3578606 57.2830823,37.9319158 M7.92729302,75.7224459 C8.05057907,75.0416495 8.42043722,73.8966736 9.53001167,72.9062867 M51.1020677,75.5010152 C51.0985061,74.8092159 50.9234399,73.4014114 49.8875631,72.4484339" id="Shape" stroke-linecap="round"></path>
                            <path d="M5.21499992,5.56698956 C5.21439445,4.60926287 5.98710894,3.8323368 6.94100462,3.8315775 C7.49990138,3.8315775 7.99537431,4.09977004 8.31084962,4.51429944 C9.07385328,3.26273423 9.99343023,2.18033662 11.038622,1.25060247 C10.5208206,0.747500761 9.67946175,0.380008206 8.35879419,0.201900849 C4.10542547,-0.372168732 1.9318924,1.73761262 1.43532359,4.56518726 C0.95615181,7.29359942 2.41750246,10.2237749 5.68239103,10.9855793 C6.0193729,9.65355628 6.43224418,8.43156102 6.9084023,7.30061368 C5.97033245,7.28273418 5.21499992,6.51419062 5.21499992,5.56685203 L5.21499992,5.56698956 Z" id="Path" fill="#D0B698" fill-rule="nonzero"></path>
                        </g>
                        <path d="M6.94100462,8.23282346 C5.9875925,8.23282346 5.21499992,9.00989417 5.21499992,9.96823553 C5.21499992,10.9155741 5.97033245,11.6842552 6.9084023,11.7018597 C7.24812386,10.8950815 7.6207217,10.1339648 8.01962057,9.41355834 C8.11372892,9.24439073 8.21139887,9.07879903 8.31084962,8.91540787 C7.99537431,8.50115354 7.49990138,8.23282346 6.94100462,8.23282346 L6.94100462,8.23282346 Z" id="Path" fill="#000000" fill-rule="nonzero"></path>
                        <path d="M56.2978898,7.85240265 C55.801321,5.02469048 53.6277879,2.91490913 49.3746932,3.48911625 C47.900055,3.68812887 47.0232173,4.12177558 46.5254156,4.71936359 C47.4660881,5.53494399 48.3414191,6.47224256 49.1653809,7.5412993 L49.2827766,7.69753865 C49.597293,7.27186894 50.0996152,6.99611199 50.6674159,6.99611199 C51.620828,6.99611199 52.3934206,7.7731827 52.3934206,8.73152406 C52.3934206,9.57048536 51.7995928,10.2721871 51.010836,10.4322774 C51.5967188,11.5714768 52.071781,12.7978732 52.451913,14.1652426 C55.4331067,13.2643907 56.755418,10.4655608 56.296383,7.85240265 L56.2978898,7.85240265 Z" id="Path" stroke="#000000" stroke-width="0.821907" fill="#D0B698" fill-rule="nonzero" stroke-linejoin="round"></path>
                        <path d="M52.3946538,8.73028625 C52.3952589,7.77255956 51.6225444,6.99563349 50.6686488,6.99487418 C50.100711,6.99487418 49.5985259,7.27186894 49.2840094,7.69630084 C49.9435898,8.56895812 50.5178288,9.46857219 51.0120689,10.4298018 C51.8008257,10.2697115 52.3946538,9.56924755 52.3946538,8.72904844 L52.3946538,8.73028625 Z" id="Path" fill="#000000" fill-rule="nonzero"></path>
                        <g stroke-linejoin="round" transform="translate(4.657473, 0.000000)" fill-rule="nonzero" stroke="#000000" stroke-width="0.821907">
                            <path d="M44.6265364,7.69753865 L44.5091407,7.5412993 C43.685042,6.47224256 42.809848,5.53494399 41.8691754,4.71936359 C37.7874483,1.18087241 32.4745045,-0.0668418343 24.7833727,0.163803755 C18.1146933,0.362816377 11.0201291,1.52622188 6.38128595,5.65184844 C5.33609421,6.58130752 4.41651726,7.66219225 3.6535136,8.91554541 C3.55309394,9.07960232 3.45599763,9.2456866 3.36228455,9.41369587 C2.95079601,10.155653 2.57984109,10.9195503 2.25106629,11.7019972 C1.77490817,12.8330821 1.36066704,14.0549398 1.02505501,15.3869628 C0.372049902,17.9684879 0.00287663641,20.9616543 0.00287663641,24.4995953 C0.00287663641,30.7069461 1.21738125,33.7870344 1.14423153,39.749436 L1.11272509,40.9624915 L1.03834251,43.0770866 C0.811907132,50.3811387 0.892864971,57.6367785 0.83286576,62.6119565 C0.77807196,67.1786567 2.83914075,71.2359285 6.56498216,74.2244187 C8.03783951,75.4072166 9.77069343,76.4201592 11.736421,77.2323012 C15.1765128,78.6539968 19.327828,79.4584369 24.0436564,79.4584369 C30.9291823,79.4584369 36.0237729,78.1309525 39.7535868,76.1113939 C41.3234292,75.2617049 42.650809,74.2890599 43.7683285,73.2414586 C46.557333,70.6272002 48.0381354,67.5444988 48.6997705,64.7286146 C50.2709828,58.0550213 50.0649581,53.1647022 49.3614057,42.9472539 L49.3185295,42.324222 L49.1349703,39.193521 C48.8975762,34.057565 49.1437373,31.7230521 49.0692177,25.8613258 C49.0057939,20.8729444 48.6315523,17.174638 47.79444,14.1644174 C47.414171,12.797048 46.9391088,11.5707891 46.353363,10.4314522 C45.8602188,9.46981 45.2848839,8.5700584 44.6250296,7.69753865 L44.6265364,7.69753865 Z" id="Path" fill="#D0B698"></path>
                            <ellipse id="Oval" fill="#FFFFFF" cx="14.6739166" cy="12.3224159" rx="7.52044905" ry="7.30308931"></ellipse>
                        </g>
                        <ellipse id="Oval" fill="#000000" fill-rule="nonzero" cx="15.386236" cy="12.6936219" rx="2.58900705" ry="2.59940467"></ellipse>
                        <g transform="translate(15.753217, 4.126039)" fill="#FFFFFF" fill-rule="nonzero" id="Oval">
                            <ellipse cx="0.742592975" cy="9.18648865" rx="1" ry="1"></ellipse>
                            <ellipse stroke="#000000" stroke-width="0.821907" stroke-linejoin="round" cx="22.4409378" cy="7.32977103" rx="7.52044905" ry="7.30308931"></ellipse>
                        </g>
                        <ellipse id="Oval" fill="#000000" fill-rule="nonzero" cx="34.2490017" cy="11.8272912" rx="2.58900705" ry="2.59940467"></ellipse>
                        <g transform="translate(25.890071, 11.690444)" fill="#FFFFFF" fill-rule="nonzero">
                            <ellipse id="Oval" cx="9.46850562" cy="0.755752839" rx="1" ry="1"></ellipse>
                            <g stroke-linejoin="round" transform="translate(0.000000, 11.415375)" id="Path" stroke="#000000" stroke-width="0.821907">
                                <path d="M3.14626,0.047174381 C1.66901915,0.0730308931 1.4476522,0.734847574 0.175751113,0.96274247 L0.01643814,4.11173555 C-0.10684791,6.87618179 3.38625684,6.25727592 3.38625684,4.60686025 L3.38625684,0.0500626084 C3.30629561,0.0470387665 3.22626914,0.0461215534 3.14626,0.0473119157 L3.14626,0.047174381 Z"></path>
                                <path d="M3.38625684,4.60672272 C3.38625684,6.25713838 6.87936159,6.87604425 6.75607554,4.11159802 L6.59169414,0.899751605 C4.98897549,0.826445643 4.79514242,0.100262752 3.38625684,0.0497875392 L3.38625684,4.60658518 L3.38625684,4.60672272 Z"></path>
                            </g>
                        </g>
                        <path d="M34.4754371,20.3959743 C33.8790065,19.7516245 33.1713446,19.4004986 32.2254666,19.2310559 C31.7235554,19.9690668 30.472065,20.4922485 29.0090706,20.4922485 C27.6011439,20.4922485 26.3910228,20.0084017 25.8537696,19.314952 C24.8400843,19.5098386 24.1068063,19.8905345 23.5044854,20.5885228 C22.3227202,21.9583678 22.8966852,24.0131353 24.4847465,24.1224753 C25.1637787,24.1697872 25.6661008,24.1403548 26.0655476,24.0674615 C27.3373117,23.839429 27.5586787,23.1776124 29.0360565,23.1518934 C29.1160657,23.150703 29.1960921,23.1516202 29.2760534,23.1546441 C30.6863088,23.2049818 30.8815117,23.9311646 32.4814907,24.0046081 C32.7981988,24.0190493 33.1697008,24.008184 33.618462,23.9611472 C35.2020028,23.7951429 35.704051,21.7226334 34.4751631,20.3951491 L34.4754371,20.3959743 Z" id="Path" stroke="#000000" stroke-width="0.821907" fill="#AC967B" fill-rule="nonzero" stroke-linejoin="round"></path>
                        <path d="M29.0092076,20.4919735 C30.4732979,20.4919735 31.7234184,19.9689292 32.2256036,19.2307808 C32.3772455,19.0076997 32.4614909,18.7652261 32.4614909,18.5114747 C32.4614909,17.4176617 30.9163058,16.5309759 29.0094815,16.5309759 C27.1026573,16.5309759 25.5574721,17.4176617 25.5574721,18.5114747 C25.5574721,18.7975467 25.6640461,19.0690401 25.8541806,19.314677 C26.3911598,20.0081266 27.6014179,20.4919735 29.0093445,20.4919735 L29.0092076,20.4919735 Z" id="Path" fill="#000000" fill-rule="nonzero"></path>
                    </g>
                </g>
            </g>
        </g>
    </g>
</svg>