<?xml version="1.0" encoding="UTF-8"?>
<svg width="237px" height="91px" viewBox="0 0 237 91" version="1.1" xmlns="http://www.w3.org/2000/svg" xmlns:xlink="http://www.w3.org/1999/xlink">
    <!-- Generator: Sketch 55.2 (78181) - https://sketchapp.com -->
    <title>mongodb-ar21</title>
    <desc>Created with Sketch.</desc>
    <g id="Page-1" stroke="none" stroke-width="1" fill="none" fill-rule="evenodd">
        <g id="deviun.me/code" transform="translate(-979.000000, -3620.000000)" fill-rule="nonzero">
            <g id="Skills" transform="translate(159.000000, 3311.000000)">
                <g id="mongodb-ar21" transform="translate(820.000000, 309.000000)">
                    <path d="M20.4311495,0.341804878 L22.8658224,4.89180488 C23.3958638,5.7125542 24.0128945,6.47449798 24.7063458,7.16458537 C26.7456636,9.191 28.6867009,11.3150732 30.4244766,13.5900732 C34.5522523,18.9768293 37.3376075,24.9584146 39.327785,31.4349512 C40.5205514,35.390122 41.1683084,39.4429512 41.2174486,43.5446098 C41.4184766,55.8029756 37.1879533,66.330122 28.6330935,75.079439 C27.246952,76.4663333 25.7499773,77.7393212 24.1568692,78.8859024 C23.3080841,78.8859024 22.912729,78.2200488 22.5642804,77.6496341 C21.8941869,76.539878 21.5189346,75.3258049 21.3201402,74.0917561 C21.0208318,72.609122 20.8220374,71.1264878 20.9225514,69.5928049 L20.9225514,68.9003171 C20.8734112,68.7516098 20.1273738,0.690268293 20.4244486,0.34402439 L20.4311495,0.341804878 Z" id="Path" fill="#599636"></path>
                    <path d="M20.4311495,0.195317073 C20.3306355,-0.00443902439 20.2301215,0.146487805 20.1318411,0.244146341 C20.1809813,1.23182927 19.8325327,2.12185366 19.2830561,2.96304878 C18.6866729,3.80646341 17.8892617,4.44568293 17.0940841,5.13817073 C12.667,8.94463415 9.18698131,13.5412439 6.39939252,18.6816341 C2.71834579,25.6020732 0.779542056,33.0152439 0.23453271,40.8257073 C-0.0111682243,43.6444878 1.12799065,53.5790244 2.02591589,56.4444146 C4.46058879,64.0573415 8.83853271,70.4317805 14.5343271,75.9672439 C15.9281215,77.2989512 17.4201963,78.537439 18.9614112,79.7226585 C19.4081402,79.7226585 19.459514,79.3275854 19.5577944,79.0301707 C19.7537821,78.3989221 19.9030893,77.7542871 20.0045234,77.1014146 C20.4512523,74.6310976 20.7014206,72.158561 20.9984953,69.6882439 L20.4512523,0.195317073 L20.4311495,0.195317073 Z" id="Path" fill="#6CAC48"></path>
                    <path d="M22.8725234,81.9 C22.9730374,80.7636098 23.5426168,79.8247561 24.1166636,78.8859024 C23.5202804,78.6417561 23.0713178,78.1445854 22.7228692,77.5985854 C22.4235607,77.1036341 22.1756262,76.4888293 21.9768318,75.9672439 C21.2799346,73.892 21.1280467,71.716878 20.931486,69.5905854 L20.931486,68.3032683 C20.685785,68.5030244 20.6321776,70.1809756 20.6321776,70.429561 C20.4825234,72.7023415 20.1854486,74.9285122 19.7387196,77.1014146 C19.5890654,77.9892195 19.4930187,78.8814634 18.9435421,79.6716098 C18.9435421,79.7714878 18.9435421,79.8713659 18.9926822,80.0178537 C19.8861402,82.636878 20.1363084,85.3069512 20.2881963,88.0258537 L20.2881963,89.0135366 C20.2881963,90.1987561 20.2390561,89.9523902 21.233028,90.3452439 C21.6306168,90.4939512 22.0818131,90.545 22.4771682,90.8401951 C22.7764766,90.8401951 22.8256168,90.5960488 22.8256168,90.3962927 L22.6759626,88.7649512 L22.6759626,84.2149512 C22.6268224,83.4248049 22.7764766,82.632439 22.8769907,81.891122 L22.8725234,81.9 Z" id="Path" fill="#C2BFBF"></path>
                    <g id="Group" transform="translate(52.137627, 41.465269)">
                        <path d="M8.50748983,19.7629833 L8.50748983,24.4702903 C8.50219484,24.6566985 8.51287726,24.8432163 8.53942143,25.027824 C8.6010038,25.5853577 8.94540888,25.9253172 9.45175278,26.0816986 C9.92418119,26.2052909 10.4041559,26.2984074 10.8886747,26.3604655 C11.1692165,26.3921951 11.2627305,26.5145805 11.2946621,26.8137449 C11.3265937,27.8676196 11.2330797,27.9922715 10.2044261,27.9288123 C7.8049947,27.8041605 5.40328242,27.7746973 3.00385097,27.9288123 L2.77576813,27.9288123 C2.02765642,27.9605419 1.96607406,27.8970828 1.96607406,27.1537045 C1.96607406,27.0290527 1.99800566,26.8749377 1.99800566,26.7502858 C1.99800566,26.5236461 2.15310198,26.4103262 2.37206151,26.4103262 C2.87384375,26.3491335 3.33913274,26.2244817 3.80898338,26.1315594 C4.46358113,25.9774444 4.83535615,25.5740257 4.89921935,24.9235697 C4.99045248,24.211921 4.99045248,23.4685427 4.99045248,22.7546276 L5.02238408,14.4550812 C5.04337834,13.9636806 4.77676094,13.5044678 4.33813557,13.2765546 C3.77408672,12.9652197 3.17754309,12.7159526 2.55908944,12.5331764 C2.37206151,12.4719836 2.18503358,12.4425205 2.02993725,12.3473318 C1.57377158,12.1297577 1.56236744,11.7286054 1.99800566,11.4793017 C2.15310198,11.3886458 2.34012991,11.3251867 2.52715784,11.2934571 C4.41875106,11.0160574 6.27721962,10.5490646 8.07413244,9.89962284 C8.4481883,9.774971 8.54170226,9.80896695 8.57591469,10.1783897 C8.60784628,10.4050294 8.57591469,10.6769971 8.54398309,10.8900384 C8.48240072,11.2934571 8.48240072,11.6946094 8.48240072,12.0685649 C8.48240072,12.2226799 8.51433232,12.3790613 8.66942865,12.4719836 C8.82452498,12.5649059 8.98190214,12.4719836 9.12559432,12.3813277 C9.78019207,11.8827204 10.4347898,11.4203753 11.1509699,11.0214894 C12.1773427,10.4639557 13.2721403,9.96761476 14.4581711,9.81349975 C15.8950929,9.62765518 17.1381444,9.99934432 18.2306612,10.9285672 C18.6823768,11.3302996 19.0802232,11.7880893 19.4144111,12.2906719 C19.7268846,12.7439513 19.7565354,12.7552833 20.1625228,12.4447869 C21.3485536,11.5767567 22.5938859,10.8039153 23.935013,10.2463816 C25.3377224,9.65711834 26.7723635,9.56646246 28.2047237,10.060537 C29.6690155,10.5863412 30.6680183,11.6084863 31.2610337,13.0023206 C31.7628159,14.117388 31.9772138,15.2687177 31.9772138,16.4699082 L31.9772138,24.7694547 C31.9772138,25.3269884 32.2052966,25.6760135 32.7572571,25.9479812 C33.3502725,26.1746209 34.0048702,26.2879408 34.6275364,26.4125926 C35.0335238,26.5032485 35.0335238,26.5032485 35.0335238,26.9112 C34.9719415,27.9310787 34.8784275,27.9945379 33.8794247,27.9310787 C31.3777988,27.7917419 28.8702826,27.7917419 26.3686568,27.9310787 C25.8668746,27.9628083 25.8668746,27.9628083 25.8395046,27.4664673 L25.8395046,27.3123523 C25.807573,26.4737854 25.807573,26.4737854 26.619548,26.2924736 L27.429242,26.0748994 C27.9939048,25.9428526 28.3938094,25.443323 28.3963133,24.8669098 L28.4875464,22.5438527 L28.425964,16.474441 C28.4020491,15.9325212 28.2863878,15.398482 28.0838398,14.8947622 C27.3037965,13.004587 25.5908944,12.3246678 23.9372938,12.5105124 C22.6896807,12.6351642 21.5994447,13.1292388 20.5707911,13.8431539 C20.3518316,13.9972689 20.1967353,14.1831135 20.2286668,14.4936099 C20.5092087,16.4767074 20.3199,18.459805 20.3541124,20.4406361 L20.3541124,24.7467907 C20.3541124,25.5218985 20.6665859,25.8935877 21.4146976,26.0794322 L22.8516195,26.3899287 C23.070579,26.4216582 23.1937437,26.5145805 23.1937437,26.7616178 L23.1937437,26.9882575 C23.1618121,27.8562876 23.1025106,27.8948164 22.2266725,27.8857508 C19.7337271,27.7610989 17.2385008,27.7950949 14.777487,27.8857508 C13.9335805,27.9174803 13.8651557,27.8245581 13.9039298,26.9791919 C13.9358614,26.4805845 13.9951629,26.4533878 14.4650135,26.3604655 L15.4913863,26.1746209 C16.4037177,25.9887764 16.7389994,25.6488168 16.8005818,24.6878644 L16.8918149,22.6118446 L16.8302326,16.3860515 C16.7686502,15.6109437 16.6021497,14.8675654 16.1756348,14.1559167 C15.5529687,13.0091198 14.579055,12.4221229 13.2447704,12.3586638 C11.9036433,12.2680079 10.7198934,12.7620825 9.59544497,13.3785425 C8.81540166,13.8318219 8.47327741,14.3689581 8.53485977,15.2687177 L8.53485977,19.7901801 L8.50748983,19.7629833 Z M67.231978,19.9510943 L67.231978,24.3184416 C67.2369772,24.629006 67.25753,24.9391307 67.2935603,25.2476645 C67.3209414,25.6701175 67.6257978,26.0238408 68.041672,26.1156946 C68.5794767,26.2714748 69.1335874,26.3650168 69.6929918,26.3944615 C70.0054653,26.426191 70.0670476,26.5485765 70.0989792,26.7978801 L70.0989792,27.0154543 C70.0670476,28.0987921 69.9438829,28.223444 68.8832977,28.1622512 C66.5112362,28.0081362 64.1460172,28.0375994 61.7762365,28.1622512 L60.8639052,28.1939808 C60.6768772,28.1939808 60.6358223,28.1033249 60.5833633,27.9764067 C60.4922766,27.5474923 60.4922766,27.1044091 60.5833633,26.6754947 C60.6152949,26.4896501 60.7384596,26.448855 60.9254875,26.3967278 C61.3816532,26.3355351 61.769394,26.2426128 62.2027514,26.1700881 C62.9827947,25.9842436 63.2633366,25.6714808 63.2929874,24.8691762 L63.3842205,22.2673522 L63.3842205,14.6477249 C63.3842205,14.0901912 63.165261,13.7502316 62.6680404,13.5009279 C62.1069566,13.1904315 61.5139412,12.9751238 60.8889943,12.7575497 C60.7019663,12.696357 60.5149384,12.6328978 60.3598421,12.5399755 C59.9538546,12.2612087 59.9036764,11.8600564 60.2982597,11.54956 C60.4752003,11.405017 60.6925641,11.3179887 60.9209259,11.3002563 C62.9166507,10.9897599 64.8485123,10.556878 66.7187916,9.81349975 C66.9377511,9.72284386 67.0312651,9.78177019 67.124779,9.96761476 C67.218293,10.1534593 67.2502246,10.3710335 67.2160122,10.5863412 L67.124779,12.0413682 C67.124779,12.2272127 67.0335459,12.4946476 67.1863614,12.5671723 C67.3733893,12.6918242 67.4988349,12.4130573 67.6539312,12.3405326 C68.5742791,11.5733935 69.5908879,10.9281299 70.6783096,10.4208942 C71.6453809,9.96761476 72.639822,9.67751592 73.7642704,9.74097504 C75.8535092,9.86562688 77.3497326,10.9195016 78.314523,12.7462177 C78.8163053,13.7071701 79.0307032,14.7587784 79.1242171,15.8443826 L79.2154503,18.1107798 L79.2473818,24.9552992 C79.2793134,25.4811034 79.4663414,25.8233294 79.9954936,26.0091739 C80.5440496,26.1908336 81.1071637,26.3257931 81.6787449,26.4125926 C82.1805271,26.4737854 82.2078971,26.5667076 82.2398287,27.0313191 L82.2398287,27.1854341 C82.1782463,28.2393087 82.1143831,28.2687719 81.0537979,28.2053128 C78.7282624,28.0814306 76.3977178,28.0814306 74.0721823,28.2053128 C73.7597088,28.2370424 73.4495161,28.2053128 73.1598509,28.2370424 C72.972823,28.2370424 72.8473774,28.2053128 72.8177267,28.0194682 C72.7561443,27.6160495 72.6922811,27.2148972 72.7857951,26.779749 C72.8177267,26.5939044 72.9112406,26.5009821 73.1279193,26.4692526 L74.5648412,26.2426128 C75.0666234,26.117961 75.3448845,25.7893334 75.4087477,25.336054 L75.4703301,24.4680239 L75.4383985,17.9951935 C75.4383985,17.2518153 75.4064669,16.508437 75.2513705,15.7650587 C74.8773147,14.1785807 73.6616332,13.0453821 72.0125942,12.8867343 C70.5756724,12.7326193 69.2756002,13.1043084 68.0850078,13.8771499 C67.4919924,14.248839 67.2411013,14.7746432 67.2411013,15.4250991 L67.2411013,20.1029429 C67.2411013,20.012287 67.2411013,20.012287 67.2730329,20.012287 L67.231978,19.9510943 Z" id="Shape" fill="#47474A"></path>
                        <path d="M158.524414,11.18467 C158.18229,8.92280566 157.338384,6.91024497 155.874092,5.14472158 C154.598205,3.58503369 152.946837,2.37051903 151.072948,1.61367479 C149.111436,0.80910379 147.019916,0.559800101 144.901027,0.498607378 C144.027469,0.466877817 132.121545,0.652722385 131.247988,0.498607378 C131.029028,0.466877817 130.873932,0.530336938 130.746206,0.716181506 C130.591109,0.942821223 130.433732,1.18079293 130.340218,1.42783022 C129.966162,2.26639717 129.966162,2.20293805 130.86937,2.3253235 C131.617482,2.44997534 132.333662,2.51116807 133.052123,2.72874219 C133.706721,2.94631632 134.174291,3.31800546 134.329387,4.02965417 C134.390969,4.36961375 134.454833,15.2709841 134.454833,20.3522466 L134.329387,23.9784821 C134.297455,24.2572489 134.267805,24.5360158 134.174291,24.7830531 C134.048845,25.1547422 133.832166,25.4629722 133.458111,25.62162 C133.046493,25.8140539 132.602653,25.9293061 132.148915,25.9615796 C131.305009,26.0522355 131.181844,26.0862314 130.901302,27.0154543 L130.810069,27.3554139 C130.748487,27.7588325 130.778137,27.8200253 131.184125,27.8200253 L140.503589,27.9106812 L144.152915,27.8494884 L146.677792,27.538992 C149.544793,27.0131879 152.101602,25.8346613 154.282074,23.9467525 C155.527697,22.8536373 156.54452,21.5275014 157.274521,20.0440166 C158.148078,18.3102227 158.522134,16.4177811 158.615648,14.5004091 C158.770744,13.4170713 158.706881,12.3020038 158.524414,11.1869364 L158.524414,11.18467 Z M154.003813,15.5814805 C153.878367,17.5645781 153.47466,19.4842165 152.446007,21.2180103 C151.136811,23.4798747 149.266532,25.0595535 146.680073,25.6148208 C145.557905,25.8414605 144.435738,25.9547804 143.25883,25.8006654 C142.414924,25.7100095 141.60751,25.6148208 140.827467,25.336054 C139.424758,24.8374466 138.925256,23.9762157 138.895605,22.6163774 L138.863674,3.94126468 C138.863674,2.82619727 139.365456,2.58142638 140.172869,2.54743042 C141.388551,2.45677453 142.636164,2.4862377 143.851846,2.60862314 C145.145994,2.7329933 146.416008,3.0381878 147.624336,3.51518201 C148.52199,3.886963 149.35369,4.3996605 150.08763,5.03366812 C151.770882,6.46149833 152.893049,8.2519521 153.508873,10.3597015 C154.010655,12.0640321 154.101888,13.797826 154.010655,15.5316198 L154.003813,15.5814805 Z M184.430063,18.6184528 C184.430063,18.4326082 184.430063,18.2784932 184.398132,18.0926486 C184.11759,16.3883179 183.212101,15.087406 181.811672,14.0969904 C180.908464,13.4465344 179.879811,13.0136526 178.819225,12.7031561 C178.632197,12.6419634 178.477101,12.5785043 178.290073,12.5490411 C178.322005,12.3949261 178.415519,12.3631966 178.509033,12.331467 C179.131699,12.0209706 179.724714,11.681011 180.253866,11.2163996 C181.220938,10.4118286 181.850446,9.41914664 182.185728,8.21115695 C182.372756,7.56070096 182.372756,6.91024497 182.311174,6.22805943 C182.208216,4.61149354 181.370508,3.12933954 180.034907,2.20067165 C178.597985,1.14679697 176.917014,0.713915109 175.172181,0.682185548 C171.805678,0.620992825 168.409525,0.682185548 165.045303,0.682185548 C164.078232,0.682185548 163.113441,0.743378272 162.114438,0.591529662 C161.92741,0.559800101 161.658273,0.500873775 161.521423,0.716181506 C161.29334,1.1196002 161.019641,1.5207525 160.928408,1.98536392 C160.896476,2.20293805 160.960339,2.3253235 161.208949,2.35705306 L163.359771,2.66754947 C164.203677,2.79220131 164.796692,3.25681273 164.855994,4.00019101 C164.917138,4.51393142 164.947602,5.03081978 164.947227,5.54814027 L164.885645,11.338785 L164.853713,22.7976891 C164.853713,23.4776083 164.76248,24.1303307 164.634754,24.8102498 C164.572035,25.2511688 164.255251,25.6147178 163.82506,25.7394727 C163.202393,25.9253172 162.609378,26.1111618 161.95478,26.1111618 C161.59447,26.0772036 161.258434,26.2954208 161.145086,26.6369659 C161.019641,26.9157328 160.917003,27.2262292 160.864544,27.5049961 C160.802962,27.8766852 160.896476,28.0036034 161.270532,27.9582755 C161.551074,27.9265459 171.83761,28.1758496 173.769471,27.9900051 C174.92357,27.8653532 176.0503,27.7112382 177.197556,27.3712786 C179.159069,26.7525522 180.970046,25.8527925 182.402407,24.3343064 C183.588437,23.0945872 184.272686,21.6078306 184.334268,19.8740368 C184.425501,19.4706181 184.425501,19.0694658 184.425501,18.6343175 L184.430063,18.6184528 Z M169.312733,5.9266286 L169.403966,3.44945649 C169.403966,2.98484507 169.590994,2.76953734 170.058564,2.67434866 C170.806675,2.52023365 171.554787,2.58369277 172.302899,2.61315594 C173.05101,2.67434866 173.76719,2.76727095 174.515302,2.98484507 C175.883799,3.38826377 176.946665,4.1633716 177.571612,5.46201718 C177.855136,6.0525092 178.003892,6.69794371 178.00725,7.35219242 C178.039182,8.22022254 177.975319,9.05652309 177.633195,9.89055725 C177.104042,11.0373542 176.264698,11.7807325 175.046735,11.9983066 C173.828773,12.2158808 170.371037,12.1229585 169.841885,12.1229585 C169.374315,12.1229585 169.340103,12.0617657 169.340103,11.5971543 L169.340103,8.68030116 C169.266807,7.77326712 169.256138,6.86230871 169.308171,5.95382537 L169.312733,5.9266286 Z M179.439611,22.5891806 C178.910458,23.9830149 177.943387,24.9462337 176.572609,25.467505 C175.824498,25.7462719 175.076386,25.9207844 174.291781,25.8709237 C173.32471,25.8391941 172.359919,25.8709237 171.395129,25.6850791 C170.085933,25.4063123 169.492918,24.166593 169.399404,23.2690998 C169.244308,21.6894209 169.337822,20.0780125 169.308171,18.9017524 L169.308171,14.8131719 C169.308171,14.3145645 169.369753,14.1627159 169.901186,14.1627159 L172.832051,14.1944455 L174.827776,14.4210852 C176.230485,14.7315816 177.507749,15.2596522 178.506752,16.3407236 C179.316446,17.2087537 179.754365,18.260362 179.847879,19.407159 C179.939112,20.4904968 179.879811,21.5443715 179.473823,22.5665166 L179.439611,22.5891806 Z" id="Shape" fill="#C2BFBF"></path>
                        <path d="M100.242407,13.2584234 L101.052101,13.3830753 C101.925658,13.4148049 102.954312,13.1043084 103.264505,11.8963187 C103.435583,11.319316 103.435583,10.7055317 103.264505,10.128529 C103.077477,10.128529 102.983963,10.282644 102.890449,10.3461031 C102.422879,10.7177922 101.893727,10.9353663 101.332643,10.9965591 C100.210475,11.1212109 99.0883079,11.0577518 97.9980719,10.6565995 L96.4699169,10.1307954 C95.404099,9.78396267 94.28248,9.63792181 93.1627158,9.70017989 C91.5729784,9.82483174 90.076755,10.3506359 88.6740455,11.0940142 C87.1778221,11.8985851 86.1195177,13.1065748 85.6177355,14.7497128 C85.3371936,15.7106652 85.305262,16.6988144 85.4307076,17.6914963 C85.7431811,19.9533607 86.926931,21.5330395 89.0458205,22.3693401 C89.1712661,22.4010696 89.2647801,22.459996 89.3879448,22.4939919 C89.6684867,22.6481069 89.7004183,22.8044883 89.4495272,23.0197961 L88.6694839,23.5456002 L86.7992046,24.6923972 C86.3316348,24.971164 86.2700524,25.1910046 86.4251487,25.6828127 C86.6106591,26.2613964 86.9560211,26.7765544 87.4218707,27.1695693 C87.8495884,27.5342499 88.334121,27.8274166 88.8565118,28.0375994 C89.198636,28.1917144 89.198636,28.2642391 88.8884434,28.5362068 L87.1093973,29.8053892 C86.5163819,30.2586686 85.9233665,30.7119481 85.4261459,31.2921457 C84.723859,32.0388827 84.4431838,33.0847552 84.6780342,34.0798143 C84.9098382,35.154959 85.4764203,36.1302923 86.2974224,36.8674828 C87.1080075,37.6132693 88.0936637,38.1454441 89.1644236,38.415432 C90.9092573,38.9140394 92.7179542,38.9412362 94.4947195,38.6012766 C97.0492473,38.1366652 99.2844591,37.0147986 101.040697,35.1019594 C102.256378,33.832777 102.972559,32.3460204 103.036422,30.569165 C103.176945,28.4470582 101.753236,26.5349121 99.6699191,26.0477027 L97.9866678,25.7372063 L92.8433998,25.2839268 C92.282316,25.2521973 91.7212322,25.159275 91.2536624,24.8805081 C90.660647,24.508819 90.5055507,23.7971703 90.8796066,23.3325589 C91.1601484,22.9925993 91.5022727,22.7750252 91.9401917,22.7432956 L92.9369137,22.6526397 C94.9080484,22.4533786 96.7585595,21.6156046 98.2033465,20.2683899 C98.9748224,19.5588725 99.5263576,18.6452011 99.7930838,17.6348364 C100.16714,16.3021948 100.16714,14.9151598 99.8546662,13.5553215 C99.7634331,13.2153619 99.7930838,13.1836323 100.228722,13.2448251 L100.242407,13.2584234 Z M92.601632,28.685789 C92.7886599,28.7175186 92.9756878,28.685789 93.1627158,28.685789 C94.4719112,28.7469817 95.8130383,28.839904 97.0903022,29.1843964 C97.5073335,29.3068531 97.9138536,29.4622177 98.3059837,29.6490078 C99.5535969,30.3289269 100.021167,31.5074535 99.8637895,32.7766359 C99.6767616,34.1704701 98.8967183,35.1608857 97.6810368,35.8136081 C96.8713427,36.2668875 95.9658538,36.4640641 95.0307142,36.5569864 C94.6885899,36.5887159 94.3761165,36.5569864 94.0339922,36.5569864 C92.9437562,36.5887159 91.883171,36.4663305 90.8545174,36.0311822 C90.1383373,35.7524154 89.545322,35.3512631 89.0161698,34.791463 C87.9259338,33.7081251 87.4195899,31.7250276 89.0481014,30.1136192 C90.0448234,29.2070603 91.1692718,28.5656699 92.601632,28.685789 L92.601632,28.685789 Z M96.1551626,19.0218715 C95.5005648,20.662743 94.0659238,21.159084 92.6335636,20.9415099 C91.3243681,20.7556653 90.3572969,20.0440166 89.7369115,18.86549 C88.9272175,17.2858112 88.7105388,15.6472061 89.1758278,13.940609 C89.517952,12.6714266 90.2979953,11.7104742 91.6687732,11.4929001 C93.4136069,11.1824036 95.0900157,11.8033965 95.9704155,13.5371903 C96.4265812,14.3757573 96.6250132,15.395636 96.6250132,16.850663 C96.5930816,17.4399262 96.4699169,18.2444972 96.1574434,19.0196051 L96.1551626,19.0218715 Z M56.8838596,16.9141221 C56.6033178,15.241521 55.9806516,13.7230349 54.8265525,12.4538525 C53.1113695,10.5636772 50.9308976,9.73417585 48.4676029,9.72737666 C46.3167818,9.6956471 44.293687,10.3166399 42.4827093,11.4317073 C40.7023529,12.4903647 39.3973749,14.186077 38.8356647,16.1707438 C38.3065125,17.9679968 38.3338825,19.7969793 38.7444316,21.621429 C39.8346675,26.5168469 43.6390893,28.6200635 48.1870611,28.3118335 C49.5281881,28.2211776 50.805452,27.7860293 52.0188527,27.196766 C53.8275496,26.3581991 55.1367451,25.027824 56.0399531,23.2623006 C56.7561333,21.8072736 57.0663259,20.2570579 57.0366751,18.4915345 L56.8815788,16.9118557 L56.8838596,16.9141221 Z M52.4590526,23.7903711 C52.0035329,25.2143884 50.7431008,26.2355679 49.2476462,26.3921951 C47.8791492,26.5780396 46.5973237,26.23808 45.4455053,25.4312427 C44.6139773,24.8234384 43.9406774,24.0269624 43.4817121,23.1081856 C42.2044482,20.5063616 41.9854887,17.7821522 42.6378056,14.9944837 C42.8478091,14.131741 43.3021265,13.3468282 43.9470011,12.7326193 C45.1011003,11.6787446 46.4399465,11.4317073 47.9384508,11.7422037 C49.3753726,12.0527002 50.4633278,12.8255416 51.3596933,14.0040681 C52.2560589,15.1825946 52.6688888,16.5424329 52.9174991,17.9702632 C53.0429447,18.6819119 53.0429447,19.4252902 53.0725954,19.8899016 C53.0725954,21.3766581 52.9471499,22.6095782 52.4795801,23.7926375 L52.4590526,23.7903711 Z M124.989395,17.1634258 C124.761312,15.3661728 124.086187,13.7253013 122.806642,12.3631966 C121.123391,10.5364804 118.940638,9.76137261 116.511556,9.72964305 C114.422317,9.69791349 112.490455,10.2871768 110.71369,11.3093219 C108.717965,12.4878484 107.347187,14.1581831 106.818035,16.4200475 C106.186116,18.8877028 106.45105,21.4978068 107.566147,23.7903711 C108.59252,25.9593132 110.339634,27.3531475 112.647833,27.9718739 C115.20236,28.651793 117.636004,28.343563 120.003504,27.196766 C122.060811,26.2063505 123.525103,24.6584012 124.366729,22.5506518 C124.868511,21.3109326 125.050977,19.9805575 125.082909,18.4303418 C125.11484,18.1515749 125.050977,17.655234 124.991676,17.1611594 L124.989395,17.1634258 Z M120.687753,23.3892188 C120.18597,25.0618199 119.129947,26.1451578 117.353181,26.3944615 C116.043986,26.580306 114.798654,26.2698096 113.674205,25.5264313 C112.707134,24.8759753 112.022886,24.0079452 111.523384,22.9880665 C110.9623,21.9047287 110.649827,20.7579317 110.526662,19.5816716 C110.339634,18.1266446 110.339634,16.7033471 110.681758,15.2460538 C110.746989,14.958693 110.840971,14.6785328 110.9623,14.4097532 C111.835858,12.2408111 113.767719,11.2503956 116.043986,11.7467365 C117.572141,12.0866961 118.723959,12.9252631 119.597517,14.1944455 C120.441423,15.4341647 120.84513,16.7962694 121.034438,18.2739604 C121.125672,18.8632237 121.159884,19.4819501 121.125672,20.0077542 C121.125672,21.2157439 121.034438,22.3308113 120.669506,23.4141492 L120.687753,23.3892188 Z" id="Shape" fill="#47474A"></path>
                    </g>
                </g>
            </g>
        </g>
    </g>
</svg>