<?xml version="1.0" encoding="UTF-8"?>
<svg width="298px" height="298px" viewBox="0 0 298 298" version="1.1" xmlns="http://www.w3.org/2000/svg" xmlns:xlink="http://www.w3.org/1999/xlink">
    <!-- Generator: Sketch 55.2 (78181) - https://sketchapp.com -->
    <title>iconfinder_mysql_1322469</title>
    <desc>Created with Sketch.</desc>
    <g id="Page-1" stroke="none" stroke-width="1" fill="none" fill-rule="evenodd">
        <g id="deviun.me/code" transform="translate(-524.000000, -3391.000000)" fill-rule="nonzero">
            <g id="Skills" transform="translate(159.000000, 3311.000000)">
                <g id="iconfinder_mysql_1322469" transform="translate(365.000000, 80.000000)">
                    <path d="M297.630273,148.852109 C290.827295,192.110174 277.591067,204.754839 254.150372,233.815385 C230.709677,258.439206 196.990571,299.552854 149.221836,297.260546 C105.963772,290.457568 93.3191067,277.22134 64.2585608,253.780645 C39.6347395,230.33995 -1.47890819,196.620844 0.813399504,148.852109 C7.61637717,105.594045 20.8526055,92.9493797 44.2933002,63.8888337 C67.733995,39.2650124 101.453102,-1.84863524 149.221836,0.443672457 C192.479901,7.24665012 205.124566,20.4828784 234.185112,43.9235732 C258.808933,67.364268 299.922581,101.083375 297.630273,148.852109 Z" id="Path" fill="#3765AF"></path>
                    <g id="Group" transform="translate(42.888337, 78.382134)" fill="#FFFFFF">
                        <path d="M46.0679901,68.1776675 C40.7439206,66.6248139 37.1205955,67.9558313 35.5677419,71.5791563 L24.919603,95.537469 L14.4933002,71.5791563 C12.9404467,67.9558313 9.31712159,66.6248139 3.99305211,68.1776675 C1.70074442,68.9171216 0.591563275,70.1002481 0.591563275,72.9101737 L0.591563275,100.713648 L7.61637717,100.713648 L7.61637717,72.9101737 L18.6342432,97.0903226 C19.8173697,99.9741935 21.666005,101.083375 25.1414392,101.083375 C28.6168734,101.083375 30.2436725,99.9741935 31.5746898,97.0903226 L42.444665,72.9101737 L42.444665,100.713648 L49.4694789,100.713648 L49.4694789,72.9101737 C49.4694789,70.248139 48.3602978,68.9171216 46.0679901,68.1776675 Z" id="Path"></path>
                        <path d="M81.8575682,96.2029777 C81.7096774,96.2029777 68.5473945,96.2029777 66.4769231,96.2029777 C62.5578164,96.1290323 62.3359801,94.1325062 62.3359801,93.3191067 L62.3359801,78.0863524 L55.3111663,78.0863524 C55.5330025,78.1602978 55.3111663,93.3930521 55.3851117,93.7627792 C55.3851117,97.2382134 59.8218362,100.417866 66.8466501,100.417866 L81.8575682,100.417866 L81.8575682,102.266501 C81.8575682,102.93201 82.3751861,105.224318 77.8645161,105.741935 L55.6069479,105.741935 L55.6069479,110.474442 L77.7166253,110.474442 C81.266005,110.474442 88.8823821,109.143424 88.8823821,103.005955 C88.8823821,102.858065 88.8823821,77.9384615 88.8823821,77.9384615 L81.8575682,77.9384615 L81.8575682,96.2029777 Z" id="Path"></path>
                        <path d="M212.371216,76.0898263 C211.853598,75.5722084 211.262035,75.128536 210.818362,74.5369727 C209.265509,72.4665012 207.342928,70.5439206 205.272457,69.0650124 C203.571712,67.8818859 199.726551,66.2550868 199.134988,64.2585608 C199.134988,64.2585608 199.134988,64.2585608 198.987097,64.11067 C200.170223,63.9627792 201.501241,63.5930521 202.758313,63.2972705 C204.606948,62.7796526 206.233747,62.9275434 208.230273,62.483871 C209.043672,62.2620347 209.931017,61.9662531 210.744417,61.7444169 C210.744417,61.5965261 210.744417,61.3746898 210.744417,61.226799 C209.783127,60.2655087 209.043672,58.9344913 208.082382,58.0471464 C205.272457,55.6069479 202.240695,53.3146402 199.134988,51.3920596 C197.434243,50.2828784 195.289826,49.5434243 193.589082,48.7300248 C192.997519,48.3602978 191.888337,48.2124069 191.51861,47.7687345 C190.55732,46.5856079 189.965757,44.9588089 189.374194,43.6277916 C187.82134,40.5960298 186.342432,37.3424318 184.863524,34.1627792 C183.902233,32.0923077 183.31067,29.9478908 182.053598,28.0253102 C176.507692,18.8560794 170.444169,13.2362283 161.127047,7.8382134 C159.056576,6.72903226 156.764268,6.2853598 154.250124,5.69379653 C152.919107,5.69379653 151.588089,5.54590571 150.257072,5.4719603 C149.443672,5.10223325 148.556328,3.99305211 147.742928,3.54937965 C144.711166,1.62679901 136.725062,-2.58808933 134.432754,2.95781638 C132.953846,6.43325062 136.577171,9.98263027 137.834243,11.6833747 C138.795533,12.8665012 139.904715,14.3454094 140.644169,15.6764268 C141.013896,16.6377171 141.161787,17.5990074 141.457568,18.5602978 C142.270968,21.0004963 143.158313,23.5146402 144.267494,25.8069479 C144.859057,26.916129 145.45062,28.0992556 146.337965,29.2084367 C146.855583,29.8 147.521092,30.0218362 147.668983,31.057072 C146.929529,32.1662531 146.855583,33.7191067 146.485856,35.0501241 C144.563275,41.1136476 145.30273,48.7300248 148.03871,53.1667494 C148.852109,54.4977667 150.922581,57.5295285 153.732506,56.346402 C156.172705,55.3851117 155.655087,52.3533499 156.24665,49.5434243 C156.394541,48.951861 156.24665,48.4342432 156.616377,48.0645161 L156.616377,48.2124069 C157.355831,49.6913151 158.095285,51.2441687 158.760794,52.7230769 C160.461538,55.3851117 163.345409,58.1950372 165.785608,59.969727 C167.116625,60.9310174 168.077916,62.6317618 169.77866,63.2233251 L169.77866,63.0754342 C169.77866,63.0754342 169.77866,63.0754342 169.630769,63.0754342 C169.261042,62.5578164 168.81737,62.3359801 168.447643,61.9662531 C167.486352,61.0049628 166.377171,59.8218362 165.637717,58.7126551 C163.345409,55.6808933 161.422829,52.2794045 159.574194,48.8779156 C158.760794,47.1771712 158.02134,45.4024814 157.281886,43.701737 C156.912159,43.1101737 156.912159,42.1488834 156.468486,41.7791563 C155.655087,42.9622829 154.398015,43.9235732 153.954342,45.4024814 C152.993052,47.6947891 152.845161,50.57866 152.475434,53.5364764 C152.253598,53.5364764 152.327543,53.5364764 152.253598,53.6843672 C150.552854,53.1667494 149.96129,51.5399504 149.221836,49.9131514 C147.668983,46.0679901 147.299256,39.8565757 148.704218,35.4937965 C149.073945,34.3846154 150.77469,30.7612903 150.035236,29.6521092 C149.665509,28.6908189 148.556328,28.0992556 147.964764,27.2119107 C147.22531,26.2506203 146.485856,24.919603 146.042184,23.7364764 C144.711166,20.7047146 144.119603,17.3032258 142.640695,14.271464 C142.049132,12.7925558 140.79206,11.3875931 139.97866,10.1305211 C139.01737,8.6516129 137.834243,7.61637717 136.946898,5.91563275 C136.725062,5.32406948 136.355335,4.36277916 136.725062,3.77121588 C136.872953,3.25359801 137.094789,3.17965261 137.464516,3.03176179 C138.20397,2.44019851 140.126551,3.17965261 140.866005,3.54937965 C142.936476,4.36277916 144.48933,5.10223325 146.190074,6.21141439 C146.929529,6.72903226 147.742928,7.76426799 148.704218,8.06004963 C149.073945,8.06004963 149.443672,8.06004963 149.8134,8.06004963 C151.514144,8.42977667 153.436725,8.20794045 155.137469,8.6516129 C158.02134,9.61290323 160.609429,10.9439206 162.901737,12.4228288 C169.926551,16.9334988 175.842184,23.292804 179.687345,30.9091811 C180.278908,32.0923077 180.648635,33.3493797 181.166253,34.5325062 C182.275434,37.1945409 183.680397,39.8565757 184.789578,42.5186104 C185.898759,45.0327543 186.933995,47.6208437 188.634739,49.7652605 C189.448139,50.8744417 192.627792,51.466005 194.180645,52.0575682 C195.289826,52.5751861 196.990571,53.0188586 197.951861,53.5364764 C199.800496,54.6456576 201.575186,55.9766749 203.423821,57.1598015 C204.08933,57.8253102 206.899256,59.1563275 207.047146,60.2655087 C202.684367,60.1176179 199.430769,60.6352357 196.546898,61.7444169 C195.733499,62.1141439 194.476427,62.1141439 194.402481,63.0754342 C194.920099,63.5930521 194.920099,64.1846154 195.215881,64.7761787 C195.807444,65.8853598 197.064516,67.2903226 198.025806,68.0297767 C199.134988,68.8431762 200.318114,69.7305211 201.501241,70.5439206 C203.571712,71.874938 206.011911,72.6143921 208.008437,73.9454094 C209.191563,74.6848635 210.448635,75.6461538 211.483871,76.4595533 C212.075434,76.9771712 212.445161,77.5687345 213.184615,77.9384615 L213.184615,77.7905707 C212.814888,77.2729529 212.666998,76.6074442 212.371216,76.0898263 Z" id="Path"></path>
                        <path d="M149.8134,13.6799007 C149.8134,13.6799007 149.8134,13.6799007 149.8134,13.8277916 C149.8134,13.8277916 149.8134,13.8277916 149.96129,13.8277916 C150.478908,14.6411911 151.144417,15.3066998 151.662035,15.9722084 C152.179653,16.7856079 152.475434,17.6729529 152.845161,18.4863524 L152.993052,18.3384615 C153.732506,17.8208437 154.102233,16.8595533 154.102233,15.6764268 C153.732506,15.3066998 153.732506,14.9369727 153.51067,14.5672457 C153.066998,14.0496278 152.327543,13.8277916 151.957816,13.4580645 C150.996526,13.4580645 150.404963,13.6059553 149.8134,13.6799007 Z" id="Path"></path>
                        <path d="M100.417866,68.8431762 C96.2769231,70.1741935 94.3543424,72.244665 94.3543424,75.8679901 L94.3543424,79.7131514 C94.3543424,82.892804 97.8297767,85.6287841 103.8933,86.2203474 C104.484864,86.2203474 105.224318,86.2203474 105.963772,86.2203474 L113.210422,86.2203474 C113.432258,86.2203474 113.72804,86.2203474 113.949876,86.2203474 C116.094293,86.4421836 117.129529,86.8119107 117.795037,87.6992556 C118.312655,88.2168734 118.312655,88.5126551 118.312655,89.030273 L118.312655,93.1712159 C118.312655,93.6888337 117.942928,94.280397 117.351365,94.8719603 C116.759801,95.4635236 115.65062,95.8332506 114.319603,95.8332506 C114.097767,95.8332506 113.801985,95.8332506 113.580149,95.8332506 L94.2064516,95.8332506 L94.2064516,100.713648 L94.280397,100.713648 L114.615385,100.713648 C117.055583,100.713648 119.2,100.19603 121.122581,99.3826303 C124.154342,97.9037221 125.633251,96.1290323 125.633251,93.5409429 L125.633251,88.3647643 C125.633251,86.2942928 123.932506,84.519603 120.678908,83.1885856 C118.978164,82.5970223 116.833747,82.2272953 114.615385,82.2272953 L106.111663,82.2272953 C103.227792,82.2272953 101.896774,81.4138958 101.527047,79.4173697 C101.527047,79.1955335 101.527047,78.8997519 101.527047,78.8258065 L101.527047,75.6461538 C101.527047,75.498263 101.527047,75.2764268 101.527047,75.0545906 C101.896774,73.5756824 102.636228,73.2059553 105.150372,72.9841191 C105.372208,72.9841191 105.66799,72.9841191 105.741935,72.9841191 L125.855087,72.9841191 L125.855087,68.2516129 L106.111663,68.2516129 C103.227792,68.2516129 101.748883,68.3995037 100.417866,68.8431762 Z" id="Path"></path>
                        <path d="M176.655583,92.3578164 L176.655583,68.1776675 L169.630769,68.1776675 L169.482878,92.4317618 C169.482878,97.2382134 173.106203,99.9002481 180.352854,100.417866 C181.092308,100.417866 181.683871,100.565757 182.423325,100.565757 L200.835732,100.565757 L200.835732,95.8332506 L182.34938,95.8332506 C178.208437,95.8332506 176.655583,94.8719603 176.655583,92.3578164 Z" id="Path"></path>
                        <path d="M165.26799,92.7275434 L165.26799,76.0158809 C165.26799,71.8009926 162.384119,69.2129032 156.468486,68.3995037 C155.729032,68.2516129 155.137469,68.2516129 154.398015,68.2516129 L140.93995,68.2516129 C140.348387,68.2516129 139.608933,68.3995037 139.01737,68.3995037 C133.101737,69.1389578 130.069975,71.8009926 130.069975,76.0158809 L130.069975,92.7275434 C130.069975,96.5727047 132.214392,99.0129032 137.020844,100.269975 C138.499752,100.639702 139.97866,100.787593 141.161787,100.787593 L148.630273,100.787593 L154.324069,100.417866 L159.869975,105.520099 L168.00397,105.520099 L161.127047,99.2347395 C164.084864,98.0516129 165.26799,96.2029777 165.26799,92.7275434 Z M158.465012,76.3856079 L158.465012,92.3578164 C158.465012,92.5796526 158.465012,92.8754342 158.465012,93.0972705 C158.169231,94.0585608 157.577667,94.8719603 156.616377,95.3895782 L151.514144,90.8049628 L143.380149,90.8049628 L149.221836,96.1290323 L142.788586,96.1290323 C139.97866,96.1290323 138.20397,95.0198511 137.834243,93.0972705 C137.834243,92.8754342 137.686352,92.5796526 137.686352,92.3578164 L137.686352,76.3856079 C137.686352,74.2411911 139.682878,72.9101737 142.862531,72.9101737 L153.51067,72.9101737 C156.320596,72.9101737 158.095285,73.9454094 158.465012,75.7940447 C158.465012,75.8679901 158.465012,76.1637717 158.465012,76.3856079 Z" id="Shape"></path>
                        <polygon id="Path" points="210.152854 99.2347395 208.821836 95.9811414 207.342928 95.9811414 207.342928 100.713648 208.304218 100.713648 208.304218 97.0903226 209.635236 100.713648 210.37469 100.713648 211.705707 97.0903226 211.853598 100.713648 212.814888 100.713648 212.814888 95.9811414 211.33598 95.9811414"></polygon>
                        <polygon id="Path" points="202.536476 96.7205955 204.015385 96.7205955 204.015385 100.713648 204.015385 100.713648 204.976675 100.713648 204.976675 96.7205955 206.307692 96.7205955 206.307692 95.907196 202.536476 95.907196"></polygon>
                    </g>
                </g>
            </g>
        </g>
    </g>
</svg>