<?xml version="1.0" encoding="UTF-8"?>
<svg width="216px" height="130px" viewBox="0 0 216 130" version="1.1" xmlns="http://www.w3.org/2000/svg" xmlns:xlink="http://www.w3.org/1999/xlink">
    <!-- Generator: Sketch 55.2 (78181) - https://sketchapp.com -->
    <title>next</title>
    <desc>Created with Sketch.</desc>
    <g id="Page-1" stroke="none" stroke-width="1" fill="none" fill-rule="evenodd">
        <g id="deviun.me/code" transform="translate(-1028.000000, -3938.000000)" fill="#000000" fill-rule="nonzero">
            <g id="Skills" transform="translate(159.000000, 3311.000000)">
                <g id="next" transform="translate(869.000000, 627.000000)">
                    <path d="M51.0694054,34.1982778 L91.7226486,34.1982778 L91.7226486,37.4281556 L54.7968649,37.4281556 L54.7968649,61.7344778 L89.5203243,61.7344778 L89.5203243,64.9643556 L54.7968649,64.9643556 L54.7968649,91.6505111 L92.1458919,91.6505111 L92.1458919,94.8803889 L51.0694054,94.8803889 L51.0694054,34.1982778 Z M95.364,34.1982778 L99.684,34.1982778 L118.824811,60.8844333 L138.388865,34.1982778 L164.999189,0.3013 L121.281081,63.6892889 L143.809297,94.8803889 L139.32,94.8803889 L118.824811,66.4941444 L98.244973,94.8803889 L93.8403243,94.8803889 L116.537838,63.6892889 L95.3654595,34.1982778 L95.364,34.1982778 Z M145.419081,37.4281556 L145.419081,34.1982778 L191.745243,34.1982778 L191.745243,37.4281556 L170.403568,37.4281556 L170.403568,94.8789333 L166.676108,94.8789333 L166.676108,37.4281556 L145.420541,37.4281556 L145.419081,37.4281556 Z M0.211621622,34.1982778 L4.87021622,34.1982778 L69.1024865,130.269311 L42.5578378,94.8803889 L4.10691892,38.7876444 L3.93762162,94.8803889 L0.211621622,94.8803889 L0.211621622,34.1982778 Z M191.371622,90.6752889 C190.608324,90.6752889 190.037676,90.0857889 190.037676,89.3245333 C190.037676,88.5618222 190.608324,87.9723222 191.370162,87.9723222 C192.140757,87.9723222 192.702649,88.5618222 192.702649,89.3245333 C192.702649,90.0857889 192.140757,90.6752889 191.370162,90.6752889 L191.371622,90.6752889 Z M195.031946,87.1193667 L197.027027,87.1193667 C197.054757,88.1993889 197.844324,88.9242556 199.003135,88.9242556 C200.299135,88.9242556 201.033243,88.1455333 201.033243,86.6841556 L201.033243,77.4326444 L203.063351,77.4326444 L203.063351,86.6928889 C203.063351,89.3245333 201.541135,90.8397667 199.020649,90.8397667 C196.656324,90.8397667 195.033405,89.3696556 195.033405,87.1193667 L195.031946,87.1193667 Z M205.718108,87.0029222 L207.730703,87.0029222 C207.902919,88.2445111 209.117189,89.0334222 210.867081,89.0334222 C212.497297,89.0334222 213.694054,88.1892 213.694054,87.0291222 C213.694054,86.0320667 212.933676,85.4323778 211.201297,85.0248222 L209.515622,84.6172667 C207.151297,84.0641556 206.071297,82.9200889 206.071297,80.9973 C206.071297,78.6655 207.974432,77.1138778 210.829135,77.1138778 C213.485351,77.1138778 215.426432,78.6655 215.543189,80.8692111 L213.567081,80.8692111 C213.377351,79.6640111 212.326541,78.9100333 210.802865,78.9100333 C209.197459,78.9100333 208.129135,79.6814778 208.129135,80.8604778 C208.129135,81.7949444 208.818,82.3305889 210.522649,82.7294111 L211.963135,83.0831111 C214.645622,83.709 215.751892,84.7977556 215.751892,86.7656667 C215.751892,89.2692222 213.810811,90.8397667 210.712378,90.8397667 C207.812432,90.8397667 205.862595,89.342 205.718108,87.0014667 L205.718108,87.0029222 Z" id="Shape"></path>
                </g>
            </g>
        </g>
    </g>
</svg>