<?xml version="1.0" encoding="UTF-8"?>
<svg width="330px" height="90px" viewBox="0 0 330 90" version="1.1" xmlns="http://www.w3.org/2000/svg" xmlns:xlink="http://www.w3.org/1999/xlink">
    <!-- Generator: Sketch 55.2 (78181) - https://sketchapp.com -->
    <title>iconfinder_node_3069651</title>
    <desc>Created with Sketch.</desc>
    <g id="Page-1" stroke="none" stroke-width="1" fill="none" fill-rule="evenodd">
        <g id="deviun.me/code" transform="translate(-194.000000, -3311.000000)" fill-rule="nonzero">
            <g id="Skills" transform="translate(159.000000, 3311.000000)">
                <g id="iconfinder_node_3069651" transform="translate(35.000000, 0.000000)">
                    <g id="logo">
                        <path d="M49.808225,47.8469388 C49.808225,46.8367347 49.2584701,46.0102041 48.4338376,45.5510204 L26.2603878,32.7857143 C25.8938845,32.6020408 25.4357554,32.4183673 25.0692521,32.4183673 C25.0692521,32.4183673 24.8860004,32.4183673 24.7943746,32.4183673 C24.3362455,32.4183673 23.9697422,32.5102041 23.6032389,32.7857143 L1.42978905,45.5510204 C0.605156616,46.0102041 0.055401662,46.9285714 0.055401662,47.8469388 L0.147027488,82.1938776 C0.147027488,82.6530612 0.421904965,83.1122449 0.788408268,83.3877551 C1.15491157,83.6632653 1.70466652,83.6632653 2.07116983,83.3877551 L15.2652887,75.8571429 C16.0899212,75.3979592 16.6396761,74.4795918 16.6396761,73.5612245 L16.6396761,57.4897959 C16.6396761,56.5714286 17.1894311,55.6530612 18.0140635,55.1938776 L23.6032389,51.9795918 C24.061368,51.7040816 24.5194971,51.6122449 24.9776263,51.6122449 C25.4357554,51.6122449 25.8938845,51.7040816 26.3520136,51.9795918 L31.941189,55.1938776 C32.7658214,55.6530612 33.3155764,56.5714286 33.3155764,57.4897959 L33.3155764,73.4693878 C33.3155764,74.3877551 33.8653313,75.3061224 34.6899638,75.7653061 L47.8840827,83.2959184 C48.250586,83.5714286 48.8003409,83.5714286 49.2584701,83.2959184 C49.6249734,83.0204082 49.8998508,82.6530612 49.8998508,82.1020408 L49.808225,47.8469388 Z" id="Path" fill="#314C35"></path>
                        <path d="M168.00554,0.551020408 C167.547411,0.275510204 167.089282,0.367346939 166.631153,0.551020408 C166.264649,0.826530612 165.989772,1.19387755 165.989772,1.74489796 L165.989772,35.8163265 C165.989772,36.1836735 165.80652,36.4591837 165.531643,36.6428571 C165.256765,36.8265306 164.890262,36.8265306 164.615385,36.6428571 L159.026209,33.4285714 C158.201577,32.9693878 157.193693,32.9693878 156.36906,33.4285714 L134.19561,46.2857143 C133.370978,46.744898 132.821223,47.6632653 132.821223,48.5816327 L132.821223,74.2040816 C132.821223,75.122449 133.370978,76.0408163 134.19561,76.5 L156.36906,89.3571429 C157.193693,89.8163265 158.201577,89.8163265 159.026209,89.3571429 L181.199659,76.5 C182.024291,76.0408163 182.574046,75.122449 182.574046,74.2040816 L182.574046,10.2857143 C182.574046,9.2755102 182.024291,8.44897959 181.199659,7.98979592 L168.00554,0.551020408 Z M165.989772,65.755102 C165.989772,66.0306122 165.898146,66.2142857 165.623269,66.3061224 L158.018325,70.7142857 C157.835074,70.8061224 157.560196,70.8061224 157.376944,70.7142857 L149.772001,66.3061224 C149.588749,66.2142857 149.405498,65.9387755 149.405498,65.755102 L149.405498,56.9387755 C149.405498,56.6632653 149.497123,56.4795918 149.772001,56.3877551 L157.376944,51.9795918 C157.560196,51.8877551 157.835074,51.8877551 158.018325,51.9795918 L165.623269,56.3877551 C165.80652,56.4795918 165.989772,56.755102 165.989772,56.9387755 L165.989772,65.755102 L165.989772,65.755102 Z" id="Shape" fill="#314C35"></path>
                        <path d="M247.261879,56.6632653 C248.086512,56.2040816 248.636267,55.2857143 248.636267,54.3673469 L248.636267,48.122449 C248.636267,47.2040816 248.086512,46.2857143 247.261879,45.8265306 L225.271681,33.0612245 C224.447049,32.6020408 223.439165,32.6020408 222.614532,33.0612245 L200.441082,45.9183673 C199.61645,46.377551 199.066695,47.2959184 199.066695,48.2142857 L199.066695,73.8367347 C199.066695,74.755102 199.61645,75.6734694 200.441082,76.1326531 L222.431281,88.7142857 C223.255913,89.1734694 224.263797,89.1734694 225.08843,88.7142857 L238.374174,81.2755102 C238.832303,81 239.015555,80.6326531 239.107181,80.0816327 C239.107181,79.622449 238.832303,79.1632653 238.4658,78.8877551 L216.200724,66.0306122 C215.742595,65.755102 215.559344,65.3877551 215.559344,64.8367347 L215.559344,56.9387755 C215.559344,56.4795918 215.834221,56.0204082 216.200724,55.744898 L223.164287,51.7040816 C223.530791,51.4285714 224.080545,51.4285714 224.538675,51.7040816 L231.502237,55.744898 C231.960367,56.0204082 232.143618,56.3877551 232.143618,56.9387755 L232.143618,63.2755102 C232.143618,63.7346939 232.418496,64.1938776 232.784999,64.4693878 C233.243128,64.744898 233.701257,64.744898 234.159386,64.4693878 L247.261879,56.6632653 Z" id="Path" fill="#314C35"></path>
                        <path d="M90.0319625,32.877551 C90.8565949,32.4183673 91.864479,32.4183673 92.6891114,32.877551 L114.862561,45.6428571 C115.687194,46.1020408 116.236949,47.0204082 116.236949,47.9387755 L116.236949,73.5612245 C116.236949,74.4795918 115.687194,75.3979592 114.862561,75.8571429 L92.6891114,88.7142857 C91.864479,89.1734694 90.8565949,89.1734694 90.0319625,88.7142857 L67.8585127,75.8571429 C67.0338802,75.3979592 66.4841253,74.4795918 66.4841253,73.5612245 L66.4841253,47.9387755 C66.4841253,47.0204082 67.0338802,46.1020408 67.8585127,45.6428571 L90.0319625,32.877551 Z" id="Path" fill="#6FA159"></path>
                        <path d="M290.234392,89.1734694 C289.501385,89.1734694 288.676753,88.9897959 288.035372,88.622449 L281.071809,84.4897959 C280.063925,83.9387755 280.522054,83.6632653 280.888557,83.5714286 C282.262945,83.1122449 282.537822,83.0204082 284.003835,82.1020408 C284.187087,82.0102041 284.370339,82.0102041 284.55359,82.1020408 L289.867888,85.3163265 C290.05114,85.4081633 290.326017,85.4081633 290.509269,85.3163265 L311.399957,73.1938776 C311.583209,73.1020408 311.674835,72.8265306 311.674835,72.6428571 L311.674835,48.4897959 C311.674835,48.2142857 311.583209,48.0306122 311.308332,47.9387755 L290.600895,35.9081633 C290.417643,35.8163265 290.142766,35.8163265 289.959514,35.9081633 L269.068826,47.9387755 C268.885574,48.0306122 268.702323,48.3061224 268.702323,48.4897959 L268.702323,72.6428571 C268.702323,72.9183673 268.793948,73.1020408 269.068826,73.1938776 L274.749627,76.5 C277.864905,78.0612245 279.789048,76.2244898 279.789048,74.3877551 L279.789048,50.5102041 C279.789048,50.1428571 280.063925,49.8673469 280.430428,49.8673469 L283.087577,49.8673469 C283.454081,49.8673469 283.728958,50.1428571 283.728958,50.5102041 L283.728958,74.3877551 C283.728958,78.5204082 281.438312,80.9081633 277.590028,80.9081633 C276.398892,80.9081633 275.391008,80.9081633 272.733859,79.622449 L267.236309,76.5 C265.861922,75.6734694 265.03729,74.2959184 265.03729,72.6428571 L265.03729,48.4897959 C265.03729,46.9285714 265.861922,45.4591837 267.236309,44.6326531 L288.126998,32.5102041 C289.409759,31.7755102 291.242276,31.7755102 292.525037,32.5102041 L313.415726,44.6326531 C314.790113,45.4591837 315.614745,46.8367347 315.614745,48.4897959 L315.614745,72.6428571 C315.614745,74.2040816 314.790113,75.6734694 313.415726,76.5 L292.433411,88.622449 C291.792031,88.9897959 291.059024,89.1734694 290.234392,89.1734694 Z" id="Path" fill="#6FA159"></path>
                        <path d="M296.739825,72.5510204 C287.577243,72.5510204 285.6531,68.3265306 285.6531,64.8367347 C285.6531,64.4693878 285.927978,64.1938776 286.294481,64.1938776 L288.95163,64.1938776 C289.226508,64.1938776 289.501385,64.377551 289.593011,64.744898 C289.959514,67.5 291.242276,68.877551 296.739825,68.877551 C301.137865,68.877551 302.970381,67.8673469 302.970381,65.5714286 C302.970381,64.1938776 302.420626,63.1836735 295.640315,62.5408163 C289.959514,61.9897959 286.386107,60.7040816 286.386107,56.1122449 C286.386107,51.8877551 289.959514,49.4081633 295.915193,49.4081633 C302.603878,49.4081633 305.902408,51.7040816 306.360537,56.755102 C306.360537,56.9387755 306.360537,57.122449 306.177285,57.2142857 C306.085659,57.3061224 305.902408,57.3979592 305.719156,57.3979592 L302.970381,57.3979592 C302.695504,57.3979592 302.420626,57.2142857 302.420626,56.9387755 C301.779246,54 300.221607,53.0816327 295.915193,53.0816327 C291.15065,53.0816327 290.509269,54.7346939 290.509269,56.0204082 C290.509269,57.5816327 291.15065,57.9489796 297.656084,58.8673469 C304.069891,59.6938776 307.093544,60.8877551 307.093544,65.4795918 C307.093544,69.8877551 303.336885,72.5510204 296.739825,72.5510204 Z" id="Path" fill="#6FA159"></path>
                        <path d="M223.622416,55.4693878 C223.805668,55.377551 223.98892,55.377551 224.172171,55.4693878 L228.386959,57.9489796 C228.570211,58.0408163 228.661837,58.2244898 228.661837,58.4081633 L228.661837,63.3673469 C228.661837,63.5510204 228.570211,63.7346939 228.386959,63.8265306 L224.172171,66.3061224 C223.98892,66.3979592 223.805668,66.3979592 223.622416,66.3061224 L219.407628,63.8265306 C219.224377,63.7346939 219.132751,63.5510204 219.132751,63.3673469 L219.132751,58.4081633 C219.132751,58.2244898 219.224377,58.0408163 219.407628,57.9489796 L223.622416,55.4693878 Z" id="Path" fill="#314C35"></path>
                        <path d="M330,39.122449 C330,41.3265306 328.167483,43.1632653 325.968464,43.1632653 C323.769444,43.1632653 321.936927,41.3265306 321.936927,39.122449 C321.936927,36.8265306 323.769444,35.0816327 325.968464,35.0816327 C328.167483,35.0816327 330,36.9183673 330,39.122449 Z M322.578308,39.122449 C322.578308,40.9591837 324.135947,42.5204082 325.968464,42.5204082 C327.80098,42.5204082 329.358619,40.9591837 329.358619,39.122449 C329.358619,37.2857143 327.80098,35.7244898 325.968464,35.7244898 C324.135947,35.8163265 322.578308,37.2857143 322.578308,39.122449 Z M324.50245,36.9183673 L326.060089,36.9183673 C326.609844,36.9183673 327.617729,36.9183673 327.617729,38.1122449 C327.617729,38.9387755 327.067974,39.122449 326.793096,39.2142857 C327.434477,39.2142857 327.434477,39.6734694 327.526103,40.2244898 C327.526103,40.5918367 327.617729,41.2346939 327.80098,41.4183673 L326.884722,41.4183673 C326.884722,41.2346939 326.70147,40.0408163 326.70147,39.9489796 C326.609844,39.6734694 326.518219,39.5816327 326.243341,39.5816327 L325.418709,39.5816327 L325.418709,41.4183673 L324.50245,41.4183673 L324.50245,36.9183673 L324.50245,36.9183673 Z M325.327083,38.8469388 L326.060089,38.8469388 C326.609844,38.8469388 326.70147,38.4795918 326.70147,38.2040816 C326.70147,37.5612245 326.243341,37.5612245 326.060089,37.5612245 L325.327083,37.5612245 L325.327083,38.8469388 C325.327083,38.8469388 325.327083,38.8469388 325.327083,38.8469388 Z" id="Shape" fill="#6FA159"></path>
                    </g>
                </g>
            </g>
        </g>
    </g>
</svg>