<?xml version="1.0" encoding="UTF-8"?>
<svg width="180px" height="160px" viewBox="0 0 180 160" version="1.1" xmlns="http://www.w3.org/2000/svg" xmlns:xlink="http://www.w3.org/1999/xlink">
    <!-- Generator: Sketch 55.2 (78181) - https://sketchapp.com -->
    <title>iconfinder_React.js_logo_1174949</title>
    <desc>Created with Sketch.</desc>
    <g id="Page-1" stroke="none" stroke-width="1" fill="none" fill-rule="evenodd">
        <g id="deviun.me/code" transform="translate(-207.000000, -3506.000000)" fill="#00D8FF" fill-rule="nonzero">
            <g id="Skills" transform="translate(159.000000, 3311.000000)">
                <g id="iconfinder_React.js_logo_1174949" transform="translate(48.000000, 195.000000)">
                    <ellipse id="Oval" cx="90" cy="79.7125749" rx="16.0497336" ry="16.0319361"></ellipse>
                    <path d="M90,116.439122 C67.4600355,116.439122 47.7655417,113.788423 33.026643,108.742515 C23.4671403,105.48503 15.3463588,101.141717 9.55950266,96.1916168 C3.42095915,90.9540918 0.159857904,85.237525 0.159857904,79.7125749 C0.159857904,69.1097804 11.7975133,58.7305389 31.3321492,51.9600798 C47.3179396,46.4031936 68.1634103,43.3053892 89.9680284,43.3053892 C111.388988,43.3053892 131.946714,46.3073852 147.83659,51.8003992 C157.14032,54.994012 164.973357,59.1457086 170.536412,63.744511 C176.579041,68.7904192 179.776199,74.3153693 179.776199,79.7125749 C179.776199,90.7305389 166.763766,101.876248 145.790409,108.806387 C130.955595,113.724551 111.133215,116.439122 90,116.439122 Z M90,50.9700599 C69.3143872,50.9700599 48.8525755,53.9720559 33.8898757,59.1776447 C15.9218472,65.4371257 7.86500888,73.996008 7.86500888,79.7125749 C7.86500888,85.6526946 16.5293073,95.00998 35.5204263,101.493014 C49.4600355,106.251497 68.3232682,108.774451 90,108.774451 C110.333925,108.774451 129.293073,106.219561 143.39254,101.52495 C163.119005,94.9780439 172.134991,85.6207585 172.134991,79.7125749 C172.134991,76.6786427 169.833037,73.1017964 165.64476,69.6207585 C160.817052,65.5968064 153.783304,61.9241517 145.374778,59.0179641 C130.25222,53.8443114 110.589698,50.9700599 90,50.9700599 Z" id="Shape"></path>
                    <path d="M53.5843694,159.616766 C50.3232682,159.616766 47.4458259,158.914172 45.0159858,157.508982 C35.8401421,152.207585 32.642984,136.942116 36.5115453,116.662675 C39.6767318,100.023952 47.4138544,80.4790419 58.3161634,61.6047904 C69.026643,43.0818363 81.8792185,26.7944112 94.5719361,15.7764471 C101.989343,9.3253493 109.502664,4.5988024 116.280639,2.10778443 C123.666075,-0.606786427 130.060391,-0.606786427 134.728242,2.0758483 C144.287744,7.56886228 147.452931,24.4311377 142.976909,46.0199601 C139.811723,61.3493014 132.26643,79.8403194 121.715808,98.1397206 C110.461812,117.620758 98.312611,133.333333 86.5790409,143.58483 C78.9698046,150.227545 71.1367673,155.081836 63.9751332,157.60479 C60.2344583,158.946108 56.7175844,159.616766 53.5843694,159.616766 Z M61.6092362,63.5209581 L64.9342806,65.4371257 C54.60746,83.3213573 46.9662522,102.51497 44.0248668,118.0998 C40.4760213,136.782435 43.8969805,148.023952 48.8206039,150.866267 C50.035524,151.568862 51.634103,151.952096 53.5843694,151.952096 C59.946714,151.952096 69.9538188,147.928144 81.5275311,137.836327 C92.6216696,128.159681 104.227353,113.085828 115.065719,94.3393214 C125.232682,76.742515 132.458259,59.0499002 135.463588,44.5189621 C139.651865,24.1756487 136.039076,11.7205589 130.891652,8.750499 C128.269982,7.249501 124.017762,7.44111776 118.902309,9.3253493 C112.987567,11.497006 106.305506,15.744511 99.5914742,21.5888224 C87.5381883,32.0638723 75.2291297,47.6487026 64.9342806,65.4690619 L61.6092362,63.5209581 Z" id="Shape"></path>
                    <path d="M126.415631,159.712575 C117.719361,159.712575 106.689165,154.47505 95.1793961,144.57485 C82.3268206,133.52495 69.250444,117.077844 58.3161634,98.2035928 L58.3161634,98.2035928 C47.5737123,79.6806387 39.9005329,60.4231537 36.6714032,43.9121756 C34.7850799,34.2674651 34.4333925,25.4211577 35.6483126,18.2994012 C36.991119,10.5389222 40.1563055,5.01397206 44.8561279,2.2994012 C54.383659,-3.2255489 70.5932504,2.45908184 87.0905861,17.1177645 C98.7921847,27.497006 111.069272,43.2734531 121.651865,61.5409182 C132.937833,81.0219561 140.515098,99.3852295 143.520426,114.650699 C145.470693,124.550898 145.790409,133.748503 144.415631,141.221557 C142.944938,149.173653 139.619893,154.826347 134.824156,157.60479 C132.426288,159.00998 129.580817,159.712575 126.415631,159.712575 Z M64.9662522,94.3712575 C75.3250444,112.255489 88.1776199,128.447106 100.198934,138.762475 C114.618117,151.153693 126.063943,153.836327 131.019538,150.962076 C136.166963,147.992016 139.939609,135.824351 136.039076,116.151697 C133.161634,101.716567 125.904085,84.1516966 115.033748,65.4051896 C104.834813,47.8083832 93.1012433,32.7025948 82.0071048,22.8662675 C66.4689165,9.06986028 53.8721137,5.97205589 48.7246892,8.94211577 C46.1030195,10.4431138 44.1527531,14.243513 43.2255773,19.6087824 C42.1705151,25.8043912 42.4902309,33.7245509 44.2166963,42.4431138 C47.285968,58.1237525 54.6394316,76.5508982 64.9662522,94.3712575 L64.9662522,94.3712575 Z" id="Shape"></path>
                </g>
            </g>
        </g>
    </g>
</svg>