<?xml version="1.0" encoding="UTF-8"?>
<svg width="256px" height="82px" viewBox="0 0 256 82" version="1.1" xmlns="http://www.w3.org/2000/svg" xmlns:xlink="http://www.w3.org/1999/xlink">
    <!-- Generator: Sketch 55.2 (78181) - https://sketchapp.com -->
    <title>redis-official</title>
    <desc>Created with Sketch.</desc>
    <g id="Page-1" stroke="none" stroke-width="1" fill="none" fill-rule="evenodd">
        <g id="deviun.me/code" transform="translate(-667.000000, -3837.000000)" fill-rule="nonzero">
            <g id="Skills" transform="translate(159.000000, 3311.000000)">
                <g id="redis-official" transform="translate(507.000000, 525.000000)">
                    <path d="M141.110398,26.2750858 C141.110398,28.3013373 139.446297,30.1092911 137.276193,30.1092911 C135.612092,30.1092911 134.165729,30.5436478 132.935985,31.4840076 C131.561828,32.352721 130.476496,33.5819056 129.608902,34.9560624 C127.872595,37.2711388 127.00612,40.0194524 126.64341,41.0314587 L126.64341,54.7752655 C126.64341,56.8731636 124.835456,58.6094708 122.665352,58.6094708 C120.554125,58.5942267 118.846391,56.8864921 118.831147,54.7752655 L118.831147,26.2762053 C118.831147,24.1783072 120.566335,22.5147659 122.665352,22.5147659 C124.835456,22.5147659 126.64341,24.178867 126.64341,26.2762053 L126.64341,26.7827681 C127.077207,26.2762053 127.650938,25.6979959 128.162539,25.3358454 C130.549821,23.74507 133.659166,22.442 137.276193,22.5147659 C139.446297,22.5147659 141.110398,24.178867 141.110398,26.2762053 L141.110398,26.2750858 Z M138.986752,40.5248958 C139.059518,30.6875004 146.726809,22.4414402 156.635291,22.4414402 C166.03889,22.4414402 173.483405,29.4577561 174.068331,39.2223855 L174.068331,39.5839762 C174.068331,39.7295081 174.068331,40.0899794 173.995566,40.2349515 C173.77167,41.9712588 172.259258,43.128797 170.234126,43.128797 L147.232253,43.128797 C147.593844,44.792898 148.389231,46.673058 149.691742,47.9033621 C151.210871,49.6396694 154.104156,50.9405005 156.635291,51.1576788 C159.239193,51.3742974 162.344619,50.7238819 164.15817,49.3497251 C165.676739,47.7578302 168.642791,47.9755683 169.583151,49.1258299 C170.523511,50.1333583 171.246692,52.3096196 169.583151,53.8276291 C166.03833,57.0819458 161.770888,58.6021942 156.634732,58.6021942 C146.72625,58.5311075 139.058959,50.3572535 138.986193,40.5198581 L138.986752,40.5248958 Z M146.871222,36.9806348 L167.34084,36.9806348 C166.617659,34.0867893 162.928426,29.8199065 156.635291,29.3133436 C150.487689,29.6021685 147.455588,34.0151428 146.870662,36.9806348 L146.871222,36.9806348 Z M210.922041,54.7019399 C210.922041,56.7998379 209.185734,58.6089111 207.01507,58.6089111 C205.055987,58.6089111 203.543575,57.2347543 203.180865,55.498447 C200.438148,57.3791667 196.960496,58.6089111 193.343469,58.6089111 C183.57884,58.6089111 175.766577,50.3628509 175.766577,40.5976617 C175.766577,30.6875004 183.57884,22.4414402 193.343469,22.4414402 C196.88829,22.4414402 200.359785,23.5984187 203.035892,25.4791383 L203.035892,11.8808634 C203.035892,9.78296535 204.7722,7.97389214 207.01395,7.97389214 C209.184055,7.97389214 210.920922,9.78184588 210.920922,11.8808634 L210.920922,54.7024996 L210.922041,54.7019399 Z M193.345148,30.32535 C190.741247,30.32535 188.353965,31.4101222 186.546571,33.2908419 C184.738617,35.0987956 183.652725,37.7026968 183.652725,40.5965423 C183.652725,43.3392585 184.737498,45.948757 186.546571,47.7572705 C188.354524,49.6379902 190.741247,50.7238819 193.345148,50.7238819 C196.020696,50.7238819 198.336332,49.6391096 200.144286,47.7572705 C201.95224,45.9493167 203.038131,43.3448558 203.038131,40.5965423 C203.038131,37.7026968 201.953359,35.0999151 200.144286,33.2908419 C198.336332,31.4101222 196.021256,30.32535 193.345148,30.32535 Z M224.690476,13.3988728 C224.690476,15.5689771 223.026935,17.3769308 220.783505,17.3769308 C218.613401,17.3769308 216.877619,15.5689771 216.877619,13.3988728 L216.877619,11.8797439 C216.873317,10.8424729 217.283414,9.8464252 218.016829,9.11290486 C218.750245,8.37938453 219.746234,7.96914436 220.783505,7.97330064 C223.026375,7.97330064 224.690476,9.70963967 224.690476,11.8803036 L224.690476,13.3994326 L224.690476,13.3988728 Z M224.690476,26.496742 L224.690476,54.7075372 C224.690476,56.8776415 223.026935,58.6145402 220.783505,58.6145402 C219.746234,58.6186965 218.750245,58.2084563 218.016829,57.474936 C217.283414,56.7414157 216.873317,55.745368 216.877619,54.708097 L216.877619,26.4973018 C216.877619,24.1827851 218.612841,22.5186841 220.783505,22.5186841 C223.026935,22.5186841 224.690476,24.1827851 224.690476,26.4973018 L224.690476,26.496742 Z M229.657032,48.2649529 C230.958982,46.5297651 233.491237,46.3125867 235.082012,47.6867435 C236.962732,49.2786384 240.218168,50.9410602 243.038688,50.8694138 C244.997771,50.8694138 246.800127,50.2189982 247.957666,49.495257 C248.965194,48.6276631 249.259057,47.9044816 249.259057,47.3251527 C249.259057,46.963562 249.186291,46.8191496 249.042438,46.6014115 C248.969672,46.3847929 248.680847,46.0954084 248.102078,45.7338176 C247.09455,45.0100764 244.919408,44.2141289 242.315507,43.7075661 L242.242741,43.7075661 C239.999871,43.2737691 237.829766,42.7000377 235.949606,41.8268464 C233.990523,40.8864865 232.255336,39.5850957 230.958423,37.6321698 C230.163595,36.3302192 229.729238,34.7383243 229.729238,33.0759025 C229.729238,29.7482601 231.609958,26.9271806 233.99668,25.1186671 C236.528375,23.3834793 239.566074,22.4431194 242.894276,22.4431194 C247.8849,22.4431194 251.429161,24.830402 253.744237,26.4211774 C255.480544,27.5787156 255.986548,29.9659982 254.901216,31.7733922 C253.744237,33.5096994 251.356955,34.0162623 249.549001,32.7809206 C247.234484,31.2623514 245.208792,30.1042534 242.888119,30.1042534 C241.080165,30.1042534 239.48827,30.6830225 238.54791,31.406204 C237.60755,32.0577391 237.390932,32.7087144 237.390932,33.0703051 C237.390932,33.3591299 237.390932,33.4318959 237.535344,33.6485145 C237.60811,33.7929269 237.824729,34.0823114 238.331292,34.371696 C239.271651,35.0226712 241.152371,35.6736465 243.61186,36.1080032 L243.684626,36.1807692 L243.757392,36.1807692 C246.144674,36.6140064 248.386425,37.2655414 250.484323,38.2781075 C252.443406,39.1457014 254.391294,40.5204179 255.620479,42.54555 C256.488073,43.991913 256.994636,45.656014 256.994636,47.3201151 C256.994636,50.8643761 255.035553,53.829868 252.437249,55.7161851 C249.833348,57.5241388 246.577911,58.6100306 243.03365,58.6100306 C237.391491,58.5372646 233.051843,55.9344829 230.158557,53.6194066 C228.566662,52.317456 228.350603,49.8579672 229.651434,48.2660723 L229.657032,48.2649529 Z" id="Shape" fill="#636466"></path>
                    <path d="M92.4881972,63.9269818 C87.4068956,66.575662 61.083537,77.398756 55.4794401,80.3200286 C49.8753433,83.2413013 46.7620805,83.2138741 42.3351127,81.0980645 C37.9081448,78.9822548 9.89549688,67.6665914 4.84945881,65.2546804 C2.32727939,64.0490047 1.00126006,63.0325205 1.00126006,62.0708906 L1.00126006,52.4461957 C1.00126006,52.4461957 37.4693102,44.5068719 43.357754,42.3944207 C49.2461978,40.2819695 51.2875622,40.2114425 56.2977771,42.0417858 C61.3079919,43.872129 91.2668489,49.2825565 96.2182912,51.0961077 L96.2160523,60.5836668 C96.216612,61.5352214 95.0741868,62.5791327 92.4881972,63.9269818 L92.4881972,63.9269818 Z" id="Path" fill="#A41E11"></path>
                    <path d="M92.4881972,54.300048 C87.4068956,56.9476087 61.083537,67.7718222 55.4794401,70.6930948 C49.8753433,73.6143674 46.7620805,73.5869402 42.3351127,71.4711306 C37.9081448,69.355321 9.89549688,58.0385381 4.84945881,55.6277465 C-0.196579256,53.2169549 -0.302369738,51.5556526 4.65466999,49.6150409 L43.357754,34.6302949 C49.2450783,32.5189632 51.2875622,32.4473167 56.2977771,34.27766 C61.3079919,36.1080032 87.4751837,46.5280858 92.4260663,48.341637 C97.3769489,50.1551881 97.568939,51.6513678 92.4820401,54.300048 L92.4881972,54.300048 Z" id="Path" fill="#D82C20"></path>
                    <path d="M92.4881972,48.232488 C87.4068956,50.8811683 61.083537,61.7042622 55.4794401,64.6272141 C49.8753433,67.5501659 46.7620805,67.5199401 42.3351127,65.4035707 C37.9081448,63.2872013 9.89549688,51.9720976 4.84945881,49.5601866 C2.32727939,48.3545109 1.00126006,47.3380267 1.00126006,46.3775163 L1.00126006,36.7517019 C1.00126006,36.7517019 37.4693102,28.8118184 43.357754,26.6999269 C49.2461978,24.5880355 51.2875622,24.5169487 56.2977771,26.347292 C61.3079919,28.1776352 91.2668489,33.5869433 96.2182912,35.4010541 L96.2160523,44.8902924 C96.216612,45.841847 95.0741868,46.8851987 92.4881972,48.2330478 L92.4881972,48.232488 Z" id="Path" fill="#A41E11"></path>
                    <path d="M92.4881972,38.6055542 C87.4068956,41.2542344 61.083537,52.0773284 55.4794401,55.0002802 C49.8753433,57.923232 46.7620805,57.8930062 42.3351127,55.7766368 C37.9081448,53.6602674 9.89549688,42.344604 4.84945881,39.9332527 C-0.196579256,37.5219014 -0.302369738,35.8617185 4.65466999,33.9199874 L43.357754,18.9363609 C49.2450783,16.8244694 51.2875622,16.7533827 56.2977771,18.5837259 C61.3079919,20.4140692 87.4751837,30.8335921 92.4260663,32.6477029 C97.3769489,34.4618138 97.568939,35.9574337 92.4820401,38.6061139 L92.4881972,38.6055542 Z" id="Path" fill="#D82C20"></path>
                    <path d="M92.4881972,31.957546 C87.4068956,34.6062262 61.083537,45.4304396 55.4794401,48.3578694 C49.8753433,51.2852991 46.7620805,51.2505953 42.3351127,49.134226 C37.9081448,47.0178566 9.89549688,35.7021932 4.84945881,33.2908419 C2.32727939,32.0851662 1.00126006,31.068682 1.00126006,30.1081716 L1.00126006,20.4823572 C1.00126006,20.4823572 37.4693102,12.537436 43.357754,10.4255446 C49.2461978,8.3136531 51.2875622,8.24256638 56.2977771,10.0729096 C61.3079919,11.9032529 91.2668489,17.3125609 96.2182912,19.1266718 L96.2160523,28.6153504 C96.216612,29.5657855 95.0741868,30.6096969 92.4881972,31.9569862 L92.4881972,31.957546 Z" id="Path" fill="#A41E11"></path>
                    <path d="M92.4881972,22.3300524 C87.4068956,24.9787326 61.083537,35.802946 55.4794401,38.7247784 C49.8753433,41.6466107 46.7620805,41.6175044 42.3351127,39.5016947 C37.9081448,37.3858851 9.89549688,26.0696619 4.84945881,23.6583106 C-0.196579256,21.2469593 -0.302369738,19.5862167 4.65466999,17.6450453 L43.357754,2.66085904 C49.2450783,0.548407828 51.2875622,0.47788084 56.2977771,2.3082241 C61.3079919,4.13856736 87.4751837,14.5580902 92.4260663,16.3722011 C97.3769489,18.1863119 97.568939,19.6813721 92.4820401,22.3294926 L92.4881972,22.3300524 Z" id="Path" fill="#D82C20"></path>
                    <g id="Group" transform="translate(17.050068, 5.974508)" fill="#FFFFFF">
                        <path d="M35.7857296,7.94044327 L33.9374747,12.3870019 L30.9512724,7.42772326 L21.4245317,6.57132412 L28.5332043,4.00604487 L26.4061999,0.071086726 L33.0598055,2.6749879 L39.3383866,0.620749442 L37.6390221,4.68892523 L44.0368274,7.08348439 L35.7857296,7.94044327 Z M18.0437142,22.2607803 L40.1085861,18.8743654 L33.4460247,28.6473908 L18.0437142,22.2607803 Z" id="Shape"></path>
                        <ellipse id="Oval" cx="12.0970577" cy="14.1283469" rx="11.7931199" ry="4.57138025"></ellipse>
                    </g>
                    <polygon id="Path" fill="#7A0C00" points="83.89398 19.4378861 70.8442482 24.5897147 70.8369716 14.2737433"></polygon>
                    <polygon id="Path" fill="#AD2115" points="70.8375314 14.2731836 70.844808 24.5891549 69.4314695 25.146654 56.3895741 19.9875488"></polygon>
                </g>
            </g>
        </g>
    </g>
</svg>