<?xml version="1.0" encoding="UTF-8"?>
<svg width="74px" height="74px" viewBox="0 0 74 74" version="1.1" xmlns="http://www.w3.org/2000/svg" xmlns:xlink="http://www.w3.org/1999/xlink">
    <!-- Generator: Sketch 55.2 (78181) - https://sketchapp.com -->
    <title>typescriptlang-icon</title>
    <desc>Created with Sketch.</desc>
    <g id="Page-1" stroke="none" stroke-width="1" fill="none" fill-rule="evenodd">
        <g id="deviun.me/code" transform="translate(-1061.000000, -3401.000000)" fill="#007ACC" fill-rule="nonzero">
            <g id="Skills" transform="translate(159.000000, 3311.000000)">
                <g id="typescriptlang-icon" transform="translate(902.000000, 89.000000)">
                    <path d="M0,38.0769231 L0,75 L73.8484615,75 L73.8484615,1.15153846 L0,1.15153846 L0,38.0769231 Z M59.5119231,35.1346154 C61.3869231,35.6030769 62.8176923,36.4361538 64.1307692,37.7953846 C64.8115385,38.5223077 65.8188462,39.8469231 65.9007692,40.1630769 C65.9238462,40.2553846 62.7126923,42.4130769 60.7661538,43.6211538 C60.6969231,43.6673077 60.4142308,43.3638462 60.0969231,42.8942308 C59.1473077,41.5096154 58.1515385,40.9130769 56.6273077,40.8080769 C54.3888462,40.6557692 52.935,41.8280769 52.9580769,43.785 C52.9580769,44.3596154 53.0388462,44.6988462 53.2742308,45.1696154 C53.7669231,46.1896154 54.6819231,46.7988462 57.5526923,48.0426923 C62.8396154,50.3157692 65.1011538,51.8157692 66.5065385,53.9503846 C68.0757692,56.3296154 68.4288462,60.1280769 67.3626923,62.9526923 C66.1903846,66.0242308 63.2838462,68.1103846 59.1934615,68.8026923 C57.9276923,69.0253846 54.9265385,68.9907692 53.5673077,68.745 C50.6019231,68.2176923 47.7888462,66.7523077 46.0534615,64.83 C45.3726923,64.08 44.0492308,62.1219231 44.1311538,61.98 C44.1657692,61.9338462 44.4715385,61.7457692 44.8119231,61.5461538 L47.5546154,59.9653846 L49.6776923,58.7342308 L50.1230769,59.3919231 C50.7438462,60.3415385 52.1042308,61.6419231 52.9246154,62.0757692 C55.2807692,63.3184615 58.5161538,63.1419231 60.1096154,61.7123077 C60.7903846,61.0915385 61.0707692,60.4465385 61.0707692,59.4969231 C61.0707692,58.6407692 60.9669231,58.2657692 60.5203846,57.6219231 C59.9457692,56.8026923 58.7734615,56.1103846 55.4434615,54.6680769 C51.6334615,53.0273077 49.9926923,52.0073077 48.4926923,50.3896154 C47.625,49.4515385 46.8046154,47.9515385 46.4642308,46.6973077 C46.1826923,45.6542308 46.1123077,43.0396154 46.335,41.985 C47.1196154,38.2926923 49.8980769,35.7369231 53.9076923,34.9753846 C55.2092308,34.7296154 58.2346154,34.8230769 59.5107692,35.1392308 L59.5119231,35.1346154 Z M42.1753846,38.2153846 L42.1984615,41.2384615 L32.5869231,41.2384615 L32.5869231,68.55 L25.7884615,68.55 L25.7884615,41.2384615 L16.1769231,41.2384615 L16.1769231,38.2730769 L16.2576923,35.2269231 C16.2923077,35.1807692 22.1423077,35.1576923 29.2338462,35.1692308 L42.1396154,35.2038462 L42.1753846,38.2153846 Z" id="Shape"></path>
                </g>
            </g>
        </g>
    </g>
</svg>