<?xml version="1.0" encoding="UTF-8"?>
<svg width="101px" height="101px" viewBox="0 0 101 101" version="1.1" xmlns="http://www.w3.org/2000/svg" xmlns:xlink="http://www.w3.org/1999/xlink">
    <!-- Generator: Sketch 55.1 (78136) - https://sketchapp.com -->
    <title>kiss</title>
    <desc>Created with Sketch.</desc>
    <g id="Page-1" stroke="none" stroke-width="1" fill="none" fill-rule="evenodd">
        <g id="deviun.me" transform="translate(-690.000000, -3861.000000)" fill-rule="nonzero">
            <g id="kiss" transform="translate(690.000000, 3861.000000)">
                <circle id="Oval" fill="#FFE17D" cx="50.5" cy="50.5" r="50.5"></circle>
                <path d="M57.7475656,93.6799038 C29.897205,93.6799038 7.32006401,71.1026635 7.32006401,43.2521804 C7.32006401,31.1914842 11.5593228,20.1241748 18.6221278,11.4466667 C7.26136325,20.6930625 0,34.7824896 0,50.5722766 C0,78.4227597 22.577141,101 50.4275016,101 C66.217416,101 80.3067812,93.7384078 89.5533333,82.3775933 C80.8756664,89.4404293 69.8084057,93.6799038 57.7475656,93.6799038 Z" id="Path" fill="#FFD164"></path>
                <g id="Group" transform="translate(20.873333, 28.953333)" fill="#AA7346">
                    <path d="M52.5140591,23.686978 C51.9184477,23.686978 51.329139,23.4271859 50.9273376,22.9276917 C49.6360584,21.3195014 47.8872376,20.4339627 46.0064527,20.4339627 C44.1258648,20.4339627 42.3770441,21.3195014 41.0855678,22.9276917 C40.3834003,23.8012157 39.1015751,23.9434219 38.2264754,23.2382999 C37.3511787,22.5353444 37.2115331,21.255095 37.9150794,20.3799953 C39.965645,17.8297384 42.913764,16.3676936 46.0064527,16.3676936 C49.0991415,16.3676936 52.0470635,17.8297384 54.0978261,20.3799953 C54.8015694,21.255292 54.6617268,22.5355414 53.7864301,23.2382999 C53.4114155,23.5400448 52.9603737,23.686978 52.5140591,23.686978 Z" id="Path"></path>
                    <path d="M55.763923,15.5552276 C55.4590267,15.5552276 55.1476307,15.4860941 54.8569156,15.3399487 C54.798221,15.3113893 48.6081166,12.3014244 39.5002251,12.3014244 C38.3771509,12.3014244 37.4669921,11.3912655 37.4669921,10.2681913 C37.4669921,9.14511714 38.3771509,8.23495828 39.5002251,8.23495828 C49.6230589,8.23495828 56.3912453,11.5610463 56.6740819,11.7024646 C57.6795701,12.2051102 58.0860985,13.4258773 57.5842408,14.4305777 C57.2283314,15.1429873 56.5104069,15.5552276 55.763923,15.5552276 Z" id="Path"></path>
                    <path d="M2.09035188,12.3014244 C1.55816204,12.3014244 1.02616916,12.0934331 0.625943492,11.6796171 C-0.152448163,10.8710903 -0.128615828,9.58375029 0.67991093,8.80457079 C0.938915238,8.5552176 7.12567138,2.66311578 16.1937766,0.18593161 C17.2770646,-0.103995646 18.393639,0.527462766 18.6906569,1.61153859 C18.9860991,2.69482658 18.3475501,3.81297673 17.2642621,4.10920676 C9.18884259,6.31478109 3.55791166,11.6778444 3.50079283,11.7320088 C3.10686993,12.1123414 2.59870939,12.3014244 2.09035188,12.3014244 Z" id="Path"></path>
                    <path d="M29.7411791,57.8558518 C29.0248303,57.8566385 28.3307382,57.4770937 27.9606476,56.806637 C27.4174279,55.8234054 27.7731403,54.5868814 28.7563719,54.0436617 C29.8126761,53.4590801 31.0929256,53.0174926 32.3318131,52.591071 C33.3309985,52.2463885 35.0940005,51.6387624 35.7118686,51.150298 C35.0955762,50.6618336 33.3308016,50.0542075 32.3318131,49.709525 C29.5473691,48.7501258 26.0814384,47.5565394 26.0814384,44.4248523 C26.0814384,41.2957257 29.5473691,40.103518 32.3318131,39.1451036 C33.3294229,38.8019968 35.0876977,38.197719 35.7071415,37.7108303 C35.086122,37.2239416 33.3292259,36.6188761 32.3318131,36.2765571 C31.0976527,35.8517112 29.8221303,35.413275 28.7674017,34.8326327 C27.7841702,34.2909887 27.4251094,33.0544647 27.9667534,32.0712331 C28.5083974,31.0872137 29.7441336,30.7307135 30.7273651,31.269797 C31.4754247,31.6820373 32.582545,32.0623698 33.6548032,32.4308847 C36.4408229,33.3887083 39.9067536,34.580719 39.9067536,37.7098455 C39.9067536,40.83976 36.4408229,42.0319676 33.6548032,42.990382 C32.6571934,43.3334889 30.8973429,43.9387514 30.2778991,44.426231 C30.8957672,44.9139076 32.6573904,45.5213367 33.6563789,45.8652314 C36.4408229,46.8246306 39.9067536,48.018217 39.9067536,51.1499041 C39.9067536,54.2813942 36.4408229,55.4751776 33.6563789,56.4353646 C32.582545,56.8054552 31.4706976,57.1875604 30.722638,57.6011795 C30.411439,57.7741116 30.0748318,57.8558518 29.7411791,57.8558518 Z" id="Shape"></path>
                </g>
                <path d="M77.1909527,88.9013094 C73.6788602,84.4696329 65.3632383,72.5717043 70.1058061,64.4839245 C71.9391887,61.3574759 75.5465706,59.5734796 79.137775,59.9853234 C82.0544572,60.3197484 84.3946685,61.8578265 85.8630712,63.9734758 C86.464992,64.8407237 87.5553939,65.199107 88.5518876,64.8573559 C90.9828506,64.0235703 93.7762288,64.1732596 96.3247746,65.635503 C99.4628121,67.4359334 101.319474,71.0162021 100.954495,74.6253791 C100.010085,83.9617583 86.2921691,88.6163848 80.8482481,90.1035764 C79.5011765,90.4716617 78.0598021,89.9978434 77.1909527,88.9013094 Z" id="Path" fill="#E6646E"></path>
                <path d="M33.6666667,55.2133333 L33.6666667,55.2133333 C31.4354204,55.2133333 29.6266667,53.3830469 29.6266667,51.1252381 L29.6266667,47.8547619 C29.6266667,45.5969531 31.4354204,43.7666667 33.6666667,43.7666667 L33.6666667,43.7666667 C35.897913,43.7666667 37.7066667,45.5969531 37.7066667,47.8547619 L37.7066667,51.1252381 C37.7066667,53.3830469 35.897913,55.2133333 33.6666667,55.2133333 Z" id="Path" fill="#7D5046"></path>
                <path d="M33.7788889,43.7666667 C33.5098708,43.7666667 33.2473214,43.7950416 32.9933333,43.8480733 L32.9933333,49.4226667 C32.9933333,50.7613753 34.0484777,51.8466667 35.35,51.8466667 C36.6515223,51.8466667 37.7066667,50.7613753 37.7066667,49.4226667 L37.7066667,47.8066667 C37.7066667,45.5754204 35.9483464,43.7666667 33.7788889,43.7666667 Z" id="Path" fill="#9C6846"></path>
                <path d="M76.6077502,66.1190485 C78.0723452,63.6137234 80.6758513,61.9934694 83.4933333,61.6513211 C82.2560878,60.7795163 80.7802826,60.1777869 79.1048582,59.9853285 C75.5248899,59.5734834 71.9287947,61.3572875 70.1013451,64.4839442 C65.3736157,72.5715524 73.6632199,84.4697178 77.1643238,88.9014087 C78.0304547,89.9977483 79.4673194,90.4715682 80.809783,90.1036796 C81.4023471,89.9413176 82.1068159,89.733811 82.8685155,89.4940301 C79.0704411,84.4524916 72.2104249,73.6415577 76.6077502,66.1190485 Z" id="Path" fill="#DC4655"></path>
            </g>
        </g>
    </g>
</svg>